G04 #@! TF.GenerationSoftware,KiCad,Pcbnew,(6.0.0-0)*
G04 #@! TF.CreationDate,2023-11-11T14:38:35+00:00*
G04 #@! TF.ProjectId,rosco_pro_030_proto,726f7363-6f5f-4707-926f-5f3033305f70,p5*
G04 #@! TF.SameCoordinates,Original*
G04 #@! TF.FileFunction,Legend,Bot*
G04 #@! TF.FilePolarity,Positive*
%FSLAX46Y46*%
G04 Gerber Fmt 4.6, Leading zero omitted, Abs format (unit mm)*
G04 Created by KiCad (PCBNEW (6.0.0-0)) date 2023-11-11 14:38:35*
%MOMM*%
%LPD*%
G01*
G04 APERTURE LIST*
%ADD10C,0.300000*%
%ADD11C,0.010000*%
G04 APERTURE END LIST*
D10*
X274778571Y-44428572D02*
X273278571Y-44428572D01*
X273278571Y-45000001D01*
X273350000Y-45142858D01*
X273421428Y-45214286D01*
X273564285Y-45285715D01*
X273778571Y-45285715D01*
X273921428Y-45214286D01*
X273992857Y-45142858D01*
X274064285Y-45000001D01*
X274064285Y-44428572D01*
X274778571Y-45928572D02*
X273778571Y-45928572D01*
X274064285Y-45928572D02*
X273921428Y-46000001D01*
X273850000Y-46071429D01*
X273778571Y-46214286D01*
X273778571Y-46357143D01*
X274778571Y-47071429D02*
X274707142Y-46928572D01*
X274635714Y-46857143D01*
X274492857Y-46785715D01*
X274064285Y-46785715D01*
X273921428Y-46857143D01*
X273850000Y-46928572D01*
X273778571Y-47071429D01*
X273778571Y-47285715D01*
X273850000Y-47428572D01*
X273921428Y-47500001D01*
X274064285Y-47571429D01*
X274492857Y-47571429D01*
X274635714Y-47500001D01*
X274707142Y-47428572D01*
X274778571Y-47285715D01*
X274778571Y-47071429D01*
X273778571Y-48000001D02*
X273778571Y-48571429D01*
X273278571Y-48214286D02*
X274564285Y-48214286D01*
X274707142Y-48285715D01*
X274778571Y-48428572D01*
X274778571Y-48571429D01*
X274778571Y-49285715D02*
X274707142Y-49142858D01*
X274635714Y-49071429D01*
X274492857Y-49000001D01*
X274064285Y-49000001D01*
X273921428Y-49071429D01*
X273850000Y-49142858D01*
X273778571Y-49285715D01*
X273778571Y-49500001D01*
X273850000Y-49642858D01*
X273921428Y-49714286D01*
X274064285Y-49785715D01*
X274492857Y-49785715D01*
X274635714Y-49714286D01*
X274707142Y-49642858D01*
X274778571Y-49500001D01*
X274778571Y-49285715D01*
X273778571Y-50214286D02*
X273778571Y-50785715D01*
X273278571Y-50428572D02*
X274564285Y-50428572D01*
X274707142Y-50500001D01*
X274778571Y-50642858D01*
X274778571Y-50785715D01*
X273778571Y-51142858D02*
X274778571Y-51500001D01*
X273778571Y-51857143D02*
X274778571Y-51500001D01*
X275135714Y-51357143D01*
X275207142Y-51285715D01*
X275278571Y-51142858D01*
X273778571Y-52428572D02*
X275278571Y-52428572D01*
X273850000Y-52428572D02*
X273778571Y-52571429D01*
X273778571Y-52857143D01*
X273850000Y-53000001D01*
X273921428Y-53071429D01*
X274064285Y-53142858D01*
X274492857Y-53142858D01*
X274635714Y-53071429D01*
X274707142Y-53000001D01*
X274778571Y-52857143D01*
X274778571Y-52571429D01*
X274707142Y-52428572D01*
X274707142Y-54357143D02*
X274778571Y-54214286D01*
X274778571Y-53928572D01*
X274707142Y-53785715D01*
X274564285Y-53714286D01*
X273992857Y-53714286D01*
X273850000Y-53785715D01*
X273778571Y-53928572D01*
X273778571Y-54214286D01*
X273850000Y-54357143D01*
X273992857Y-54428572D01*
X274135714Y-54428572D01*
X274278571Y-53714286D01*
X274778571Y-56214286D02*
X273278571Y-56214286D01*
X273992857Y-56214286D02*
X273992857Y-57071429D01*
X274778571Y-57071429D02*
X273278571Y-57071429D01*
X274778571Y-58428572D02*
X273992857Y-58428572D01*
X273850000Y-58357143D01*
X273778571Y-58214286D01*
X273778571Y-57928572D01*
X273850000Y-57785715D01*
X274707142Y-58428572D02*
X274778571Y-58285715D01*
X274778571Y-57928572D01*
X274707142Y-57785715D01*
X274564285Y-57714286D01*
X274421428Y-57714286D01*
X274278571Y-57785715D01*
X274207142Y-57928572D01*
X274207142Y-58285715D01*
X274135714Y-58428572D01*
X274778571Y-59142858D02*
X273778571Y-59142858D01*
X274064285Y-59142858D02*
X273921428Y-59214286D01*
X273850000Y-59285715D01*
X273778571Y-59428572D01*
X273778571Y-59571429D01*
X274778571Y-60714286D02*
X273278571Y-60714286D01*
X274707142Y-60714286D02*
X274778571Y-60571429D01*
X274778571Y-60285715D01*
X274707142Y-60142858D01*
X274635714Y-60071429D01*
X274492857Y-60000001D01*
X274064285Y-60000001D01*
X273921428Y-60071429D01*
X273850000Y-60142858D01*
X273778571Y-60285715D01*
X273778571Y-60571429D01*
X273850000Y-60714286D01*
X273778571Y-61285715D02*
X274778571Y-61571429D01*
X274064285Y-61857143D01*
X274778571Y-62142858D01*
X273778571Y-62428572D01*
X274778571Y-63642858D02*
X273992857Y-63642858D01*
X273850000Y-63571429D01*
X273778571Y-63428572D01*
X273778571Y-63142858D01*
X273850000Y-63000001D01*
X274707142Y-63642858D02*
X274778571Y-63500001D01*
X274778571Y-63142858D01*
X274707142Y-63000001D01*
X274564285Y-62928572D01*
X274421428Y-62928572D01*
X274278571Y-63000001D01*
X274207142Y-63142858D01*
X274207142Y-63500001D01*
X274135714Y-63642858D01*
X274778571Y-64357143D02*
X273778571Y-64357143D01*
X274064285Y-64357143D02*
X273921428Y-64428572D01*
X273850000Y-64500001D01*
X273778571Y-64642858D01*
X273778571Y-64785715D01*
X274707142Y-65857143D02*
X274778571Y-65714286D01*
X274778571Y-65428572D01*
X274707142Y-65285715D01*
X274564285Y-65214286D01*
X273992857Y-65214286D01*
X273850000Y-65285715D01*
X273778571Y-65428572D01*
X273778571Y-65714286D01*
X273850000Y-65857143D01*
X273992857Y-65928572D01*
X274135714Y-65928572D01*
X274278571Y-65214286D01*
X274207142Y-67714286D02*
X274207142Y-68857143D01*
X274778571Y-70714286D02*
X273278571Y-70714286D01*
X274778571Y-71571429D01*
X273278571Y-71571429D01*
X274778571Y-72500001D02*
X274707142Y-72357143D01*
X274635714Y-72285715D01*
X274492857Y-72214286D01*
X274064285Y-72214286D01*
X273921428Y-72285715D01*
X273850000Y-72357143D01*
X273778571Y-72500001D01*
X273778571Y-72714286D01*
X273850000Y-72857143D01*
X273921428Y-72928572D01*
X274064285Y-73000001D01*
X274492857Y-73000001D01*
X274635714Y-72928572D01*
X274707142Y-72857143D01*
X274778571Y-72714286D01*
X274778571Y-72500001D01*
X273778571Y-73428572D02*
X273778571Y-74000001D01*
X273278571Y-73642858D02*
X274564285Y-73642858D01*
X274707142Y-73714286D01*
X274778571Y-73857143D01*
X274778571Y-74000001D01*
X273778571Y-75428572D02*
X273778571Y-76000001D01*
X274778571Y-75642858D02*
X273492857Y-75642858D01*
X273350000Y-75714286D01*
X273278571Y-75857143D01*
X273278571Y-76000001D01*
X274778571Y-76714286D02*
X274707142Y-76571429D01*
X274635714Y-76500001D01*
X274492857Y-76428572D01*
X274064285Y-76428572D01*
X273921428Y-76500001D01*
X273850000Y-76571429D01*
X273778571Y-76714286D01*
X273778571Y-76928572D01*
X273850000Y-77071429D01*
X273921428Y-77142858D01*
X274064285Y-77214286D01*
X274492857Y-77214286D01*
X274635714Y-77142858D01*
X274707142Y-77071429D01*
X274778571Y-76928572D01*
X274778571Y-76714286D01*
X274778571Y-77857143D02*
X273778571Y-77857143D01*
X274064285Y-77857143D02*
X273921428Y-77928572D01*
X273850000Y-78000001D01*
X273778571Y-78142858D01*
X273778571Y-78285715D01*
X274778571Y-79928572D02*
X273778571Y-79928572D01*
X274064285Y-79928572D02*
X273921428Y-80000001D01*
X273850000Y-80071429D01*
X273778571Y-80214286D01*
X273778571Y-80357143D01*
X274707142Y-81428572D02*
X274778571Y-81285715D01*
X274778571Y-81000001D01*
X274707142Y-80857143D01*
X274564285Y-80785715D01*
X273992857Y-80785715D01*
X273850000Y-80857143D01*
X273778571Y-81000001D01*
X273778571Y-81285715D01*
X273850000Y-81428572D01*
X273992857Y-81500001D01*
X274135714Y-81500001D01*
X274278571Y-80785715D01*
X274707142Y-82071429D02*
X274778571Y-82214286D01*
X274778571Y-82500001D01*
X274707142Y-82642858D01*
X274564285Y-82714286D01*
X274492857Y-82714286D01*
X274350000Y-82642858D01*
X274278571Y-82500001D01*
X274278571Y-82285715D01*
X274207142Y-82142858D01*
X274064285Y-82071429D01*
X273992857Y-82071429D01*
X273850000Y-82142858D01*
X273778571Y-82285715D01*
X273778571Y-82500001D01*
X273850000Y-82642858D01*
X274778571Y-84000001D02*
X273992857Y-84000001D01*
X273850000Y-83928572D01*
X273778571Y-83785715D01*
X273778571Y-83500001D01*
X273850000Y-83357143D01*
X274707142Y-84000001D02*
X274778571Y-83857143D01*
X274778571Y-83500001D01*
X274707142Y-83357143D01*
X274564285Y-83285715D01*
X274421428Y-83285715D01*
X274278571Y-83357143D01*
X274207142Y-83500001D01*
X274207142Y-83857143D01*
X274135714Y-84000001D01*
X274778571Y-84928572D02*
X274707142Y-84785715D01*
X274564285Y-84714286D01*
X273278571Y-84714286D01*
X274707142Y-86071429D02*
X274778571Y-85928572D01*
X274778571Y-85642858D01*
X274707142Y-85500001D01*
X274564285Y-85428572D01*
X273992857Y-85428572D01*
X273850000Y-85500001D01*
X273778571Y-85642858D01*
X273778571Y-85928572D01*
X273850000Y-86071429D01*
X273992857Y-86142858D01*
X274135714Y-86142858D01*
X274278571Y-85428572D01*
X274207142Y-87928572D02*
X274207142Y-89071429D01*
X274778571Y-90928572D02*
X273278571Y-90928572D01*
X274778571Y-91785715D01*
X273278571Y-91785715D01*
X274778571Y-92714286D02*
X274707142Y-92571429D01*
X274635714Y-92500001D01*
X274492857Y-92428572D01*
X274064285Y-92428572D01*
X273921428Y-92500001D01*
X273850000Y-92571429D01*
X273778571Y-92714286D01*
X273778571Y-92928572D01*
X273850000Y-93071429D01*
X273921428Y-93142858D01*
X274064285Y-93214286D01*
X274492857Y-93214286D01*
X274635714Y-93142858D01*
X274707142Y-93071429D01*
X274778571Y-92928572D01*
X274778571Y-92714286D01*
X273778571Y-94857143D02*
X274778571Y-95142858D01*
X274064285Y-95428572D01*
X274778571Y-95714286D01*
X273778571Y-96000001D01*
X274778571Y-97214286D02*
X273992857Y-97214286D01*
X273850000Y-97142858D01*
X273778571Y-97000001D01*
X273778571Y-96714286D01*
X273850000Y-96571429D01*
X274707142Y-97214286D02*
X274778571Y-97071429D01*
X274778571Y-96714286D01*
X274707142Y-96571429D01*
X274564285Y-96500001D01*
X274421428Y-96500001D01*
X274278571Y-96571429D01*
X274207142Y-96714286D01*
X274207142Y-97071429D01*
X274135714Y-97214286D01*
X274778571Y-97928572D02*
X273778571Y-97928572D01*
X274064285Y-97928572D02*
X273921428Y-98000001D01*
X273850000Y-98071429D01*
X273778571Y-98214286D01*
X273778571Y-98357143D01*
X274778571Y-98857143D02*
X273778571Y-98857143D01*
X274064285Y-98857143D02*
X273921428Y-98928572D01*
X273850000Y-99000001D01*
X273778571Y-99142858D01*
X273778571Y-99285715D01*
X274778571Y-100428572D02*
X273992857Y-100428572D01*
X273850000Y-100357143D01*
X273778571Y-100214286D01*
X273778571Y-99928572D01*
X273850000Y-99785715D01*
X274707142Y-100428572D02*
X274778571Y-100285715D01*
X274778571Y-99928572D01*
X274707142Y-99785715D01*
X274564285Y-99714286D01*
X274421428Y-99714286D01*
X274278571Y-99785715D01*
X274207142Y-99928572D01*
X274207142Y-100285715D01*
X274135714Y-100428572D01*
X273778571Y-101142858D02*
X274778571Y-101142858D01*
X273921428Y-101142858D02*
X273850000Y-101214286D01*
X273778571Y-101357143D01*
X273778571Y-101571429D01*
X273850000Y-101714286D01*
X273992857Y-101785715D01*
X274778571Y-101785715D01*
X273778571Y-102285715D02*
X273778571Y-102857143D01*
X273278571Y-102500001D02*
X274564285Y-102500001D01*
X274707142Y-102571429D01*
X274778571Y-102714286D01*
X274778571Y-102857143D01*
X274778571Y-103357143D02*
X273778571Y-103357143D01*
X273278571Y-103357143D02*
X273350000Y-103285715D01*
X273421428Y-103357143D01*
X273350000Y-103428572D01*
X273278571Y-103357143D01*
X273421428Y-103357143D01*
X274707142Y-104642858D02*
X274778571Y-104500001D01*
X274778571Y-104214286D01*
X274707142Y-104071429D01*
X274564285Y-104000001D01*
X273992857Y-104000001D01*
X273850000Y-104071429D01*
X273778571Y-104214286D01*
X273778571Y-104500001D01*
X273850000Y-104642858D01*
X273992857Y-104714286D01*
X274135714Y-104714286D01*
X274278571Y-104000001D01*
X274707142Y-105285715D02*
X274778571Y-105428572D01*
X274778571Y-105714286D01*
X274707142Y-105857143D01*
X274564285Y-105928572D01*
X274492857Y-105928572D01*
X274350000Y-105857143D01*
X274278571Y-105714286D01*
X274278571Y-105500001D01*
X274207142Y-105357143D01*
X274064285Y-105285715D01*
X273992857Y-105285715D01*
X273850000Y-105357143D01*
X273778571Y-105500001D01*
X273778571Y-105714286D01*
X273850000Y-105857143D01*
X274707142Y-106642858D02*
X274778571Y-106642858D01*
X274921428Y-106571429D01*
X274992857Y-106500001D01*
X274707142Y-109000001D02*
X274778571Y-108857143D01*
X274778571Y-108571429D01*
X274707142Y-108428572D01*
X274564285Y-108357143D01*
X273992857Y-108357143D01*
X273850000Y-108428572D01*
X273778571Y-108571429D01*
X273778571Y-108857143D01*
X273850000Y-109000001D01*
X273992857Y-109071429D01*
X274135714Y-109071429D01*
X274278571Y-108357143D01*
X274778571Y-109571429D02*
X273778571Y-110357143D01*
X273778571Y-109571429D02*
X274778571Y-110357143D01*
X273778571Y-110928572D02*
X275278571Y-110928572D01*
X273850000Y-110928572D02*
X273778571Y-111071429D01*
X273778571Y-111357143D01*
X273850000Y-111500001D01*
X273921428Y-111571429D01*
X274064285Y-111642858D01*
X274492857Y-111642858D01*
X274635714Y-111571429D01*
X274707142Y-111500001D01*
X274778571Y-111357143D01*
X274778571Y-111071429D01*
X274707142Y-110928572D01*
X274778571Y-112285715D02*
X273778571Y-112285715D01*
X274064285Y-112285715D02*
X273921428Y-112357143D01*
X273850000Y-112428572D01*
X273778571Y-112571429D01*
X273778571Y-112714286D01*
X274707142Y-113785715D02*
X274778571Y-113642858D01*
X274778571Y-113357143D01*
X274707142Y-113214286D01*
X274564285Y-113142858D01*
X273992857Y-113142858D01*
X273850000Y-113214286D01*
X273778571Y-113357143D01*
X273778571Y-113642858D01*
X273850000Y-113785715D01*
X273992857Y-113857143D01*
X274135714Y-113857143D01*
X274278571Y-113142858D01*
X274707142Y-114428572D02*
X274778571Y-114571429D01*
X274778571Y-114857143D01*
X274707142Y-115000001D01*
X274564285Y-115071429D01*
X274492857Y-115071429D01*
X274350000Y-115000001D01*
X274278571Y-114857143D01*
X274278571Y-114642858D01*
X274207142Y-114500001D01*
X274064285Y-114428572D01*
X273992857Y-114428572D01*
X273850000Y-114500001D01*
X273778571Y-114642858D01*
X273778571Y-114857143D01*
X273850000Y-115000001D01*
X274707142Y-115642858D02*
X274778571Y-115785715D01*
X274778571Y-116071429D01*
X274707142Y-116214286D01*
X274564285Y-116285715D01*
X274492857Y-116285715D01*
X274350000Y-116214286D01*
X274278571Y-116071429D01*
X274278571Y-115857143D01*
X274207142Y-115714286D01*
X274064285Y-115642858D01*
X273992857Y-115642858D01*
X273850000Y-115714286D01*
X273778571Y-115857143D01*
X273778571Y-116071429D01*
X273850000Y-116214286D01*
X274778571Y-118285715D02*
X274707142Y-118142858D01*
X274635714Y-118071429D01*
X274492857Y-118000001D01*
X274064285Y-118000001D01*
X273921428Y-118071429D01*
X273850000Y-118142858D01*
X273778571Y-118285715D01*
X273778571Y-118500001D01*
X273850000Y-118642858D01*
X273921428Y-118714286D01*
X274064285Y-118785715D01*
X274492857Y-118785715D01*
X274635714Y-118714286D01*
X274707142Y-118642858D01*
X274778571Y-118500001D01*
X274778571Y-118285715D01*
X274778571Y-119428572D02*
X273778571Y-119428572D01*
X274064285Y-119428572D02*
X273921428Y-119500001D01*
X273850000Y-119571429D01*
X273778571Y-119714286D01*
X273778571Y-119857143D01*
X274778571Y-121500001D02*
X273778571Y-121500001D01*
X273278571Y-121500001D02*
X273350000Y-121428572D01*
X273421428Y-121500001D01*
X273350000Y-121571429D01*
X273278571Y-121500001D01*
X273421428Y-121500001D01*
X274778571Y-122214286D02*
X273778571Y-122214286D01*
X273921428Y-122214286D02*
X273850000Y-122285715D01*
X273778571Y-122428572D01*
X273778571Y-122642858D01*
X273850000Y-122785715D01*
X273992857Y-122857143D01*
X274778571Y-122857143D01*
X273992857Y-122857143D02*
X273850000Y-122928572D01*
X273778571Y-123071429D01*
X273778571Y-123285715D01*
X273850000Y-123428572D01*
X273992857Y-123500001D01*
X274778571Y-123500001D01*
X273778571Y-124214286D02*
X275278571Y-124214286D01*
X273850000Y-124214286D02*
X273778571Y-124357143D01*
X273778571Y-124642858D01*
X273850000Y-124785715D01*
X273921428Y-124857143D01*
X274064285Y-124928572D01*
X274492857Y-124928572D01*
X274635714Y-124857143D01*
X274707142Y-124785715D01*
X274778571Y-124642858D01*
X274778571Y-124357143D01*
X274707142Y-124214286D01*
X274778571Y-125785715D02*
X274707142Y-125642858D01*
X274564285Y-125571429D01*
X273278571Y-125571429D01*
X274778571Y-126357143D02*
X273778571Y-126357143D01*
X273278571Y-126357143D02*
X273350000Y-126285715D01*
X273421428Y-126357143D01*
X273350000Y-126428572D01*
X273278571Y-126357143D01*
X273421428Y-126357143D01*
X274707142Y-127642858D02*
X274778571Y-127500001D01*
X274778571Y-127214286D01*
X274707142Y-127071429D01*
X274564285Y-127000001D01*
X273992857Y-127000001D01*
X273850000Y-127071429D01*
X273778571Y-127214286D01*
X273778571Y-127500001D01*
X273850000Y-127642858D01*
X273992857Y-127714286D01*
X274135714Y-127714286D01*
X274278571Y-127000001D01*
X274778571Y-129000001D02*
X273278571Y-129000001D01*
X274707142Y-129000001D02*
X274778571Y-128857143D01*
X274778571Y-128571429D01*
X274707142Y-128428572D01*
X274635714Y-128357143D01*
X274492857Y-128285715D01*
X274064285Y-128285715D01*
X273921428Y-128357143D01*
X273850000Y-128428572D01*
X273778571Y-128571429D01*
X273778571Y-128857143D01*
X273850000Y-129000001D01*
X274207142Y-130857143D02*
X274207142Y-132000001D01*
X274707142Y-133785715D02*
X274778571Y-134000001D01*
X274778571Y-134357143D01*
X274707142Y-134500001D01*
X274635714Y-134571429D01*
X274492857Y-134642858D01*
X274350000Y-134642858D01*
X274207142Y-134571429D01*
X274135714Y-134500001D01*
X274064285Y-134357143D01*
X273992857Y-134071429D01*
X273921428Y-133928572D01*
X273850000Y-133857143D01*
X273707142Y-133785715D01*
X273564285Y-133785715D01*
X273421428Y-133857143D01*
X273350000Y-133928572D01*
X273278571Y-134071429D01*
X273278571Y-134428572D01*
X273350000Y-134642858D01*
X273778571Y-135928572D02*
X274778571Y-135928572D01*
X273778571Y-135285715D02*
X274564285Y-135285715D01*
X274707142Y-135357143D01*
X274778571Y-135500001D01*
X274778571Y-135714286D01*
X274707142Y-135857143D01*
X274635714Y-135928572D01*
X274778571Y-136642858D02*
X273278571Y-136642858D01*
X273850000Y-136642858D02*
X273778571Y-136785715D01*
X273778571Y-137071429D01*
X273850000Y-137214286D01*
X273921428Y-137285715D01*
X274064285Y-137357143D01*
X274492857Y-137357143D01*
X274635714Y-137285715D01*
X274707142Y-137214286D01*
X274778571Y-137071429D01*
X274778571Y-136785715D01*
X274707142Y-136642858D01*
X273778571Y-138000001D02*
X275064285Y-138000001D01*
X275207142Y-137928572D01*
X275278571Y-137785715D01*
X275278571Y-137714286D01*
X273278571Y-138000001D02*
X273350000Y-137928572D01*
X273421428Y-138000001D01*
X273350000Y-138071429D01*
X273278571Y-138000001D01*
X273421428Y-138000001D01*
X274707142Y-139285715D02*
X274778571Y-139142858D01*
X274778571Y-138857143D01*
X274707142Y-138714286D01*
X274564285Y-138642858D01*
X273992857Y-138642858D01*
X273850000Y-138714286D01*
X273778571Y-138857143D01*
X273778571Y-139142858D01*
X273850000Y-139285715D01*
X273992857Y-139357143D01*
X274135714Y-139357143D01*
X274278571Y-138642858D01*
X274707142Y-140642858D02*
X274778571Y-140500001D01*
X274778571Y-140214286D01*
X274707142Y-140071429D01*
X274635714Y-140000001D01*
X274492857Y-139928572D01*
X274064285Y-139928572D01*
X273921428Y-140000001D01*
X273850000Y-140071429D01*
X273778571Y-140214286D01*
X273778571Y-140500001D01*
X273850000Y-140642858D01*
X273778571Y-141071429D02*
X273778571Y-141642858D01*
X273278571Y-141285715D02*
X274564285Y-141285715D01*
X274707142Y-141357143D01*
X274778571Y-141500001D01*
X274778571Y-141642858D01*
X273778571Y-143071429D02*
X273778571Y-143642858D01*
X273278571Y-143285715D02*
X274564285Y-143285715D01*
X274707142Y-143357143D01*
X274778571Y-143500001D01*
X274778571Y-143642858D01*
X274778571Y-144357143D02*
X274707142Y-144214286D01*
X274635714Y-144142858D01*
X274492857Y-144071429D01*
X274064285Y-144071429D01*
X273921428Y-144142858D01*
X273850000Y-144214286D01*
X273778571Y-144357143D01*
X273778571Y-144571429D01*
X273850000Y-144714286D01*
X273921428Y-144785715D01*
X274064285Y-144857143D01*
X274492857Y-144857143D01*
X274635714Y-144785715D01*
X274707142Y-144714286D01*
X274778571Y-144571429D01*
X274778571Y-144357143D01*
X274707142Y-147285715D02*
X274778571Y-147142858D01*
X274778571Y-146857143D01*
X274707142Y-146714286D01*
X274635714Y-146642858D01*
X274492857Y-146571429D01*
X274064285Y-146571429D01*
X273921428Y-146642858D01*
X273850000Y-146714286D01*
X273778571Y-146857143D01*
X273778571Y-147142858D01*
X273850000Y-147285715D01*
X274778571Y-147928572D02*
X273278571Y-147928572D01*
X274778571Y-148571429D02*
X273992857Y-148571429D01*
X273850000Y-148500001D01*
X273778571Y-148357143D01*
X273778571Y-148142858D01*
X273850000Y-148000001D01*
X273921428Y-147928572D01*
X274778571Y-149928572D02*
X273992857Y-149928572D01*
X273850000Y-149857143D01*
X273778571Y-149714286D01*
X273778571Y-149428572D01*
X273850000Y-149285715D01*
X274707142Y-149928572D02*
X274778571Y-149785715D01*
X274778571Y-149428572D01*
X274707142Y-149285715D01*
X274564285Y-149214286D01*
X274421428Y-149214286D01*
X274278571Y-149285715D01*
X274207142Y-149428572D01*
X274207142Y-149785715D01*
X274135714Y-149928572D01*
X273778571Y-150642858D02*
X274778571Y-150642858D01*
X273921428Y-150642858D02*
X273850000Y-150714286D01*
X273778571Y-150857143D01*
X273778571Y-151071429D01*
X273850000Y-151214286D01*
X273992857Y-151285715D01*
X274778571Y-151285715D01*
X273778571Y-152642858D02*
X274992857Y-152642858D01*
X275135714Y-152571429D01*
X275207142Y-152500001D01*
X275278571Y-152357143D01*
X275278571Y-152142858D01*
X275207142Y-152000001D01*
X274707142Y-152642858D02*
X274778571Y-152500001D01*
X274778571Y-152214286D01*
X274707142Y-152071429D01*
X274635714Y-152000001D01*
X274492857Y-151928572D01*
X274064285Y-151928572D01*
X273921428Y-152000001D01*
X273850000Y-152071429D01*
X273778571Y-152214286D01*
X273778571Y-152500001D01*
X273850000Y-152642858D01*
X274707142Y-153928572D02*
X274778571Y-153785715D01*
X274778571Y-153500001D01*
X274707142Y-153357143D01*
X274564285Y-153285715D01*
X273992857Y-153285715D01*
X273850000Y-153357143D01*
X273778571Y-153500001D01*
X273778571Y-153785715D01*
X273850000Y-153928572D01*
X273992857Y-154000001D01*
X274135714Y-154000001D01*
X274278571Y-153285715D01*
X273778571Y-155642858D02*
X274778571Y-155928572D01*
X274064285Y-156214286D01*
X274778571Y-156500001D01*
X273778571Y-156785715D01*
X274778571Y-157357143D02*
X273778571Y-157357143D01*
X273278571Y-157357143D02*
X273350000Y-157285715D01*
X273421428Y-157357143D01*
X273350000Y-157428572D01*
X273278571Y-157357143D01*
X273421428Y-157357143D01*
X273778571Y-157857143D02*
X273778571Y-158428572D01*
X273278571Y-158071429D02*
X274564285Y-158071429D01*
X274707142Y-158142858D01*
X274778571Y-158285715D01*
X274778571Y-158428572D01*
X274778571Y-158928572D02*
X273278571Y-158928572D01*
X274778571Y-159571429D02*
X273992857Y-159571429D01*
X273850000Y-159500001D01*
X273778571Y-159357143D01*
X273778571Y-159142858D01*
X273850000Y-159000001D01*
X273921428Y-158928572D01*
X274778571Y-160500001D02*
X274707142Y-160357143D01*
X274635714Y-160285715D01*
X274492857Y-160214286D01*
X274064285Y-160214286D01*
X273921428Y-160285715D01*
X273850000Y-160357143D01*
X273778571Y-160500001D01*
X273778571Y-160714286D01*
X273850000Y-160857143D01*
X273921428Y-160928572D01*
X274064285Y-161000001D01*
X274492857Y-161000001D01*
X274635714Y-160928572D01*
X274707142Y-160857143D01*
X274778571Y-160714286D01*
X274778571Y-160500001D01*
X273778571Y-162285715D02*
X274778571Y-162285715D01*
X273778571Y-161642858D02*
X274564285Y-161642858D01*
X274707142Y-161714286D01*
X274778571Y-161857143D01*
X274778571Y-162071429D01*
X274707142Y-162214286D01*
X274635714Y-162285715D01*
X273778571Y-162785715D02*
X273778571Y-163357143D01*
X273278571Y-163000001D02*
X274564285Y-163000001D01*
X274707142Y-163071429D01*
X274778571Y-163214286D01*
X274778571Y-163357143D01*
X273778571Y-165000001D02*
X274778571Y-165000001D01*
X273921428Y-165000001D02*
X273850000Y-165071429D01*
X273778571Y-165214286D01*
X273778571Y-165428572D01*
X273850000Y-165571429D01*
X273992857Y-165642858D01*
X274778571Y-165642858D01*
X274778571Y-166571429D02*
X274707142Y-166428572D01*
X274635714Y-166357143D01*
X274492857Y-166285715D01*
X274064285Y-166285715D01*
X273921428Y-166357143D01*
X273850000Y-166428572D01*
X273778571Y-166571429D01*
X273778571Y-166785715D01*
X273850000Y-166928572D01*
X273921428Y-167000001D01*
X274064285Y-167071429D01*
X274492857Y-167071429D01*
X274635714Y-167000001D01*
X274707142Y-166928572D01*
X274778571Y-166785715D01*
X274778571Y-166571429D01*
X273778571Y-167500001D02*
X273778571Y-168071429D01*
X273278571Y-167714286D02*
X274564285Y-167714286D01*
X274707142Y-167785715D01*
X274778571Y-167928572D01*
X274778571Y-168071429D01*
X274778571Y-168571429D02*
X273778571Y-168571429D01*
X273278571Y-168571429D02*
X273350000Y-168500001D01*
X273421428Y-168571429D01*
X273350000Y-168642858D01*
X273278571Y-168571429D01*
X273421428Y-168571429D01*
X274707142Y-169928572D02*
X274778571Y-169785715D01*
X274778571Y-169500001D01*
X274707142Y-169357143D01*
X274635714Y-169285715D01*
X274492857Y-169214286D01*
X274064285Y-169214286D01*
X273921428Y-169285715D01*
X273850000Y-169357143D01*
X273778571Y-169500001D01*
X273778571Y-169785715D01*
X273850000Y-169928572D01*
X274707142Y-171142858D02*
X274778571Y-171000001D01*
X274778571Y-170714286D01*
X274707142Y-170571429D01*
X274564285Y-170500001D01*
X273992857Y-170500001D01*
X273850000Y-170571429D01*
X273778571Y-170714286D01*
X273778571Y-171000001D01*
X273850000Y-171142858D01*
X273992857Y-171214286D01*
X274135714Y-171214286D01*
X274278571Y-170500001D01*
X274207142Y-173000001D02*
X274207142Y-174142858D01*
X274635714Y-176857143D02*
X274707142Y-176785715D01*
X274778571Y-176571429D01*
X274778571Y-176428572D01*
X274707142Y-176214286D01*
X274564285Y-176071429D01*
X274421428Y-176000001D01*
X274135714Y-175928572D01*
X273921428Y-175928572D01*
X273635714Y-176000001D01*
X273492857Y-176071429D01*
X273350000Y-176214286D01*
X273278571Y-176428572D01*
X273278571Y-176571429D01*
X273350000Y-176785715D01*
X273421428Y-176857143D01*
X274778571Y-177500001D02*
X273278571Y-177500001D01*
X274778571Y-178142858D02*
X273992857Y-178142858D01*
X273850000Y-178071429D01*
X273778571Y-177928572D01*
X273778571Y-177714286D01*
X273850000Y-177571429D01*
X273921428Y-177500001D01*
X274707142Y-179428572D02*
X274778571Y-179285715D01*
X274778571Y-179000001D01*
X274707142Y-178857143D01*
X274564285Y-178785715D01*
X273992857Y-178785715D01*
X273850000Y-178857143D01*
X273778571Y-179000001D01*
X273778571Y-179285715D01*
X273850000Y-179428572D01*
X273992857Y-179500001D01*
X274135714Y-179500001D01*
X274278571Y-178785715D01*
X274707142Y-180785715D02*
X274778571Y-180642858D01*
X274778571Y-180357143D01*
X274707142Y-180214286D01*
X274635714Y-180142858D01*
X274492857Y-180071429D01*
X274064285Y-180071429D01*
X273921428Y-180142858D01*
X273850000Y-180214286D01*
X273778571Y-180357143D01*
X273778571Y-180642858D01*
X273850000Y-180785715D01*
X274778571Y-181428572D02*
X273278571Y-181428572D01*
X274207142Y-181571429D02*
X274778571Y-182000001D01*
X273778571Y-182000001D02*
X274350000Y-181428572D01*
X274778571Y-184000001D02*
X274707142Y-183857143D01*
X274564285Y-183785715D01*
X273278571Y-183785715D01*
X274778571Y-184785715D02*
X274707142Y-184642858D01*
X274635714Y-184571429D01*
X274492857Y-184500001D01*
X274064285Y-184500001D01*
X273921428Y-184571429D01*
X273850000Y-184642858D01*
X273778571Y-184785715D01*
X273778571Y-185000001D01*
X273850000Y-185142858D01*
X273921428Y-185214286D01*
X274064285Y-185285715D01*
X274492857Y-185285715D01*
X274635714Y-185214286D01*
X274707142Y-185142858D01*
X274778571Y-185000001D01*
X274778571Y-184785715D01*
X274707142Y-186571429D02*
X274778571Y-186428572D01*
X274778571Y-186142858D01*
X274707142Y-186000001D01*
X274635714Y-185928572D01*
X274492857Y-185857143D01*
X274064285Y-185857143D01*
X273921428Y-185928572D01*
X273850000Y-186000001D01*
X273778571Y-186142858D01*
X273778571Y-186428572D01*
X273850000Y-186571429D01*
X274778571Y-187857143D02*
X273992857Y-187857143D01*
X273850000Y-187785715D01*
X273778571Y-187642858D01*
X273778571Y-187357143D01*
X273850000Y-187214286D01*
X274707142Y-187857143D02*
X274778571Y-187714286D01*
X274778571Y-187357143D01*
X274707142Y-187214286D01*
X274564285Y-187142858D01*
X274421428Y-187142858D01*
X274278571Y-187214286D01*
X274207142Y-187357143D01*
X274207142Y-187714286D01*
X274135714Y-187857143D01*
X274778571Y-188785715D02*
X274707142Y-188642858D01*
X274564285Y-188571429D01*
X273278571Y-188571429D01*
X274778571Y-190500001D02*
X273778571Y-190500001D01*
X274064285Y-190500001D02*
X273921428Y-190571429D01*
X273850000Y-190642858D01*
X273778571Y-190785715D01*
X273778571Y-190928572D01*
X274707142Y-192000001D02*
X274778571Y-191857143D01*
X274778571Y-191571429D01*
X274707142Y-191428572D01*
X274564285Y-191357143D01*
X273992857Y-191357143D01*
X273850000Y-191428572D01*
X273778571Y-191571429D01*
X273778571Y-191857143D01*
X273850000Y-192000001D01*
X273992857Y-192071429D01*
X274135714Y-192071429D01*
X274278571Y-191357143D01*
X273778571Y-193357143D02*
X274992857Y-193357143D01*
X275135714Y-193285715D01*
X275207142Y-193214286D01*
X275278571Y-193071429D01*
X275278571Y-192857143D01*
X275207142Y-192714286D01*
X274707142Y-193357143D02*
X274778571Y-193214286D01*
X274778571Y-192928572D01*
X274707142Y-192785715D01*
X274635714Y-192714286D01*
X274492857Y-192642858D01*
X274064285Y-192642858D01*
X273921428Y-192714286D01*
X273850000Y-192785715D01*
X273778571Y-192928572D01*
X273778571Y-193214286D01*
X273850000Y-193357143D01*
X273778571Y-194714286D02*
X274778571Y-194714286D01*
X273778571Y-194071429D02*
X274564285Y-194071429D01*
X274707142Y-194142858D01*
X274778571Y-194285715D01*
X274778571Y-194500001D01*
X274707142Y-194642858D01*
X274635714Y-194714286D01*
X274778571Y-195642858D02*
X274707142Y-195500001D01*
X274564285Y-195428572D01*
X273278571Y-195428572D01*
X274778571Y-196857143D02*
X273992857Y-196857143D01*
X273850000Y-196785715D01*
X273778571Y-196642858D01*
X273778571Y-196357143D01*
X273850000Y-196214286D01*
X274707142Y-196857143D02*
X274778571Y-196714286D01*
X274778571Y-196357143D01*
X274707142Y-196214286D01*
X274564285Y-196142858D01*
X274421428Y-196142858D01*
X274278571Y-196214286D01*
X274207142Y-196357143D01*
X274207142Y-196714286D01*
X274135714Y-196857143D01*
X273778571Y-197357143D02*
X273778571Y-197928572D01*
X273278571Y-197571429D02*
X274564285Y-197571429D01*
X274707142Y-197642858D01*
X274778571Y-197785715D01*
X274778571Y-197928572D01*
X274778571Y-198428572D02*
X273778571Y-198428572D01*
X273278571Y-198428572D02*
X273350000Y-198357143D01*
X273421428Y-198428572D01*
X273350000Y-198500001D01*
X273278571Y-198428572D01*
X273421428Y-198428572D01*
X274778571Y-199357143D02*
X274707142Y-199214286D01*
X274635714Y-199142858D01*
X274492857Y-199071429D01*
X274064285Y-199071429D01*
X273921428Y-199142858D01*
X273850000Y-199214286D01*
X273778571Y-199357143D01*
X273778571Y-199571429D01*
X273850000Y-199714286D01*
X273921428Y-199785715D01*
X274064285Y-199857143D01*
X274492857Y-199857143D01*
X274635714Y-199785715D01*
X274707142Y-199714286D01*
X274778571Y-199571429D01*
X274778571Y-199357143D01*
X273778571Y-200500001D02*
X274778571Y-200500001D01*
X273921428Y-200500001D02*
X273850000Y-200571429D01*
X273778571Y-200714286D01*
X273778571Y-200928572D01*
X273850000Y-201071429D01*
X273992857Y-201142858D01*
X274778571Y-201142858D01*
X274707142Y-201785715D02*
X274778571Y-201928572D01*
X274778571Y-202214286D01*
X274707142Y-202357143D01*
X274564285Y-202428572D01*
X274492857Y-202428572D01*
X274350000Y-202357143D01*
X274278571Y-202214286D01*
X274278571Y-202000001D01*
X274207142Y-201857143D01*
X274064285Y-201785715D01*
X273992857Y-201785715D01*
X273850000Y-201857143D01*
X273778571Y-202000001D01*
X273778571Y-202214286D01*
X273850000Y-202357143D01*
X274778571Y-204214286D02*
X273778571Y-204214286D01*
X274064285Y-204214286D02*
X273921428Y-204285715D01*
X273850000Y-204357143D01*
X273778571Y-204500001D01*
X273778571Y-204642858D01*
X274707142Y-205714286D02*
X274778571Y-205571429D01*
X274778571Y-205285715D01*
X274707142Y-205142858D01*
X274564285Y-205071429D01*
X273992857Y-205071429D01*
X273850000Y-205142858D01*
X273778571Y-205285715D01*
X273778571Y-205571429D01*
X273850000Y-205714286D01*
X273992857Y-205785715D01*
X274135714Y-205785715D01*
X274278571Y-205071429D01*
X273778571Y-207071429D02*
X274992857Y-207071429D01*
X275135714Y-207000001D01*
X275207142Y-206928572D01*
X275278571Y-206785715D01*
X275278571Y-206571429D01*
X275207142Y-206428572D01*
X274707142Y-207071429D02*
X274778571Y-206928572D01*
X274778571Y-206642858D01*
X274707142Y-206500001D01*
X274635714Y-206428572D01*
X274492857Y-206357143D01*
X274064285Y-206357143D01*
X273921428Y-206428572D01*
X273850000Y-206500001D01*
X273778571Y-206642858D01*
X273778571Y-206928572D01*
X273850000Y-207071429D01*
X274778571Y-208428572D02*
X273992857Y-208428572D01*
X273850000Y-208357143D01*
X273778571Y-208214286D01*
X273778571Y-207928572D01*
X273850000Y-207785715D01*
X274707142Y-208428572D02*
X274778571Y-208285715D01*
X274778571Y-207928572D01*
X274707142Y-207785715D01*
X274564285Y-207714286D01*
X274421428Y-207714286D01*
X274278571Y-207785715D01*
X274207142Y-207928572D01*
X274207142Y-208285715D01*
X274135714Y-208428572D01*
X274778571Y-209142858D02*
X273778571Y-209142858D01*
X274064285Y-209142858D02*
X273921428Y-209214286D01*
X273850000Y-209285715D01*
X273778571Y-209428572D01*
X273778571Y-209571429D01*
X274778571Y-210714286D02*
X273278571Y-210714286D01*
X274707142Y-210714286D02*
X274778571Y-210571429D01*
X274778571Y-210285715D01*
X274707142Y-210142858D01*
X274635714Y-210071429D01*
X274492857Y-210000001D01*
X274064285Y-210000001D01*
X273921428Y-210071429D01*
X273850000Y-210142858D01*
X273778571Y-210285715D01*
X273778571Y-210571429D01*
X273850000Y-210714286D01*
X274778571Y-211428572D02*
X273778571Y-211428572D01*
X273278571Y-211428572D02*
X273350000Y-211357143D01*
X273421428Y-211428572D01*
X273350000Y-211500001D01*
X273278571Y-211428572D01*
X273421428Y-211428572D01*
X273778571Y-212142858D02*
X274778571Y-212142858D01*
X273921428Y-212142858D02*
X273850000Y-212214286D01*
X273778571Y-212357143D01*
X273778571Y-212571429D01*
X273850000Y-212714286D01*
X273992857Y-212785715D01*
X274778571Y-212785715D01*
X273778571Y-214142858D02*
X274992857Y-214142858D01*
X275135714Y-214071429D01*
X275207142Y-214000001D01*
X275278571Y-213857143D01*
X275278571Y-213642858D01*
X275207142Y-213500001D01*
X274707142Y-214142858D02*
X274778571Y-214000001D01*
X274778571Y-213714286D01*
X274707142Y-213571429D01*
X274635714Y-213500001D01*
X274492857Y-213428572D01*
X274064285Y-213428572D01*
X273921428Y-213500001D01*
X273850000Y-213571429D01*
X273778571Y-213714286D01*
X273778571Y-214000001D01*
X273850000Y-214142858D01*
X273992857Y-216000001D02*
X273992857Y-216500001D01*
X274778571Y-216714286D02*
X274778571Y-216000001D01*
X273278571Y-216000001D01*
X273278571Y-216714286D01*
X274778571Y-217357143D02*
X273278571Y-217357143D01*
X274350000Y-217857143D01*
X273278571Y-218357143D01*
X274778571Y-218357143D01*
X274778571Y-219071429D02*
X273278571Y-219071429D01*
X273778571Y-220714286D02*
X273778571Y-221285715D01*
X273278571Y-220928572D02*
X274564285Y-220928572D01*
X274707142Y-221000001D01*
X274778571Y-221142858D01*
X274778571Y-221285715D01*
X274778571Y-221785715D02*
X273778571Y-221785715D01*
X274064285Y-221785715D02*
X273921428Y-221857143D01*
X273850000Y-221928572D01*
X273778571Y-222071429D01*
X273778571Y-222214286D01*
X274778571Y-223357143D02*
X273992857Y-223357143D01*
X273850000Y-223285715D01*
X273778571Y-223142858D01*
X273778571Y-222857143D01*
X273850000Y-222714286D01*
X274707142Y-223357143D02*
X274778571Y-223214286D01*
X274778571Y-222857143D01*
X274707142Y-222714286D01*
X274564285Y-222642858D01*
X274421428Y-222642858D01*
X274278571Y-222714286D01*
X274207142Y-222857143D01*
X274207142Y-223214286D01*
X274135714Y-223357143D01*
X273778571Y-224071429D02*
X274778571Y-224071429D01*
X273921428Y-224071429D02*
X273850000Y-224142858D01*
X273778571Y-224285715D01*
X273778571Y-224500001D01*
X273850000Y-224642858D01*
X273992857Y-224714286D01*
X274778571Y-224714286D01*
X274707142Y-225357143D02*
X274778571Y-225500001D01*
X274778571Y-225785715D01*
X274707142Y-225928572D01*
X274564285Y-226000001D01*
X274492857Y-226000001D01*
X274350000Y-225928572D01*
X274278571Y-225785715D01*
X274278571Y-225571429D01*
X274207142Y-225428572D01*
X274064285Y-225357143D01*
X273992857Y-225357143D01*
X273850000Y-225428572D01*
X273778571Y-225571429D01*
X273778571Y-225785715D01*
X273850000Y-225928572D01*
X274778571Y-226642858D02*
X273778571Y-226642858D01*
X273921428Y-226642858D02*
X273850000Y-226714286D01*
X273778571Y-226857143D01*
X273778571Y-227071429D01*
X273850000Y-227214286D01*
X273992857Y-227285715D01*
X274778571Y-227285715D01*
X273992857Y-227285715D02*
X273850000Y-227357143D01*
X273778571Y-227500001D01*
X273778571Y-227714286D01*
X273850000Y-227857143D01*
X273992857Y-227928572D01*
X274778571Y-227928572D01*
X274778571Y-228642858D02*
X273778571Y-228642858D01*
X273278571Y-228642858D02*
X273350000Y-228571429D01*
X273421428Y-228642858D01*
X273350000Y-228714286D01*
X273278571Y-228642858D01*
X273421428Y-228642858D01*
X274707142Y-229285715D02*
X274778571Y-229428572D01*
X274778571Y-229714286D01*
X274707142Y-229857143D01*
X274564285Y-229928572D01*
X274492857Y-229928572D01*
X274350000Y-229857143D01*
X274278571Y-229714286D01*
X274278571Y-229500001D01*
X274207142Y-229357143D01*
X274064285Y-229285715D01*
X273992857Y-229285715D01*
X273850000Y-229357143D01*
X273778571Y-229500001D01*
X273778571Y-229714286D01*
X273850000Y-229857143D01*
X274707142Y-230500001D02*
X274778571Y-230642858D01*
X274778571Y-230928572D01*
X274707142Y-231071429D01*
X274564285Y-231142858D01*
X274492857Y-231142858D01*
X274350000Y-231071429D01*
X274278571Y-230928572D01*
X274278571Y-230714286D01*
X274207142Y-230571429D01*
X274064285Y-230500001D01*
X273992857Y-230500001D01*
X273850000Y-230571429D01*
X273778571Y-230714286D01*
X273778571Y-230928572D01*
X273850000Y-231071429D01*
X274778571Y-231785715D02*
X273778571Y-231785715D01*
X273278571Y-231785715D02*
X273350000Y-231714286D01*
X273421428Y-231785715D01*
X273350000Y-231857143D01*
X273278571Y-231785715D01*
X273421428Y-231785715D01*
X274778571Y-232714286D02*
X274707142Y-232571429D01*
X274635714Y-232500001D01*
X274492857Y-232428572D01*
X274064285Y-232428572D01*
X273921428Y-232500001D01*
X273850000Y-232571429D01*
X273778571Y-232714286D01*
X273778571Y-232928572D01*
X273850000Y-233071429D01*
X273921428Y-233142858D01*
X274064285Y-233214286D01*
X274492857Y-233214286D01*
X274635714Y-233142858D01*
X274707142Y-233071429D01*
X274778571Y-232928572D01*
X274778571Y-232714286D01*
X273778571Y-233857143D02*
X274778571Y-233857143D01*
X273921428Y-233857143D02*
X273850000Y-233928572D01*
X273778571Y-234071429D01*
X273778571Y-234285715D01*
X273850000Y-234428572D01*
X273992857Y-234500001D01*
X274778571Y-234500001D01*
X274778571Y-237000001D02*
X273992857Y-237000001D01*
X273850000Y-236928572D01*
X273778571Y-236785715D01*
X273778571Y-236500001D01*
X273850000Y-236357143D01*
X274707142Y-237000001D02*
X274778571Y-236857143D01*
X274778571Y-236500001D01*
X274707142Y-236357143D01*
X274564285Y-236285715D01*
X274421428Y-236285715D01*
X274278571Y-236357143D01*
X274207142Y-236500001D01*
X274207142Y-236857143D01*
X274135714Y-237000001D01*
X273778571Y-237714286D02*
X274778571Y-237714286D01*
X273921428Y-237714286D02*
X273850000Y-237785715D01*
X273778571Y-237928572D01*
X273778571Y-238142858D01*
X273850000Y-238285715D01*
X273992857Y-238357143D01*
X274778571Y-238357143D01*
X274778571Y-239714286D02*
X273278571Y-239714286D01*
X274707142Y-239714286D02*
X274778571Y-239571429D01*
X274778571Y-239285715D01*
X274707142Y-239142858D01*
X274635714Y-239071429D01*
X274492857Y-239000001D01*
X274064285Y-239000001D01*
X273921428Y-239071429D01*
X273850000Y-239142858D01*
X273778571Y-239285715D01*
X273778571Y-239571429D01*
X273850000Y-239714286D01*
X274778571Y-242214286D02*
X273992857Y-242214286D01*
X273850000Y-242142858D01*
X273778571Y-242000001D01*
X273778571Y-241714286D01*
X273850000Y-241571429D01*
X274707142Y-242214286D02*
X274778571Y-242071429D01*
X274778571Y-241714286D01*
X274707142Y-241571429D01*
X274564285Y-241500001D01*
X274421428Y-241500001D01*
X274278571Y-241571429D01*
X274207142Y-241714286D01*
X274207142Y-242071429D01*
X274135714Y-242214286D01*
X274707142Y-243571429D02*
X274778571Y-243428572D01*
X274778571Y-243142858D01*
X274707142Y-243000001D01*
X274635714Y-242928572D01*
X274492857Y-242857143D01*
X274064285Y-242857143D01*
X273921428Y-242928572D01*
X273850000Y-243000001D01*
X273778571Y-243142858D01*
X273778571Y-243428572D01*
X273850000Y-243571429D01*
X274707142Y-244857143D02*
X274778571Y-244714286D01*
X274778571Y-244428572D01*
X274707142Y-244285715D01*
X274635714Y-244214286D01*
X274492857Y-244142858D01*
X274064285Y-244142858D01*
X273921428Y-244214286D01*
X273850000Y-244285715D01*
X273778571Y-244428572D01*
X273778571Y-244714286D01*
X273850000Y-244857143D01*
X274707142Y-246071429D02*
X274778571Y-245928572D01*
X274778571Y-245642858D01*
X274707142Y-245500001D01*
X274564285Y-245428572D01*
X273992857Y-245428572D01*
X273850000Y-245500001D01*
X273778571Y-245642858D01*
X273778571Y-245928572D01*
X273850000Y-246071429D01*
X273992857Y-246142858D01*
X274135714Y-246142858D01*
X274278571Y-245428572D01*
X273778571Y-246785715D02*
X275278571Y-246785715D01*
X273850000Y-246785715D02*
X273778571Y-246928572D01*
X273778571Y-247214286D01*
X273850000Y-247357143D01*
X273921428Y-247428572D01*
X274064285Y-247500001D01*
X274492857Y-247500001D01*
X274635714Y-247428572D01*
X274707142Y-247357143D01*
X274778571Y-247214286D01*
X274778571Y-246928572D01*
X274707142Y-246785715D01*
X273778571Y-247928572D02*
X273778571Y-248500001D01*
X273278571Y-248142858D02*
X274564285Y-248142858D01*
X274707142Y-248214286D01*
X274778571Y-248357143D01*
X274778571Y-248500001D01*
X274778571Y-249642858D02*
X273992857Y-249642858D01*
X273850000Y-249571429D01*
X273778571Y-249428572D01*
X273778571Y-249142858D01*
X273850000Y-249000001D01*
X274707142Y-249642858D02*
X274778571Y-249500001D01*
X274778571Y-249142858D01*
X274707142Y-249000001D01*
X274564285Y-248928572D01*
X274421428Y-248928572D01*
X274278571Y-249000001D01*
X274207142Y-249142858D01*
X274207142Y-249500001D01*
X274135714Y-249642858D01*
X273778571Y-250357143D02*
X274778571Y-250357143D01*
X273921428Y-250357143D02*
X273850000Y-250428572D01*
X273778571Y-250571429D01*
X273778571Y-250785715D01*
X273850000Y-250928572D01*
X273992857Y-251000001D01*
X274778571Y-251000001D01*
X274707142Y-252357143D02*
X274778571Y-252214286D01*
X274778571Y-251928572D01*
X274707142Y-251785715D01*
X274635714Y-251714286D01*
X274492857Y-251642858D01*
X274064285Y-251642858D01*
X273921428Y-251714286D01*
X273850000Y-251785715D01*
X273778571Y-251928572D01*
X273778571Y-252214286D01*
X273850000Y-252357143D01*
X274707142Y-253571429D02*
X274778571Y-253428572D01*
X274778571Y-253142858D01*
X274707142Y-253000001D01*
X274564285Y-252928572D01*
X273992857Y-252928572D01*
X273850000Y-253000001D01*
X273778571Y-253142858D01*
X273778571Y-253428572D01*
X273850000Y-253571429D01*
X273992857Y-253642858D01*
X274135714Y-253642858D01*
X274278571Y-252928572D01*
D11*
X74335148Y-37806354D02*
X74691395Y-37803635D01*
X74691395Y-37803635D02*
X75009666Y-37800420D01*
X75009666Y-37800420D02*
X75288945Y-37796730D01*
X75288945Y-37796730D02*
X75528216Y-37792586D01*
X75528216Y-37792586D02*
X75726463Y-37788009D01*
X75726463Y-37788009D02*
X75882671Y-37783020D01*
X75882671Y-37783020D02*
X75995824Y-37777640D01*
X75995824Y-37777640D02*
X76064907Y-37771889D01*
X76064907Y-37771889D02*
X76075728Y-37770301D01*
X76075728Y-37770301D02*
X76286230Y-37729176D01*
X76286230Y-37729176D02*
X76460393Y-37683464D01*
X76460393Y-37683464D02*
X76607233Y-37629037D01*
X76607233Y-37629037D02*
X76735765Y-37561768D01*
X76735765Y-37561768D02*
X76855004Y-37477532D01*
X76855004Y-37477532D02*
X76973968Y-37372200D01*
X76973968Y-37372200D02*
X76999199Y-37347567D01*
X76999199Y-37347567D02*
X77094691Y-37248895D01*
X77094691Y-37248895D02*
X77165207Y-37164017D01*
X77165207Y-37164017D02*
X77221350Y-37078593D01*
X77221350Y-37078593D02*
X77273719Y-36978283D01*
X77273719Y-36978283D02*
X77276534Y-36972398D01*
X77276534Y-36972398D02*
X77345670Y-36816656D01*
X77345670Y-36816656D02*
X77393929Y-36677781D01*
X77393929Y-36677781D02*
X77424577Y-36540752D01*
X77424577Y-36540752D02*
X77440879Y-36390544D01*
X77440879Y-36390544D02*
X77446100Y-36212135D01*
X77446100Y-36212135D02*
X77446138Y-36192061D01*
X77446138Y-36192061D02*
X77434240Y-35938107D01*
X77434240Y-35938107D02*
X77396661Y-35715972D01*
X77396661Y-35715972D02*
X77330575Y-35518296D01*
X77330575Y-35518296D02*
X77233156Y-35337721D01*
X77233156Y-35337721D02*
X77101579Y-35166887D01*
X77101579Y-35166887D02*
X77019011Y-35079748D01*
X77019011Y-35079748D02*
X76908223Y-34976842D01*
X76908223Y-34976842D02*
X76797295Y-34890938D01*
X76797295Y-34890938D02*
X76678221Y-34818059D01*
X76678221Y-34818059D02*
X76542994Y-34754230D01*
X76542994Y-34754230D02*
X76383610Y-34695472D01*
X76383610Y-34695472D02*
X76192061Y-34637810D01*
X76192061Y-34637810D02*
X76056228Y-34601534D01*
X76056228Y-34601534D02*
X75980031Y-34581882D01*
X75980031Y-34581882D02*
X76146942Y-34468819D01*
X76146942Y-34468819D02*
X76316745Y-34338397D01*
X76316745Y-34338397D02*
X76491800Y-34175964D01*
X76491800Y-34175964D02*
X76661714Y-33992086D01*
X76661714Y-33992086D02*
X76816095Y-33797324D01*
X76816095Y-33797324D02*
X76838946Y-33765454D01*
X76838946Y-33765454D02*
X76877938Y-33708251D01*
X76877938Y-33708251D02*
X76934562Y-33622455D01*
X76934562Y-33622455D02*
X77005823Y-33512811D01*
X77005823Y-33512811D02*
X77088727Y-33384064D01*
X77088727Y-33384064D02*
X77180278Y-33240959D01*
X77180278Y-33240959D02*
X77277484Y-33088244D01*
X77277484Y-33088244D02*
X77377348Y-32930662D01*
X77377348Y-32930662D02*
X77476877Y-32772960D01*
X77476877Y-32772960D02*
X77573075Y-32619883D01*
X77573075Y-32619883D02*
X77662949Y-32476176D01*
X77662949Y-32476176D02*
X77743503Y-32346586D01*
X77743503Y-32346586D02*
X77811743Y-32235858D01*
X77811743Y-32235858D02*
X77864675Y-32148737D01*
X77864675Y-32148737D02*
X77899303Y-32089969D01*
X77899303Y-32089969D02*
X77912634Y-32064299D01*
X77912634Y-32064299D02*
X77912692Y-32063869D01*
X77912692Y-32063869D02*
X77890925Y-32061236D01*
X77890925Y-32061236D02*
X77829270Y-32058840D01*
X77829270Y-32058840D02*
X77733195Y-32056765D01*
X77733195Y-32056765D02*
X77608169Y-32055092D01*
X77608169Y-32055092D02*
X77459660Y-32053906D01*
X77459660Y-32053906D02*
X77293138Y-32053290D01*
X77293138Y-32053290D02*
X77213612Y-32053221D01*
X77213612Y-32053221D02*
X76514532Y-32053221D01*
X76514532Y-32053221D02*
X75935217Y-32920677D01*
X75935217Y-32920677D02*
X75810315Y-33106977D01*
X75810315Y-33106977D02*
X75687484Y-33288826D01*
X75687484Y-33288826D02*
X75570172Y-33461214D01*
X75570172Y-33461214D02*
X75461828Y-33619128D01*
X75461828Y-33619128D02*
X75365899Y-33757560D01*
X75365899Y-33757560D02*
X75285835Y-33871498D01*
X75285835Y-33871498D02*
X75225082Y-33955931D01*
X75225082Y-33955931D02*
X75197241Y-33993058D01*
X75197241Y-33993058D02*
X75077072Y-34136345D01*
X75077072Y-34136345D02*
X74960194Y-34246884D01*
X74960194Y-34246884D02*
X74838230Y-34328515D01*
X74838230Y-34328515D02*
X74702804Y-34385083D01*
X74702804Y-34385083D02*
X74545539Y-34420431D01*
X74545539Y-34420431D02*
X74358058Y-34438400D01*
X74358058Y-34438400D02*
X74217404Y-34442567D01*
X74217404Y-34442567D02*
X73932603Y-34445811D01*
X73932603Y-34445811D02*
X73920863Y-32053221D01*
X73920863Y-32053221D02*
X72741978Y-32053221D01*
X72741978Y-32053221D02*
X72741978Y-36815721D01*
X72741978Y-36815721D02*
X73921264Y-36815721D01*
X73921264Y-36815721D02*
X73921264Y-35386971D01*
X73921264Y-35386971D02*
X74629969Y-35387158D01*
X74629969Y-35387158D02*
X74815982Y-35387947D01*
X74815982Y-35387947D02*
X74997118Y-35390091D01*
X74997118Y-35390091D02*
X75165726Y-35393394D01*
X75165726Y-35393394D02*
X75314153Y-35397664D01*
X75314153Y-35397664D02*
X75434748Y-35402709D01*
X75434748Y-35402709D02*
X75519861Y-35408334D01*
X75519861Y-35408334D02*
X75536827Y-35410048D01*
X75536827Y-35410048D02*
X75715420Y-35438384D01*
X75715420Y-35438384D02*
X75857214Y-35479699D01*
X75857214Y-35479699D02*
X75969660Y-35537023D01*
X75969660Y-35537023D02*
X76060212Y-35613383D01*
X76060212Y-35613383D02*
X76073769Y-35628253D01*
X76073769Y-35628253D02*
X76166638Y-35765764D01*
X76166638Y-35765764D02*
X76221987Y-35925768D01*
X76221987Y-35925768D02*
X76240720Y-36110948D01*
X76240720Y-36110948D02*
X76240691Y-36124025D01*
X76240691Y-36124025D02*
X76221350Y-36309332D01*
X76221350Y-36309332D02*
X76166459Y-36466480D01*
X76166459Y-36466480D02*
X76075911Y-36595615D01*
X76075911Y-36595615D02*
X75949601Y-36696882D01*
X75949601Y-36696882D02*
X75787419Y-36770426D01*
X75787419Y-36770426D02*
X75757591Y-36779792D01*
X75757591Y-36779792D02*
X75718990Y-36789341D01*
X75718990Y-36789341D02*
X75670784Y-36797095D01*
X75670784Y-36797095D02*
X75608253Y-36803228D01*
X75608253Y-36803228D02*
X75526677Y-36807913D01*
X75526677Y-36807913D02*
X75421335Y-36811323D01*
X75421335Y-36811323D02*
X75287508Y-36813632D01*
X75287508Y-36813632D02*
X75120476Y-36815012D01*
X75120476Y-36815012D02*
X74915518Y-36815637D01*
X74915518Y-36815637D02*
X74778933Y-36815721D01*
X74778933Y-36815721D02*
X73921264Y-36815721D01*
X73921264Y-36815721D02*
X72741978Y-36815721D01*
X72741978Y-36815721D02*
X72741978Y-37816824D01*
X72741978Y-37816824D02*
X74335148Y-37806354D01*
X74335148Y-37806354D02*
X74335148Y-37806354D01*
G36*
X73920863Y-32053221D02*
G01*
X73932603Y-34445811D01*
X74217404Y-34442567D01*
X74358058Y-34438400D01*
X74545539Y-34420431D01*
X74702804Y-34385083D01*
X74838230Y-34328515D01*
X74960194Y-34246884D01*
X75077072Y-34136345D01*
X75197241Y-33993058D01*
X75225082Y-33955931D01*
X75285835Y-33871498D01*
X75365899Y-33757560D01*
X75461828Y-33619128D01*
X75570172Y-33461214D01*
X75687484Y-33288826D01*
X75810315Y-33106977D01*
X75935217Y-32920677D01*
X76514532Y-32053221D01*
X77213612Y-32053221D01*
X77293138Y-32053290D01*
X77459660Y-32053906D01*
X77608169Y-32055092D01*
X77733195Y-32056765D01*
X77829270Y-32058840D01*
X77890925Y-32061236D01*
X77912692Y-32063869D01*
X77912634Y-32064299D01*
X77899303Y-32089969D01*
X77864675Y-32148737D01*
X77811743Y-32235858D01*
X77743503Y-32346586D01*
X77662949Y-32476176D01*
X77573075Y-32619883D01*
X77476877Y-32772960D01*
X77377348Y-32930662D01*
X77277484Y-33088244D01*
X77180278Y-33240959D01*
X77088727Y-33384064D01*
X77005823Y-33512811D01*
X76934562Y-33622455D01*
X76877938Y-33708251D01*
X76838946Y-33765454D01*
X76816095Y-33797324D01*
X76661714Y-33992086D01*
X76491800Y-34175964D01*
X76316745Y-34338397D01*
X76146942Y-34468819D01*
X75980031Y-34581882D01*
X76056228Y-34601534D01*
X76192061Y-34637810D01*
X76383610Y-34695472D01*
X76542994Y-34754230D01*
X76678221Y-34818059D01*
X76797295Y-34890938D01*
X76908223Y-34976842D01*
X77019011Y-35079748D01*
X77101579Y-35166887D01*
X77233156Y-35337721D01*
X77330575Y-35518296D01*
X77396661Y-35715972D01*
X77434240Y-35938107D01*
X77446138Y-36192061D01*
X77446100Y-36212135D01*
X77440879Y-36390544D01*
X77424577Y-36540752D01*
X77393929Y-36677781D01*
X77345670Y-36816656D01*
X77276534Y-36972398D01*
X77273719Y-36978283D01*
X77221350Y-37078593D01*
X77165207Y-37164017D01*
X77094691Y-37248895D01*
X76999199Y-37347567D01*
X76973968Y-37372200D01*
X76855004Y-37477532D01*
X76735765Y-37561768D01*
X76607233Y-37629037D01*
X76460393Y-37683464D01*
X76286230Y-37729176D01*
X76075728Y-37770301D01*
X76064907Y-37771889D01*
X75995824Y-37777640D01*
X75882671Y-37783020D01*
X75726463Y-37788009D01*
X75528216Y-37792586D01*
X75288945Y-37796730D01*
X75009666Y-37800420D01*
X74691395Y-37803635D01*
X74335148Y-37806354D01*
X72741978Y-37816824D01*
X72741978Y-36815721D01*
X73921264Y-36815721D01*
X74778933Y-36815721D01*
X74915518Y-36815637D01*
X75120476Y-36815012D01*
X75287508Y-36813632D01*
X75421335Y-36811323D01*
X75526677Y-36807913D01*
X75608253Y-36803228D01*
X75670784Y-36797095D01*
X75718990Y-36789341D01*
X75757591Y-36779792D01*
X75787419Y-36770426D01*
X75949601Y-36696882D01*
X76075911Y-36595615D01*
X76166459Y-36466480D01*
X76221350Y-36309332D01*
X76240691Y-36124025D01*
X76240720Y-36110948D01*
X76221987Y-35925768D01*
X76166638Y-35765764D01*
X76073769Y-35628253D01*
X76060212Y-35613383D01*
X75969660Y-35537023D01*
X75857214Y-35479699D01*
X75715420Y-35438384D01*
X75536827Y-35410048D01*
X75519861Y-35408334D01*
X75434748Y-35402709D01*
X75314153Y-35397664D01*
X75165726Y-35393394D01*
X74997118Y-35390091D01*
X74815982Y-35387947D01*
X74629969Y-35387158D01*
X73921264Y-35386971D01*
X73921264Y-36815721D01*
X72741978Y-36815721D01*
X72741978Y-32053221D01*
X73920863Y-32053221D01*
G37*
X73920863Y-32053221D02*
X73932603Y-34445811D01*
X74217404Y-34442567D01*
X74358058Y-34438400D01*
X74545539Y-34420431D01*
X74702804Y-34385083D01*
X74838230Y-34328515D01*
X74960194Y-34246884D01*
X75077072Y-34136345D01*
X75197241Y-33993058D01*
X75225082Y-33955931D01*
X75285835Y-33871498D01*
X75365899Y-33757560D01*
X75461828Y-33619128D01*
X75570172Y-33461214D01*
X75687484Y-33288826D01*
X75810315Y-33106977D01*
X75935217Y-32920677D01*
X76514532Y-32053221D01*
X77213612Y-32053221D01*
X77293138Y-32053290D01*
X77459660Y-32053906D01*
X77608169Y-32055092D01*
X77733195Y-32056765D01*
X77829270Y-32058840D01*
X77890925Y-32061236D01*
X77912692Y-32063869D01*
X77912634Y-32064299D01*
X77899303Y-32089969D01*
X77864675Y-32148737D01*
X77811743Y-32235858D01*
X77743503Y-32346586D01*
X77662949Y-32476176D01*
X77573075Y-32619883D01*
X77476877Y-32772960D01*
X77377348Y-32930662D01*
X77277484Y-33088244D01*
X77180278Y-33240959D01*
X77088727Y-33384064D01*
X77005823Y-33512811D01*
X76934562Y-33622455D01*
X76877938Y-33708251D01*
X76838946Y-33765454D01*
X76816095Y-33797324D01*
X76661714Y-33992086D01*
X76491800Y-34175964D01*
X76316745Y-34338397D01*
X76146942Y-34468819D01*
X75980031Y-34581882D01*
X76056228Y-34601534D01*
X76192061Y-34637810D01*
X76383610Y-34695472D01*
X76542994Y-34754230D01*
X76678221Y-34818059D01*
X76797295Y-34890938D01*
X76908223Y-34976842D01*
X77019011Y-35079748D01*
X77101579Y-35166887D01*
X77233156Y-35337721D01*
X77330575Y-35518296D01*
X77396661Y-35715972D01*
X77434240Y-35938107D01*
X77446138Y-36192061D01*
X77446100Y-36212135D01*
X77440879Y-36390544D01*
X77424577Y-36540752D01*
X77393929Y-36677781D01*
X77345670Y-36816656D01*
X77276534Y-36972398D01*
X77273719Y-36978283D01*
X77221350Y-37078593D01*
X77165207Y-37164017D01*
X77094691Y-37248895D01*
X76999199Y-37347567D01*
X76973968Y-37372200D01*
X76855004Y-37477532D01*
X76735765Y-37561768D01*
X76607233Y-37629037D01*
X76460393Y-37683464D01*
X76286230Y-37729176D01*
X76075728Y-37770301D01*
X76064907Y-37771889D01*
X75995824Y-37777640D01*
X75882671Y-37783020D01*
X75726463Y-37788009D01*
X75528216Y-37792586D01*
X75288945Y-37796730D01*
X75009666Y-37800420D01*
X74691395Y-37803635D01*
X74335148Y-37806354D01*
X72741978Y-37816824D01*
X72741978Y-36815721D01*
X73921264Y-36815721D01*
X74778933Y-36815721D01*
X74915518Y-36815637D01*
X75120476Y-36815012D01*
X75287508Y-36813632D01*
X75421335Y-36811323D01*
X75526677Y-36807913D01*
X75608253Y-36803228D01*
X75670784Y-36797095D01*
X75718990Y-36789341D01*
X75757591Y-36779792D01*
X75787419Y-36770426D01*
X75949601Y-36696882D01*
X76075911Y-36595615D01*
X76166459Y-36466480D01*
X76221350Y-36309332D01*
X76240691Y-36124025D01*
X76240720Y-36110948D01*
X76221987Y-35925768D01*
X76166638Y-35765764D01*
X76073769Y-35628253D01*
X76060212Y-35613383D01*
X75969660Y-35537023D01*
X75857214Y-35479699D01*
X75715420Y-35438384D01*
X75536827Y-35410048D01*
X75519861Y-35408334D01*
X75434748Y-35402709D01*
X75314153Y-35397664D01*
X75165726Y-35393394D01*
X74997118Y-35390091D01*
X74815982Y-35387947D01*
X74629969Y-35387158D01*
X73921264Y-35386971D01*
X73921264Y-36815721D01*
X72741978Y-36815721D01*
X72741978Y-32053221D01*
X73920863Y-32053221D01*
X80430014Y-36303261D02*
X80581432Y-36302219D01*
X80581432Y-36302219D02*
X80698117Y-36299255D01*
X80698117Y-36299255D02*
X80790681Y-36293340D01*
X80790681Y-36293340D02*
X80869738Y-36283449D01*
X80869738Y-36283449D02*
X80945904Y-36268553D01*
X80945904Y-36268553D02*
X81029792Y-36247628D01*
X81029792Y-36247628D02*
X81043777Y-36243884D01*
X81043777Y-36243884D02*
X81333931Y-36143150D01*
X81333931Y-36143150D02*
X81601491Y-36004421D01*
X81601491Y-36004421D02*
X81843474Y-35830187D01*
X81843474Y-35830187D02*
X82056895Y-35622933D01*
X82056895Y-35622933D02*
X82238771Y-35385147D01*
X82238771Y-35385147D02*
X82381736Y-35128722D01*
X82381736Y-35128722D02*
X82464831Y-34924799D01*
X82464831Y-34924799D02*
X82523468Y-34715437D01*
X82523468Y-34715437D02*
X82560548Y-34487804D01*
X82560548Y-34487804D02*
X82577657Y-34262006D01*
X82577657Y-34262006D02*
X82574746Y-33928177D01*
X82574746Y-33928177D02*
X82535066Y-33619709D01*
X82535066Y-33619709D02*
X82457774Y-33334275D01*
X82457774Y-33334275D02*
X82342026Y-33069551D01*
X82342026Y-33069551D02*
X82186981Y-32823211D01*
X82186981Y-32823211D02*
X81991796Y-32592928D01*
X81991796Y-32592928D02*
X81961844Y-32562463D01*
X81961844Y-32562463D02*
X81740505Y-32366900D01*
X81740505Y-32366900D02*
X81505911Y-32211753D01*
X81505911Y-32211753D02*
X81250269Y-32092414D01*
X81250269Y-32092414D02*
X81061076Y-32029546D01*
X81061076Y-32029546D02*
X80942805Y-32003738D01*
X80942805Y-32003738D02*
X80793062Y-31982926D01*
X80793062Y-31982926D02*
X80625551Y-31968061D01*
X80625551Y-31968061D02*
X80453978Y-31960090D01*
X80453978Y-31960090D02*
X80292047Y-31959962D01*
X80292047Y-31959962D02*
X80164338Y-31967488D01*
X80164338Y-31967488D02*
X79927653Y-32006501D01*
X79927653Y-32006501D02*
X79683623Y-32074616D01*
X79683623Y-32074616D02*
X79444317Y-32166974D01*
X79444317Y-32166974D02*
X79221804Y-32278715D01*
X79221804Y-32278715D02*
X79028153Y-32404981D01*
X79028153Y-32404981D02*
X78976663Y-32445653D01*
X78976663Y-32445653D02*
X78782998Y-32635562D01*
X78782998Y-32635562D02*
X78618239Y-32858362D01*
X78618239Y-32858362D02*
X78484106Y-33110638D01*
X78484106Y-33110638D02*
X78382319Y-33388976D01*
X78382319Y-33388976D02*
X78314597Y-33689960D01*
X78314597Y-33689960D02*
X78300690Y-33788132D01*
X78300690Y-33788132D02*
X78278131Y-34131474D01*
X78278131Y-34131474D02*
X78278579Y-34139650D01*
X78278579Y-34139650D02*
X79427001Y-34139650D01*
X79427001Y-34139650D02*
X79440729Y-33869427D01*
X79440729Y-33869427D02*
X79484486Y-33632160D01*
X79484486Y-33632160D02*
X79559021Y-33426166D01*
X79559021Y-33426166D02*
X79665082Y-33249762D01*
X79665082Y-33249762D02*
X79803416Y-33101265D01*
X79803416Y-33101265D02*
X79931111Y-33005705D01*
X79931111Y-33005705D02*
X80037307Y-32944378D01*
X80037307Y-32944378D02*
X80137197Y-32904517D01*
X80137197Y-32904517D02*
X80244999Y-32882675D01*
X80244999Y-32882675D02*
X80374929Y-32875402D01*
X80374929Y-32875402D02*
X80464032Y-32876446D01*
X80464032Y-32876446D02*
X80580711Y-32881680D01*
X80580711Y-32881680D02*
X80667121Y-32891738D01*
X80667121Y-32891738D02*
X80738305Y-32909414D01*
X80738305Y-32909414D02*
X80809305Y-32937497D01*
X80809305Y-32937497D02*
X80820495Y-32942607D01*
X80820495Y-32942607D02*
X80954789Y-33022426D01*
X80954789Y-33022426D02*
X81086519Y-33132181D01*
X81086519Y-33132181D02*
X81200415Y-33258264D01*
X81200415Y-33258264D02*
X81243755Y-33319783D01*
X81243755Y-33319783D02*
X81320095Y-33471573D01*
X81320095Y-33471573D02*
X81379247Y-33655074D01*
X81379247Y-33655074D02*
X81419212Y-33859257D01*
X81419212Y-33859257D02*
X81437988Y-34073096D01*
X81437988Y-34073096D02*
X81433577Y-34285562D01*
X81433577Y-34285562D02*
X81428488Y-34338308D01*
X81428488Y-34338308D02*
X81391470Y-34568109D01*
X81391470Y-34568109D02*
X81335208Y-34762158D01*
X81335208Y-34762158D02*
X81256988Y-34926944D01*
X81256988Y-34926944D02*
X81154091Y-35068954D01*
X81154091Y-35068954D02*
X81097697Y-35128445D01*
X81097697Y-35128445D02*
X80936897Y-35256154D01*
X80936897Y-35256154D02*
X80760147Y-35344750D01*
X80760147Y-35344750D02*
X80573406Y-35394236D01*
X80573406Y-35394236D02*
X80382634Y-35404612D01*
X80382634Y-35404612D02*
X80193791Y-35375880D01*
X80193791Y-35375880D02*
X80012835Y-35308042D01*
X80012835Y-35308042D02*
X79845727Y-35201100D01*
X79845727Y-35201100D02*
X79764365Y-35128118D01*
X79764365Y-35128118D02*
X79640184Y-34980409D01*
X79640184Y-34980409D02*
X79546128Y-34814542D01*
X79546128Y-34814542D02*
X79480437Y-34625361D01*
X79480437Y-34625361D02*
X79441350Y-34407706D01*
X79441350Y-34407706D02*
X79427106Y-34156420D01*
X79427106Y-34156420D02*
X79427001Y-34139650D01*
X79427001Y-34139650D02*
X78278579Y-34139650D01*
X78278579Y-34139650D02*
X78296094Y-34458729D01*
X78296094Y-34458729D02*
X78354049Y-34768269D01*
X78354049Y-34768269D02*
X78451471Y-35058467D01*
X78451471Y-35058467D02*
X78587831Y-35327696D01*
X78587831Y-35327696D02*
X78762603Y-35574327D01*
X78762603Y-35574327D02*
X78941442Y-35765433D01*
X78941442Y-35765433D02*
X79158489Y-35940760D01*
X79158489Y-35940760D02*
X79406526Y-36087510D01*
X79406526Y-36087510D02*
X79678507Y-36201805D01*
X79678507Y-36201805D02*
X79808321Y-36242030D01*
X79808321Y-36242030D02*
X79894931Y-36265032D01*
X79894931Y-36265032D02*
X79969542Y-36281537D01*
X79969542Y-36281537D02*
X80042683Y-36292585D01*
X80042683Y-36292585D02*
X80124882Y-36299211D01*
X80124882Y-36299211D02*
X80226668Y-36302453D01*
X80226668Y-36302453D02*
X80358571Y-36303347D01*
X80358571Y-36303347D02*
X80430014Y-36303261D01*
X80430014Y-36303261D02*
X80430014Y-36303261D01*
G36*
X78300690Y-33788132D02*
G01*
X78314597Y-33689960D01*
X78382319Y-33388976D01*
X78484106Y-33110638D01*
X78618239Y-32858362D01*
X78782998Y-32635562D01*
X78976663Y-32445653D01*
X79028153Y-32404981D01*
X79221804Y-32278715D01*
X79444317Y-32166974D01*
X79683623Y-32074616D01*
X79927653Y-32006501D01*
X80164338Y-31967488D01*
X80292047Y-31959962D01*
X80453978Y-31960090D01*
X80625551Y-31968061D01*
X80793062Y-31982926D01*
X80942805Y-32003738D01*
X81061076Y-32029546D01*
X81250269Y-32092414D01*
X81505911Y-32211753D01*
X81740505Y-32366900D01*
X81961844Y-32562463D01*
X81991796Y-32592928D01*
X82186981Y-32823211D01*
X82342026Y-33069551D01*
X82457774Y-33334275D01*
X82535066Y-33619709D01*
X82574746Y-33928177D01*
X82577657Y-34262006D01*
X82560548Y-34487804D01*
X82523468Y-34715437D01*
X82464831Y-34924799D01*
X82381736Y-35128722D01*
X82238771Y-35385147D01*
X82056895Y-35622933D01*
X81843474Y-35830187D01*
X81601491Y-36004421D01*
X81333931Y-36143150D01*
X81043777Y-36243884D01*
X81029792Y-36247628D01*
X80945904Y-36268553D01*
X80869738Y-36283449D01*
X80790681Y-36293340D01*
X80698117Y-36299255D01*
X80581432Y-36302219D01*
X80430014Y-36303261D01*
X80358571Y-36303347D01*
X80226668Y-36302453D01*
X80124882Y-36299211D01*
X80042683Y-36292585D01*
X79969542Y-36281537D01*
X79894931Y-36265032D01*
X79808321Y-36242030D01*
X79678507Y-36201805D01*
X79406526Y-36087510D01*
X79158489Y-35940760D01*
X78941442Y-35765433D01*
X78762603Y-35574327D01*
X78587831Y-35327696D01*
X78451471Y-35058467D01*
X78354049Y-34768269D01*
X78296094Y-34458729D01*
X78278579Y-34139650D01*
X79427001Y-34139650D01*
X79427106Y-34156420D01*
X79441350Y-34407706D01*
X79480437Y-34625361D01*
X79546128Y-34814542D01*
X79640184Y-34980409D01*
X79764365Y-35128118D01*
X79845727Y-35201100D01*
X80012835Y-35308042D01*
X80193791Y-35375880D01*
X80382634Y-35404612D01*
X80573406Y-35394236D01*
X80760147Y-35344750D01*
X80936897Y-35256154D01*
X81097697Y-35128445D01*
X81154091Y-35068954D01*
X81256988Y-34926944D01*
X81335208Y-34762158D01*
X81391470Y-34568109D01*
X81428488Y-34338308D01*
X81433577Y-34285562D01*
X81437988Y-34073096D01*
X81419212Y-33859257D01*
X81379247Y-33655074D01*
X81320095Y-33471573D01*
X81243755Y-33319783D01*
X81200415Y-33258264D01*
X81086519Y-33132181D01*
X80954789Y-33022426D01*
X80820495Y-32942607D01*
X80809305Y-32937497D01*
X80738305Y-32909414D01*
X80667121Y-32891738D01*
X80580711Y-32881680D01*
X80464032Y-32876446D01*
X80374929Y-32875402D01*
X80244999Y-32882675D01*
X80137197Y-32904517D01*
X80037307Y-32944378D01*
X79931111Y-33005705D01*
X79803416Y-33101265D01*
X79665082Y-33249762D01*
X79559021Y-33426166D01*
X79484486Y-33632160D01*
X79440729Y-33869427D01*
X79427001Y-34139650D01*
X78278579Y-34139650D01*
X78278131Y-34131474D01*
X78300690Y-33788132D01*
G37*
X78300690Y-33788132D02*
X78314597Y-33689960D01*
X78382319Y-33388976D01*
X78484106Y-33110638D01*
X78618239Y-32858362D01*
X78782998Y-32635562D01*
X78976663Y-32445653D01*
X79028153Y-32404981D01*
X79221804Y-32278715D01*
X79444317Y-32166974D01*
X79683623Y-32074616D01*
X79927653Y-32006501D01*
X80164338Y-31967488D01*
X80292047Y-31959962D01*
X80453978Y-31960090D01*
X80625551Y-31968061D01*
X80793062Y-31982926D01*
X80942805Y-32003738D01*
X81061076Y-32029546D01*
X81250269Y-32092414D01*
X81505911Y-32211753D01*
X81740505Y-32366900D01*
X81961844Y-32562463D01*
X81991796Y-32592928D01*
X82186981Y-32823211D01*
X82342026Y-33069551D01*
X82457774Y-33334275D01*
X82535066Y-33619709D01*
X82574746Y-33928177D01*
X82577657Y-34262006D01*
X82560548Y-34487804D01*
X82523468Y-34715437D01*
X82464831Y-34924799D01*
X82381736Y-35128722D01*
X82238771Y-35385147D01*
X82056895Y-35622933D01*
X81843474Y-35830187D01*
X81601491Y-36004421D01*
X81333931Y-36143150D01*
X81043777Y-36243884D01*
X81029792Y-36247628D01*
X80945904Y-36268553D01*
X80869738Y-36283449D01*
X80790681Y-36293340D01*
X80698117Y-36299255D01*
X80581432Y-36302219D01*
X80430014Y-36303261D01*
X80358571Y-36303347D01*
X80226668Y-36302453D01*
X80124882Y-36299211D01*
X80042683Y-36292585D01*
X79969542Y-36281537D01*
X79894931Y-36265032D01*
X79808321Y-36242030D01*
X79678507Y-36201805D01*
X79406526Y-36087510D01*
X79158489Y-35940760D01*
X78941442Y-35765433D01*
X78762603Y-35574327D01*
X78587831Y-35327696D01*
X78451471Y-35058467D01*
X78354049Y-34768269D01*
X78296094Y-34458729D01*
X78278579Y-34139650D01*
X79427001Y-34139650D01*
X79427106Y-34156420D01*
X79441350Y-34407706D01*
X79480437Y-34625361D01*
X79546128Y-34814542D01*
X79640184Y-34980409D01*
X79764365Y-35128118D01*
X79845727Y-35201100D01*
X80012835Y-35308042D01*
X80193791Y-35375880D01*
X80382634Y-35404612D01*
X80573406Y-35394236D01*
X80760147Y-35344750D01*
X80936897Y-35256154D01*
X81097697Y-35128445D01*
X81154091Y-35068954D01*
X81256988Y-34926944D01*
X81335208Y-34762158D01*
X81391470Y-34568109D01*
X81428488Y-34338308D01*
X81433577Y-34285562D01*
X81437988Y-34073096D01*
X81419212Y-33859257D01*
X81379247Y-33655074D01*
X81320095Y-33471573D01*
X81243755Y-33319783D01*
X81200415Y-33258264D01*
X81086519Y-33132181D01*
X80954789Y-33022426D01*
X80820495Y-32942607D01*
X80809305Y-32937497D01*
X80738305Y-32909414D01*
X80667121Y-32891738D01*
X80580711Y-32881680D01*
X80464032Y-32876446D01*
X80374929Y-32875402D01*
X80244999Y-32882675D01*
X80137197Y-32904517D01*
X80037307Y-32944378D01*
X79931111Y-33005705D01*
X79803416Y-33101265D01*
X79665082Y-33249762D01*
X79559021Y-33426166D01*
X79484486Y-33632160D01*
X79440729Y-33869427D01*
X79427001Y-34139650D01*
X78278579Y-34139650D01*
X78278131Y-34131474D01*
X78300690Y-33788132D01*
X91683432Y-37888413D02*
X91912756Y-37860903D01*
X91912756Y-37860903D02*
X92122795Y-37816463D01*
X92122795Y-37816463D02*
X92321633Y-37753689D01*
X92321633Y-37753689D02*
X92517357Y-37671174D01*
X92517357Y-37671174D02*
X92560506Y-37650377D01*
X92560506Y-37650377D02*
X92794108Y-37512087D01*
X92794108Y-37512087D02*
X92994174Y-37343447D01*
X92994174Y-37343447D02*
X93161131Y-37143964D01*
X93161131Y-37143964D02*
X93295405Y-36913146D01*
X93295405Y-36913146D02*
X93382127Y-36698037D01*
X93382127Y-36698037D02*
X93418798Y-36570045D01*
X93418798Y-36570045D02*
X93447495Y-36434804D01*
X93447495Y-36434804D02*
X93462467Y-36322730D01*
X93462467Y-36322730D02*
X93476041Y-36146704D01*
X93476041Y-36146704D02*
X93410750Y-36145474D01*
X93410750Y-36145474D02*
X93369722Y-36144333D01*
X93369722Y-36144333D02*
X93290791Y-36141814D01*
X93290791Y-36141814D02*
X93181379Y-36138168D01*
X93181379Y-36138168D02*
X93048912Y-36133642D01*
X93048912Y-36133642D02*
X92900814Y-36128486D01*
X92900814Y-36128486D02*
X92823853Y-36125772D01*
X92823853Y-36125772D02*
X92302246Y-36107299D01*
X92302246Y-36107299D02*
X92260982Y-36267666D01*
X92260982Y-36267666D02*
X92191387Y-36460405D01*
X92191387Y-36460405D02*
X92090541Y-36621421D01*
X92090541Y-36621421D02*
X91959670Y-36749354D01*
X91959670Y-36749354D02*
X91800004Y-36842841D01*
X91800004Y-36842841D02*
X91712603Y-36875359D01*
X91712603Y-36875359D02*
X91607622Y-36898405D01*
X91607622Y-36898405D02*
X91471664Y-36914345D01*
X91471664Y-36914345D02*
X91318607Y-36922804D01*
X91318607Y-36922804D02*
X91162329Y-36923406D01*
X91162329Y-36923406D02*
X91016709Y-36915774D01*
X91016709Y-36915774D02*
X90895624Y-36899534D01*
X90895624Y-36899534D02*
X90886825Y-36897727D01*
X90886825Y-36897727D02*
X90710634Y-36847057D01*
X90710634Y-36847057D02*
X90557131Y-36776539D01*
X90557131Y-36776539D02*
X90433055Y-36690220D01*
X90433055Y-36690220D02*
X90345146Y-36592148D01*
X90345146Y-36592148D02*
X90327186Y-36561714D01*
X90327186Y-36561714D02*
X90304254Y-36485375D01*
X90304254Y-36485375D02*
X90296331Y-36385942D01*
X90296331Y-36385942D02*
X90303490Y-36283144D01*
X90303490Y-36283144D02*
X90325804Y-36196715D01*
X90325804Y-36196715D02*
X90325832Y-36196648D01*
X90325832Y-36196648D02*
X90361767Y-36137293D01*
X90361767Y-36137293D02*
X90417162Y-36072073D01*
X90417162Y-36072073D02*
X90444207Y-36046284D01*
X90444207Y-36046284D02*
X90503673Y-35999168D01*
X90503673Y-35999168D02*
X90573014Y-35955111D01*
X90573014Y-35955111D02*
X90656693Y-35912499D01*
X90656693Y-35912499D02*
X90759177Y-35869718D01*
X90759177Y-35869718D02*
X90884930Y-35825152D01*
X90884930Y-35825152D02*
X91038418Y-35777187D01*
X91038418Y-35777187D02*
X91224105Y-35724208D01*
X91224105Y-35724208D02*
X91446457Y-35664601D01*
X91446457Y-35664601D02*
X91633228Y-35616297D01*
X91633228Y-35616297D02*
X91947074Y-35532103D01*
X91947074Y-35532103D02*
X92219978Y-35449817D01*
X92219978Y-35449817D02*
X92456178Y-35367302D01*
X92456178Y-35367302D02*
X92659907Y-35282423D01*
X92659907Y-35282423D02*
X92835401Y-35193043D01*
X92835401Y-35193043D02*
X92986896Y-35097025D01*
X92986896Y-35097025D02*
X93118628Y-34992233D01*
X93118628Y-34992233D02*
X93234831Y-34876532D01*
X93234831Y-34876532D02*
X93330447Y-34760234D01*
X93330447Y-34760234D02*
X93439307Y-34587932D01*
X93439307Y-34587932D02*
X93529320Y-34390602D01*
X93529320Y-34390602D02*
X93592197Y-34187326D01*
X93592197Y-34187326D02*
X93604205Y-34129815D01*
X93604205Y-34129815D02*
X93621852Y-33988291D01*
X93621852Y-33988291D02*
X93629348Y-33822714D01*
X93629348Y-33822714D02*
X93627063Y-33648727D01*
X93627063Y-33648727D02*
X93615369Y-33481971D01*
X93615369Y-33481971D02*
X93594639Y-33338086D01*
X93594639Y-33338086D02*
X93584300Y-33291999D01*
X93584300Y-33291999D02*
X93519879Y-33100679D01*
X93519879Y-33100679D02*
X93425910Y-32903186D01*
X93425910Y-32903186D02*
X93311433Y-32717193D01*
X93311433Y-32717193D02*
X93245103Y-32628787D01*
X93245103Y-32628787D02*
X93069869Y-32447992D01*
X93069869Y-32447992D02*
X92858931Y-32293234D01*
X92858931Y-32293234D02*
X92614394Y-32165492D01*
X92614394Y-32165492D02*
X92338361Y-32065746D01*
X92338361Y-32065746D02*
X92032936Y-31994976D01*
X92032936Y-31994976D02*
X91819437Y-31964955D01*
X91819437Y-31964955D02*
X91643232Y-31951073D01*
X91643232Y-31951073D02*
X91446822Y-31944094D01*
X91446822Y-31944094D02*
X91244412Y-31943896D01*
X91244412Y-31943896D02*
X91050209Y-31950354D01*
X91050209Y-31950354D02*
X90878416Y-31963345D01*
X90878416Y-31963345D02*
X90794121Y-31973902D01*
X90794121Y-31973902D02*
X90484141Y-32034660D01*
X90484141Y-32034660D02*
X90209681Y-32118949D01*
X90209681Y-32118949D02*
X89966261Y-32228914D01*
X89966261Y-32228914D02*
X89749404Y-32366702D01*
X89749404Y-32366702D02*
X89554629Y-32534458D01*
X89554629Y-32534458D02*
X89494840Y-32596322D01*
X89494840Y-32596322D02*
X89348379Y-32781874D01*
X89348379Y-32781874D02*
X89218369Y-33000655D01*
X89218369Y-33000655D02*
X89109429Y-33242108D01*
X89109429Y-33242108D02*
X89026175Y-33495675D01*
X89026175Y-33495675D02*
X88973223Y-33750799D01*
X88973223Y-33750799D02*
X88966206Y-33805141D01*
X88966206Y-33805141D02*
X88958891Y-33878299D01*
X88958891Y-33878299D02*
X88960556Y-33917239D01*
X88960556Y-33917239D02*
X88974426Y-33932734D01*
X88974426Y-33932734D02*
X89003728Y-33935558D01*
X89003728Y-33935558D02*
X89005254Y-33935560D01*
X89005254Y-33935560D02*
X89043637Y-33937698D01*
X89043637Y-33937698D02*
X89119429Y-33943654D01*
X89119429Y-33943654D02*
X89224903Y-33952756D01*
X89224903Y-33952756D02*
X89352333Y-33964334D01*
X89352333Y-33964334D02*
X89493993Y-33977717D01*
X89493993Y-33977717D02*
X89524121Y-33980625D01*
X89524121Y-33980625D02*
X89698096Y-33997521D01*
X89698096Y-33997521D02*
X89832224Y-34010187D01*
X89832224Y-34010187D02*
X89931830Y-34018468D01*
X89931830Y-34018468D02*
X90002242Y-34022210D01*
X90002242Y-34022210D02*
X90048785Y-34021261D01*
X90048785Y-34021261D02*
X90076786Y-34015466D01*
X90076786Y-34015466D02*
X90091571Y-34004672D01*
X90091571Y-34004672D02*
X90098466Y-33988724D01*
X90098466Y-33988724D02*
X90102797Y-33967468D01*
X90102797Y-33967468D02*
X90103538Y-33963891D01*
X90103538Y-33963891D02*
X90134702Y-33848648D01*
X90134702Y-33848648D02*
X90180633Y-33715769D01*
X90180633Y-33715769D02*
X90234296Y-33583386D01*
X90234296Y-33583386D02*
X90288654Y-33469631D01*
X90288654Y-33469631D02*
X90310043Y-33431698D01*
X90310043Y-33431698D02*
X90433681Y-33269482D01*
X90433681Y-33269482D02*
X90589216Y-33138925D01*
X90589216Y-33138925D02*
X90775587Y-33040527D01*
X90775587Y-33040527D02*
X90991731Y-32974784D01*
X90991731Y-32974784D02*
X91236589Y-32942195D01*
X91236589Y-32942195D02*
X91361085Y-32938473D01*
X91361085Y-32938473D02*
X91613981Y-32953091D01*
X91613981Y-32953091D02*
X91834128Y-32997411D01*
X91834128Y-32997411D02*
X92023649Y-33072134D01*
X92023649Y-33072134D02*
X92184668Y-33177960D01*
X92184668Y-33177960D02*
X92241109Y-33228703D01*
X92241109Y-33228703D02*
X92353696Y-33364168D01*
X92353696Y-33364168D02*
X92427459Y-33508868D01*
X92427459Y-33508868D02*
X92461815Y-33657314D01*
X92461815Y-33657314D02*
X92456182Y-33804020D01*
X92456182Y-33804020D02*
X92409978Y-33943496D01*
X92409978Y-33943496D02*
X92329589Y-34062475D01*
X92329589Y-34062475D02*
X92279017Y-34114035D01*
X92279017Y-34114035D02*
X92220019Y-34161278D01*
X92220019Y-34161278D02*
X92148429Y-34205781D01*
X92148429Y-34205781D02*
X92060084Y-34249120D01*
X92060084Y-34249120D02*
X91950819Y-34292873D01*
X91950819Y-34292873D02*
X91816469Y-34338615D01*
X91816469Y-34338615D02*
X91652869Y-34387923D01*
X91652869Y-34387923D02*
X91455856Y-34442374D01*
X91455856Y-34442374D02*
X91221265Y-34503544D01*
X91221265Y-34503544D02*
X91050467Y-34546701D01*
X91050467Y-34546701D02*
X90698273Y-34643811D01*
X90698273Y-34643811D02*
X90388905Y-34747991D01*
X90388905Y-34747991D02*
X90122915Y-34859014D01*
X90122915Y-34859014D02*
X89900859Y-34976655D01*
X89900859Y-34976655D02*
X89754987Y-35075557D01*
X89754987Y-35075557D02*
X89566378Y-35247691D01*
X89566378Y-35247691D02*
X89412584Y-35445015D01*
X89412584Y-35445015D02*
X89294633Y-35662454D01*
X89294633Y-35662454D02*
X89213557Y-35894935D01*
X89213557Y-35894935D02*
X89170384Y-36137383D01*
X89170384Y-36137383D02*
X89166146Y-36384723D01*
X89166146Y-36384723D02*
X89201873Y-36631882D01*
X89201873Y-36631882D02*
X89278594Y-36873784D01*
X89278594Y-36873784D02*
X89356870Y-37036601D01*
X89356870Y-37036601D02*
X89481684Y-37220323D01*
X89481684Y-37220323D02*
X89642329Y-37391897D01*
X89642329Y-37391897D02*
X89829459Y-37543236D01*
X89829459Y-37543236D02*
X90033730Y-37666255D01*
X90033730Y-37666255D02*
X90141521Y-37715495D01*
X90141521Y-37715495D02*
X90308154Y-37777781D01*
X90308154Y-37777781D02*
X90468702Y-37824718D01*
X90468702Y-37824718D02*
X90634651Y-37858420D01*
X90634651Y-37858420D02*
X90817489Y-37881000D01*
X90817489Y-37881000D02*
X91028703Y-37894574D01*
X91028703Y-37894574D02*
X91134591Y-37898266D01*
X91134591Y-37898266D02*
X91426739Y-37900399D01*
X91426739Y-37900399D02*
X91683432Y-37888413D01*
X91683432Y-37888413D02*
X91683432Y-37888413D01*
G36*
X91446822Y-31944094D02*
G01*
X91643232Y-31951073D01*
X91819437Y-31964955D01*
X92032936Y-31994976D01*
X92338361Y-32065746D01*
X92614394Y-32165492D01*
X92858931Y-32293234D01*
X93069869Y-32447992D01*
X93245103Y-32628787D01*
X93311433Y-32717193D01*
X93425910Y-32903186D01*
X93519879Y-33100679D01*
X93584300Y-33291999D01*
X93594639Y-33338086D01*
X93615369Y-33481971D01*
X93627063Y-33648727D01*
X93629348Y-33822714D01*
X93621852Y-33988291D01*
X93604205Y-34129815D01*
X93592197Y-34187326D01*
X93529320Y-34390602D01*
X93439307Y-34587932D01*
X93330447Y-34760234D01*
X93234831Y-34876532D01*
X93118628Y-34992233D01*
X92986896Y-35097025D01*
X92835401Y-35193043D01*
X92659907Y-35282423D01*
X92456178Y-35367302D01*
X92219978Y-35449817D01*
X91947074Y-35532103D01*
X91633228Y-35616297D01*
X91446457Y-35664601D01*
X91224105Y-35724208D01*
X91038418Y-35777187D01*
X90884930Y-35825152D01*
X90759177Y-35869718D01*
X90656693Y-35912499D01*
X90573014Y-35955111D01*
X90503673Y-35999168D01*
X90444207Y-36046284D01*
X90417162Y-36072073D01*
X90361767Y-36137293D01*
X90325832Y-36196648D01*
X90325804Y-36196715D01*
X90303490Y-36283144D01*
X90296331Y-36385942D01*
X90304254Y-36485375D01*
X90327186Y-36561714D01*
X90345146Y-36592148D01*
X90433055Y-36690220D01*
X90557131Y-36776539D01*
X90710634Y-36847057D01*
X90886825Y-36897727D01*
X90895624Y-36899534D01*
X91016709Y-36915774D01*
X91162329Y-36923406D01*
X91318607Y-36922804D01*
X91471664Y-36914345D01*
X91607622Y-36898405D01*
X91712603Y-36875359D01*
X91800004Y-36842841D01*
X91959670Y-36749354D01*
X92090541Y-36621421D01*
X92191387Y-36460405D01*
X92260982Y-36267666D01*
X92302246Y-36107299D01*
X92823853Y-36125772D01*
X92900814Y-36128486D01*
X93048912Y-36133642D01*
X93181379Y-36138168D01*
X93290791Y-36141814D01*
X93369722Y-36144333D01*
X93410750Y-36145474D01*
X93476041Y-36146704D01*
X93462467Y-36322730D01*
X93447495Y-36434804D01*
X93418798Y-36570045D01*
X93382127Y-36698037D01*
X93295405Y-36913146D01*
X93161131Y-37143964D01*
X92994174Y-37343447D01*
X92794108Y-37512087D01*
X92560506Y-37650377D01*
X92517357Y-37671174D01*
X92321633Y-37753689D01*
X92122795Y-37816463D01*
X91912756Y-37860903D01*
X91683432Y-37888413D01*
X91426739Y-37900399D01*
X91134591Y-37898266D01*
X91028703Y-37894574D01*
X90817489Y-37881000D01*
X90634651Y-37858420D01*
X90468702Y-37824718D01*
X90308154Y-37777781D01*
X90141521Y-37715495D01*
X90033730Y-37666255D01*
X89829459Y-37543236D01*
X89642329Y-37391897D01*
X89481684Y-37220323D01*
X89356870Y-37036601D01*
X89278594Y-36873784D01*
X89201873Y-36631882D01*
X89166146Y-36384723D01*
X89170384Y-36137383D01*
X89213557Y-35894935D01*
X89294633Y-35662454D01*
X89412584Y-35445015D01*
X89566378Y-35247691D01*
X89754987Y-35075557D01*
X89900859Y-34976655D01*
X90122915Y-34859014D01*
X90388905Y-34747991D01*
X90698273Y-34643811D01*
X91050467Y-34546701D01*
X91221265Y-34503544D01*
X91455856Y-34442374D01*
X91652869Y-34387923D01*
X91816469Y-34338615D01*
X91950819Y-34292873D01*
X92060084Y-34249120D01*
X92148429Y-34205781D01*
X92220019Y-34161278D01*
X92279017Y-34114035D01*
X92329589Y-34062475D01*
X92409978Y-33943496D01*
X92456182Y-33804020D01*
X92461815Y-33657314D01*
X92427459Y-33508868D01*
X92353696Y-33364168D01*
X92241109Y-33228703D01*
X92184668Y-33177960D01*
X92023649Y-33072134D01*
X91834128Y-32997411D01*
X91613981Y-32953091D01*
X91361085Y-32938473D01*
X91236589Y-32942195D01*
X90991731Y-32974784D01*
X90775587Y-33040527D01*
X90589216Y-33138925D01*
X90433681Y-33269482D01*
X90310043Y-33431698D01*
X90288654Y-33469631D01*
X90234296Y-33583386D01*
X90180633Y-33715769D01*
X90134702Y-33848648D01*
X90103538Y-33963891D01*
X90102797Y-33967468D01*
X90098466Y-33988724D01*
X90091571Y-34004672D01*
X90076786Y-34015466D01*
X90048785Y-34021261D01*
X90002242Y-34022210D01*
X89931830Y-34018468D01*
X89832224Y-34010187D01*
X89698096Y-33997521D01*
X89524121Y-33980625D01*
X89493993Y-33977717D01*
X89352333Y-33964334D01*
X89224903Y-33952756D01*
X89119429Y-33943654D01*
X89043637Y-33937698D01*
X89005254Y-33935560D01*
X89003728Y-33935558D01*
X88974426Y-33932734D01*
X88960556Y-33917239D01*
X88958891Y-33878299D01*
X88966206Y-33805141D01*
X88973223Y-33750799D01*
X89026175Y-33495675D01*
X89109429Y-33242108D01*
X89218369Y-33000655D01*
X89348379Y-32781874D01*
X89494840Y-32596322D01*
X89554629Y-32534458D01*
X89749404Y-32366702D01*
X89966261Y-32228914D01*
X90209681Y-32118949D01*
X90484141Y-32034660D01*
X90794121Y-31973902D01*
X90878416Y-31963345D01*
X91050209Y-31950354D01*
X91244412Y-31943896D01*
X91446822Y-31944094D01*
G37*
X91446822Y-31944094D02*
X91643232Y-31951073D01*
X91819437Y-31964955D01*
X92032936Y-31994976D01*
X92338361Y-32065746D01*
X92614394Y-32165492D01*
X92858931Y-32293234D01*
X93069869Y-32447992D01*
X93245103Y-32628787D01*
X93311433Y-32717193D01*
X93425910Y-32903186D01*
X93519879Y-33100679D01*
X93584300Y-33291999D01*
X93594639Y-33338086D01*
X93615369Y-33481971D01*
X93627063Y-33648727D01*
X93629348Y-33822714D01*
X93621852Y-33988291D01*
X93604205Y-34129815D01*
X93592197Y-34187326D01*
X93529320Y-34390602D01*
X93439307Y-34587932D01*
X93330447Y-34760234D01*
X93234831Y-34876532D01*
X93118628Y-34992233D01*
X92986896Y-35097025D01*
X92835401Y-35193043D01*
X92659907Y-35282423D01*
X92456178Y-35367302D01*
X92219978Y-35449817D01*
X91947074Y-35532103D01*
X91633228Y-35616297D01*
X91446457Y-35664601D01*
X91224105Y-35724208D01*
X91038418Y-35777187D01*
X90884930Y-35825152D01*
X90759177Y-35869718D01*
X90656693Y-35912499D01*
X90573014Y-35955111D01*
X90503673Y-35999168D01*
X90444207Y-36046284D01*
X90417162Y-36072073D01*
X90361767Y-36137293D01*
X90325832Y-36196648D01*
X90325804Y-36196715D01*
X90303490Y-36283144D01*
X90296331Y-36385942D01*
X90304254Y-36485375D01*
X90327186Y-36561714D01*
X90345146Y-36592148D01*
X90433055Y-36690220D01*
X90557131Y-36776539D01*
X90710634Y-36847057D01*
X90886825Y-36897727D01*
X90895624Y-36899534D01*
X91016709Y-36915774D01*
X91162329Y-36923406D01*
X91318607Y-36922804D01*
X91471664Y-36914345D01*
X91607622Y-36898405D01*
X91712603Y-36875359D01*
X91800004Y-36842841D01*
X91959670Y-36749354D01*
X92090541Y-36621421D01*
X92191387Y-36460405D01*
X92260982Y-36267666D01*
X92302246Y-36107299D01*
X92823853Y-36125772D01*
X92900814Y-36128486D01*
X93048912Y-36133642D01*
X93181379Y-36138168D01*
X93290791Y-36141814D01*
X93369722Y-36144333D01*
X93410750Y-36145474D01*
X93476041Y-36146704D01*
X93462467Y-36322730D01*
X93447495Y-36434804D01*
X93418798Y-36570045D01*
X93382127Y-36698037D01*
X93295405Y-36913146D01*
X93161131Y-37143964D01*
X92994174Y-37343447D01*
X92794108Y-37512087D01*
X92560506Y-37650377D01*
X92517357Y-37671174D01*
X92321633Y-37753689D01*
X92122795Y-37816463D01*
X91912756Y-37860903D01*
X91683432Y-37888413D01*
X91426739Y-37900399D01*
X91134591Y-37898266D01*
X91028703Y-37894574D01*
X90817489Y-37881000D01*
X90634651Y-37858420D01*
X90468702Y-37824718D01*
X90308154Y-37777781D01*
X90141521Y-37715495D01*
X90033730Y-37666255D01*
X89829459Y-37543236D01*
X89642329Y-37391897D01*
X89481684Y-37220323D01*
X89356870Y-37036601D01*
X89278594Y-36873784D01*
X89201873Y-36631882D01*
X89166146Y-36384723D01*
X89170384Y-36137383D01*
X89213557Y-35894935D01*
X89294633Y-35662454D01*
X89412584Y-35445015D01*
X89566378Y-35247691D01*
X89754987Y-35075557D01*
X89900859Y-34976655D01*
X90122915Y-34859014D01*
X90388905Y-34747991D01*
X90698273Y-34643811D01*
X91050467Y-34546701D01*
X91221265Y-34503544D01*
X91455856Y-34442374D01*
X91652869Y-34387923D01*
X91816469Y-34338615D01*
X91950819Y-34292873D01*
X92060084Y-34249120D01*
X92148429Y-34205781D01*
X92220019Y-34161278D01*
X92279017Y-34114035D01*
X92329589Y-34062475D01*
X92409978Y-33943496D01*
X92456182Y-33804020D01*
X92461815Y-33657314D01*
X92427459Y-33508868D01*
X92353696Y-33364168D01*
X92241109Y-33228703D01*
X92184668Y-33177960D01*
X92023649Y-33072134D01*
X91834128Y-32997411D01*
X91613981Y-32953091D01*
X91361085Y-32938473D01*
X91236589Y-32942195D01*
X90991731Y-32974784D01*
X90775587Y-33040527D01*
X90589216Y-33138925D01*
X90433681Y-33269482D01*
X90310043Y-33431698D01*
X90288654Y-33469631D01*
X90234296Y-33583386D01*
X90180633Y-33715769D01*
X90134702Y-33848648D01*
X90103538Y-33963891D01*
X90102797Y-33967468D01*
X90098466Y-33988724D01*
X90091571Y-34004672D01*
X90076786Y-34015466D01*
X90048785Y-34021261D01*
X90002242Y-34022210D01*
X89931830Y-34018468D01*
X89832224Y-34010187D01*
X89698096Y-33997521D01*
X89524121Y-33980625D01*
X89493993Y-33977717D01*
X89352333Y-33964334D01*
X89224903Y-33952756D01*
X89119429Y-33943654D01*
X89043637Y-33937698D01*
X89005254Y-33935560D01*
X89003728Y-33935558D01*
X88974426Y-33932734D01*
X88960556Y-33917239D01*
X88958891Y-33878299D01*
X88966206Y-33805141D01*
X88973223Y-33750799D01*
X89026175Y-33495675D01*
X89109429Y-33242108D01*
X89218369Y-33000655D01*
X89348379Y-32781874D01*
X89494840Y-32596322D01*
X89554629Y-32534458D01*
X89749404Y-32366702D01*
X89966261Y-32228914D01*
X90209681Y-32118949D01*
X90484141Y-32034660D01*
X90794121Y-31973902D01*
X90878416Y-31963345D01*
X91050209Y-31950354D01*
X91244412Y-31943896D01*
X91446822Y-31944094D01*
X84625550Y-35545721D02*
X86870728Y-35545721D01*
X86870728Y-35545721D02*
X86870728Y-37813579D01*
X86870728Y-37813579D02*
X88050014Y-37813579D01*
X88050014Y-37813579D02*
X88050014Y-32053221D01*
X88050014Y-32053221D02*
X86870728Y-32053221D01*
X86870728Y-32053221D02*
X86870728Y-34570970D01*
X86870728Y-34570970D02*
X85753808Y-34565087D01*
X85753808Y-34565087D02*
X84636889Y-34559204D01*
X84636889Y-34559204D02*
X84631027Y-33306213D01*
X84631027Y-33306213D02*
X84625165Y-32053221D01*
X84625165Y-32053221D02*
X83446264Y-32053221D01*
X83446264Y-32053221D02*
X83446264Y-37813579D01*
X83446264Y-37813579D02*
X84625550Y-37813579D01*
X84625550Y-37813579D02*
X84625550Y-35545721D01*
X84625550Y-35545721D02*
X84625550Y-35545721D01*
G36*
X84631027Y-33306213D02*
G01*
X84636889Y-34559204D01*
X85753808Y-34565087D01*
X86870728Y-34570970D01*
X86870728Y-32053221D01*
X88050014Y-32053221D01*
X88050014Y-37813579D01*
X86870728Y-37813579D01*
X86870728Y-35545721D01*
X84625550Y-35545721D01*
X84625550Y-37813579D01*
X83446264Y-37813579D01*
X83446264Y-32053221D01*
X84625165Y-32053221D01*
X84631027Y-33306213D01*
G37*
X84631027Y-33306213D02*
X84636889Y-34559204D01*
X85753808Y-34565087D01*
X86870728Y-34570970D01*
X86870728Y-32053221D01*
X88050014Y-32053221D01*
X88050014Y-37813579D01*
X86870728Y-37813579D01*
X86870728Y-35545721D01*
X84625550Y-35545721D01*
X84625550Y-37813579D01*
X83446264Y-37813579D01*
X83446264Y-32053221D01*
X84625165Y-32053221D01*
X84631027Y-33306213D01*
X101120056Y-39855085D02*
X101119233Y-39739356D01*
X101119233Y-39739356D02*
X100518915Y-39129422D01*
X100518915Y-39129422D02*
X99918596Y-38519488D01*
X99918596Y-38519488D02*
X99918159Y-38239587D01*
X99918159Y-38239587D02*
X99917721Y-37959685D01*
X99917721Y-37959685D02*
X99552137Y-37959685D01*
X99552137Y-37959685D02*
X99542717Y-37888666D01*
X99542717Y-37888666D02*
X99539150Y-37856295D01*
X99539150Y-37856295D02*
X99533138Y-37795335D01*
X99533138Y-37795335D02*
X99525001Y-37709424D01*
X99525001Y-37709424D02*
X99515062Y-37602196D01*
X99515062Y-37602196D02*
X99503643Y-37477289D01*
X99503643Y-37477289D02*
X99491064Y-37338339D01*
X99491064Y-37338339D02*
X99477647Y-37188981D01*
X99477647Y-37188981D02*
X99463715Y-37032854D01*
X99463715Y-37032854D02*
X99449588Y-36873592D01*
X99449588Y-36873592D02*
X99435588Y-36714832D01*
X99435588Y-36714832D02*
X99422037Y-36560211D01*
X99422037Y-36560211D02*
X99409256Y-36413365D01*
X99409256Y-36413365D02*
X99397567Y-36277929D01*
X99397567Y-36277929D02*
X99387292Y-36157542D01*
X99387292Y-36157542D02*
X99378752Y-36055838D01*
X99378752Y-36055838D02*
X99372269Y-35976455D01*
X99372269Y-35976455D02*
X99368164Y-35923028D01*
X99368164Y-35923028D02*
X99366759Y-35899193D01*
X99366759Y-35899193D02*
X99366760Y-35899080D01*
X99366760Y-35899080D02*
X99377004Y-35879956D01*
X99377004Y-35879956D02*
X99407774Y-35840467D01*
X99407774Y-35840467D02*
X99459489Y-35780156D01*
X99459489Y-35780156D02*
X99532567Y-35698561D01*
X99532567Y-35698561D02*
X99627427Y-35595224D01*
X99627427Y-35595224D02*
X99744487Y-35469684D01*
X99744487Y-35469684D02*
X99884167Y-35321482D01*
X99884167Y-35321482D02*
X100046884Y-35150159D01*
X100046884Y-35150159D02*
X100092621Y-35102185D01*
X100092621Y-35102185D02*
X100817995Y-34341856D01*
X100817995Y-34341856D02*
X100759351Y-34283370D01*
X100759351Y-34283370D02*
X100700708Y-34224883D01*
X100700708Y-34224883D02*
X100605826Y-34328112D01*
X100605826Y-34328112D02*
X100571115Y-34365419D01*
X100571115Y-34365419D02*
X100516894Y-34423111D01*
X100516894Y-34423111D02*
X100446741Y-34497409D01*
X100446741Y-34497409D02*
X100364232Y-34584533D01*
X100364232Y-34584533D02*
X100272945Y-34680704D01*
X100272945Y-34680704D02*
X100176458Y-34782142D01*
X100176458Y-34782142D02*
X100118735Y-34842727D01*
X100118735Y-34842727D02*
X100010366Y-34956225D01*
X100010366Y-34956225D02*
X99922772Y-35047137D01*
X99922772Y-35047137D02*
X99853720Y-35117115D01*
X99853720Y-35117115D02*
X99800976Y-35167812D01*
X99800976Y-35167812D02*
X99762306Y-35200882D01*
X99762306Y-35200882D02*
X99735477Y-35217978D01*
X99735477Y-35217978D02*
X99718256Y-35220753D01*
X99718256Y-35220753D02*
X99708408Y-35210859D01*
X99708408Y-35210859D02*
X99703701Y-35189951D01*
X99703701Y-35189951D02*
X99701901Y-35159681D01*
X99701901Y-35159681D02*
X99701659Y-35151420D01*
X99701659Y-35151420D02*
X99689142Y-35094513D01*
X99689142Y-35094513D02*
X99658303Y-35025729D01*
X99658303Y-35025729D02*
X99615297Y-34955947D01*
X99615297Y-34955947D02*
X99566280Y-34896044D01*
X99566280Y-34896044D02*
X99546666Y-34877540D01*
X99546666Y-34877540D02*
X99446030Y-34812794D01*
X99446030Y-34812794D02*
X99328473Y-34776568D01*
X99328473Y-34776568D02*
X99224538Y-34767975D01*
X99224538Y-34767975D02*
X99106751Y-34784183D01*
X99106751Y-34784183D02*
X98997969Y-34831710D01*
X98997969Y-34831710D02*
X98901690Y-34908911D01*
X98901690Y-34908911D02*
X98883925Y-34928127D01*
X98883925Y-34928127D02*
X98818968Y-35001922D01*
X98818968Y-35001922D02*
X97695221Y-35001922D01*
X97695221Y-35001922D02*
X97695221Y-34767975D01*
X97695221Y-34767975D02*
X97394432Y-34767975D01*
X97394432Y-34767975D02*
X97394432Y-34877270D01*
X97394432Y-34877270D02*
X97390657Y-34951883D01*
X97390657Y-34951883D02*
X97377975Y-35003672D01*
X97377975Y-35003672D02*
X97362563Y-35031842D01*
X97362563Y-35031842D02*
X97351550Y-35051998D01*
X97351550Y-35051998D02*
X97342121Y-35081222D01*
X97342121Y-35081222D02*
X97333649Y-35123847D01*
X97333649Y-35123847D02*
X97325510Y-35184205D01*
X97325510Y-35184205D02*
X97317079Y-35266629D01*
X97317079Y-35266629D02*
X97307732Y-35375450D01*
X97307732Y-35375450D02*
X97301331Y-35456405D01*
X97301331Y-35456405D02*
X97271969Y-35835690D01*
X97271969Y-35835690D02*
X96551141Y-35105484D01*
X96551141Y-35105484D02*
X96420808Y-34973356D01*
X96420808Y-34973356D02*
X96295692Y-34846326D01*
X96295692Y-34846326D02*
X96178079Y-34726727D01*
X96178079Y-34726727D02*
X96070255Y-34616894D01*
X96070255Y-34616894D02*
X95974505Y-34519159D01*
X95974505Y-34519159D02*
X95893117Y-34435856D01*
X95893117Y-34435856D02*
X95828377Y-34369318D01*
X95828377Y-34369318D02*
X95782570Y-34321880D01*
X95782570Y-34321880D02*
X95758008Y-34295902D01*
X95758008Y-34295902D02*
X95717655Y-34254773D01*
X95717655Y-34254773D02*
X95683995Y-34226087D01*
X95683995Y-34226087D02*
X95665890Y-34216527D01*
X95665890Y-34216527D02*
X95642765Y-34227725D01*
X95642765Y-34227725D02*
X95609057Y-34255703D01*
X95609057Y-34255703D02*
X95597631Y-34267096D01*
X95597631Y-34267096D02*
X95549183Y-34317665D01*
X95549183Y-34317665D02*
X95815919Y-34588720D01*
X95815919Y-34588720D02*
X95883969Y-34657770D01*
X95883969Y-34657770D02*
X95971715Y-34746648D01*
X95971715Y-34746648D02*
X96075308Y-34851463D01*
X96075308Y-34851463D02*
X96190900Y-34968325D01*
X96190900Y-34968325D02*
X96314641Y-35093343D01*
X96314641Y-35093343D02*
X96442681Y-35222627D01*
X96442681Y-35222627D02*
X96571172Y-35352286D01*
X96571172Y-35352286D02*
X96663346Y-35445243D01*
X96663346Y-35445243D02*
X96803458Y-35586902D01*
X96803458Y-35586902D02*
X96921168Y-35706831D01*
X96921168Y-35706831D02*
X97017980Y-35806654D01*
X97017980Y-35806654D02*
X97095401Y-35887994D01*
X97095401Y-35887994D02*
X97154936Y-35952474D01*
X97154936Y-35952474D02*
X97184442Y-35986145D01*
X97184442Y-35986145D02*
X97421391Y-35986145D01*
X97421391Y-35986145D02*
X97451057Y-35606830D01*
X97451057Y-35606830D02*
X97460003Y-35495645D01*
X97460003Y-35495645D02*
X97468658Y-35393969D01*
X97468658Y-35393969D02*
X97476529Y-35307118D01*
X97476529Y-35307118D02*
X97483128Y-35240404D01*
X97483128Y-35240404D02*
X97487964Y-35199143D01*
X97487964Y-35199143D02*
X97489520Y-35189916D01*
X97489520Y-35189916D02*
X97498318Y-35152317D01*
X97498318Y-35152317D02*
X98760119Y-35152317D01*
X98760119Y-35152317D02*
X98768542Y-35257249D01*
X98768542Y-35257249D02*
X98793972Y-35381227D01*
X98793972Y-35381227D02*
X98847189Y-35490898D01*
X98847189Y-35490898D02*
X98924837Y-35582266D01*
X98924837Y-35582266D02*
X99023563Y-35651339D01*
X99023563Y-35651339D02*
X99134372Y-35692802D01*
X99134372Y-35692802D02*
X99170320Y-35712251D01*
X99170320Y-35712251D02*
X99188317Y-35753992D01*
X99188317Y-35753992D02*
X99188694Y-35755833D01*
X99188694Y-35755833D02*
X99190853Y-35773455D01*
X99190853Y-35773455D02*
X99188184Y-35791500D01*
X99188184Y-35791500D02*
X99178080Y-35813314D01*
X99178080Y-35813314D02*
X99157937Y-35842245D01*
X99157937Y-35842245D02*
X99125149Y-35881639D01*
X99125149Y-35881639D02*
X99077110Y-35934845D01*
X99077110Y-35934845D02*
X99011216Y-36005208D01*
X99011216Y-36005208D02*
X98924860Y-36096076D01*
X98924860Y-36096076D02*
X98919280Y-36101929D01*
X98919280Y-36101929D02*
X98826395Y-36199466D01*
X98826395Y-36199466D02*
X98727645Y-36303355D01*
X98727645Y-36303355D02*
X98629816Y-36406445D01*
X98629816Y-36406445D02*
X98539693Y-36501583D01*
X98539693Y-36501583D02*
X98464062Y-36581618D01*
X98464062Y-36581618D02*
X98447195Y-36599511D01*
X98447195Y-36599511D02*
X98382535Y-36666978D01*
X98382535Y-36666978D02*
X98325095Y-36724713D01*
X98325095Y-36724713D02*
X98278999Y-36768747D01*
X98278999Y-36768747D02*
X98248369Y-36795108D01*
X98248369Y-36795108D02*
X98238085Y-36800901D01*
X98238085Y-36800901D02*
X98222748Y-36788776D01*
X98222748Y-36788776D02*
X98186883Y-36755512D01*
X98186883Y-36755512D02*
X98133312Y-36703880D01*
X98133312Y-36703880D02*
X98064860Y-36636647D01*
X98064860Y-36636647D02*
X97984353Y-36556585D01*
X97984353Y-36556585D02*
X97894613Y-36466461D01*
X97894613Y-36466461D02*
X97821268Y-36392224D01*
X97821268Y-36392224D02*
X97421391Y-35986145D01*
X97421391Y-35986145D02*
X97184442Y-35986145D01*
X97184442Y-35986145D02*
X97198091Y-36001719D01*
X97198091Y-36001719D02*
X97226371Y-36037351D01*
X97226371Y-36037351D02*
X97241283Y-36060993D01*
X97241283Y-36060993D02*
X97244601Y-36071942D01*
X97244601Y-36071942D02*
X97243344Y-36095836D01*
X97243344Y-36095836D02*
X97239526Y-36149921D01*
X97239526Y-36149921D02*
X97233393Y-36231084D01*
X97233393Y-36231084D02*
X97225193Y-36336212D01*
X97225193Y-36336212D02*
X97215173Y-36462194D01*
X97215173Y-36462194D02*
X97203580Y-36605917D01*
X97203580Y-36605917D02*
X97190660Y-36764268D01*
X97190660Y-36764268D02*
X97176662Y-36934135D01*
X97176662Y-36934135D02*
X97165381Y-37069894D01*
X97165381Y-37069894D02*
X97101550Y-37835316D01*
X97101550Y-37835316D02*
X97265796Y-37835316D01*
X97265796Y-37835316D02*
X97266503Y-37818798D01*
X97266503Y-37818798D02*
X97269831Y-37772277D01*
X97269831Y-37772277D02*
X97275510Y-37699044D01*
X97275510Y-37699044D02*
X97283274Y-37602394D01*
X97283274Y-37602394D02*
X97292857Y-37485617D01*
X97292857Y-37485617D02*
X97303989Y-37352008D01*
X97303989Y-37352008D02*
X97316405Y-37204859D01*
X97316405Y-37204859D02*
X97328320Y-37065151D01*
X97328320Y-37065151D02*
X97341816Y-36906635D01*
X97341816Y-36906635D02*
X97354387Y-36757001D01*
X97354387Y-36757001D02*
X97365745Y-36619820D01*
X97365745Y-36619820D02*
X97375602Y-36498663D01*
X97375602Y-36498663D02*
X97383670Y-36397102D01*
X97383670Y-36397102D02*
X97389660Y-36318710D01*
X97389660Y-36318710D02*
X97393285Y-36267059D01*
X97393285Y-36267059D02*
X97394291Y-36246999D01*
X97394291Y-36246999D02*
X97395860Y-36234514D01*
X97395860Y-36234514D02*
X97402078Y-36229560D01*
X97402078Y-36229560D02*
X97415341Y-36234204D01*
X97415341Y-36234204D02*
X97438047Y-36250513D01*
X97438047Y-36250513D02*
X97472592Y-36280554D01*
X97472592Y-36280554D02*
X97521373Y-36326395D01*
X97521373Y-36326395D02*
X97586787Y-36390102D01*
X97586787Y-36390102D02*
X97671231Y-36473743D01*
X97671231Y-36473743D02*
X97760829Y-36563123D01*
X97760829Y-36563123D02*
X98127226Y-36929236D01*
X98127226Y-36929236D02*
X98124659Y-36931988D01*
X98124659Y-36931988D02*
X98366849Y-36931988D01*
X98366849Y-36931988D02*
X98377887Y-36916872D01*
X98377887Y-36916872D02*
X98408787Y-36881280D01*
X98408787Y-36881280D02*
X98456453Y-36828481D01*
X98456453Y-36828481D02*
X98517787Y-36761749D01*
X98517787Y-36761749D02*
X98589693Y-36684352D01*
X98589693Y-36684352D02*
X98669073Y-36599564D01*
X98669073Y-36599564D02*
X98752831Y-36510655D01*
X98752831Y-36510655D02*
X98837870Y-36420896D01*
X98837870Y-36420896D02*
X98921092Y-36333558D01*
X98921092Y-36333558D02*
X98999401Y-36251913D01*
X98999401Y-36251913D02*
X99069700Y-36179231D01*
X99069700Y-36179231D02*
X99128891Y-36118785D01*
X99128891Y-36118785D02*
X99173878Y-36073844D01*
X99173878Y-36073844D02*
X99201564Y-36047680D01*
X99201564Y-36047680D02*
X99209114Y-36042350D01*
X99209114Y-36042350D02*
X99211603Y-36059555D01*
X99211603Y-36059555D02*
X99216770Y-36107074D01*
X99216770Y-36107074D02*
X99224330Y-36181933D01*
X99224330Y-36181933D02*
X99234000Y-36281158D01*
X99234000Y-36281158D02*
X99245495Y-36401773D01*
X99245495Y-36401773D02*
X99258531Y-36540804D01*
X99258531Y-36540804D02*
X99272824Y-36695277D01*
X99272824Y-36695277D02*
X99288090Y-36862216D01*
X99288090Y-36862216D02*
X99300279Y-36996825D01*
X99300279Y-36996825D02*
X99315871Y-37171368D01*
X99315871Y-37171368D02*
X99330277Y-37335795D01*
X99330277Y-37335795D02*
X99343253Y-37487123D01*
X99343253Y-37487123D02*
X99354559Y-37622369D01*
X99354559Y-37622369D02*
X99363952Y-37738552D01*
X99363952Y-37738552D02*
X99371189Y-37832687D01*
X99371189Y-37832687D02*
X99376028Y-37901792D01*
X99376028Y-37901792D02*
X99378227Y-37942884D01*
X99378227Y-37942884D02*
X99377976Y-37953554D01*
X99377976Y-37953554D02*
X99364830Y-37944050D01*
X99364830Y-37944050D02*
X99331354Y-37913502D01*
X99331354Y-37913502D02*
X99280474Y-37864866D01*
X99280474Y-37864866D02*
X99215117Y-37801099D01*
X99215117Y-37801099D02*
X99138209Y-37725157D01*
X99138209Y-37725157D02*
X99052676Y-37639998D01*
X99052676Y-37639998D02*
X98961446Y-37548577D01*
X98961446Y-37548577D02*
X98867444Y-37453853D01*
X98867444Y-37453853D02*
X98773598Y-37358781D01*
X98773598Y-37358781D02*
X98682833Y-37266319D01*
X98682833Y-37266319D02*
X98598077Y-37179423D01*
X98598077Y-37179423D02*
X98522256Y-37101050D01*
X98522256Y-37101050D02*
X98458297Y-37034157D01*
X98458297Y-37034157D02*
X98409126Y-36981700D01*
X98409126Y-36981700D02*
X98377669Y-36946637D01*
X98377669Y-36946637D02*
X98366849Y-36931988D01*
X98366849Y-36931988D02*
X98124659Y-36931988D01*
X98124659Y-36931988D02*
X97990598Y-37075662D01*
X97990598Y-37075662D02*
X97921016Y-37149974D01*
X97921016Y-37149974D02*
X97842919Y-37232939D01*
X97842919Y-37232939D02*
X97759394Y-37321320D01*
X97759394Y-37321320D02*
X97673530Y-37411881D01*
X97673530Y-37411881D02*
X97588415Y-37501386D01*
X97588415Y-37501386D02*
X97507136Y-37586599D01*
X97507136Y-37586599D02*
X97432781Y-37664283D01*
X97432781Y-37664283D02*
X97368437Y-37731202D01*
X97368437Y-37731202D02*
X97317194Y-37784119D01*
X97317194Y-37784119D02*
X97282137Y-37819799D01*
X97282137Y-37819799D02*
X97266356Y-37835006D01*
X97266356Y-37835006D02*
X97265796Y-37835316D01*
X97265796Y-37835316D02*
X97101550Y-37835316D01*
X97101550Y-37835316D02*
X97085596Y-38026615D01*
X97085596Y-38026615D02*
X96287514Y-38865937D01*
X96287514Y-38865937D02*
X95489432Y-39705258D01*
X95489432Y-39705258D02*
X95490019Y-39822570D01*
X95490019Y-39822570D02*
X95490606Y-39939883D01*
X95490606Y-39939883D02*
X95619525Y-39802169D01*
X95619525Y-39802169D02*
X95691676Y-39725359D01*
X95691676Y-39725359D02*
X95776860Y-39635118D01*
X95776860Y-39635118D02*
X95872779Y-39533847D01*
X95872779Y-39533847D02*
X95977134Y-39423946D01*
X95977134Y-39423946D02*
X96087626Y-39307818D01*
X96087626Y-39307818D02*
X96201956Y-39187864D01*
X96201956Y-39187864D02*
X96317825Y-39066486D01*
X96317825Y-39066486D02*
X96432935Y-38946084D01*
X96432935Y-38946084D02*
X96544986Y-38829060D01*
X96544986Y-38829060D02*
X96651681Y-38717816D01*
X96651681Y-38717816D02*
X96750720Y-38614753D01*
X96750720Y-38614753D02*
X96839803Y-38522272D01*
X96839803Y-38522272D02*
X96916634Y-38442775D01*
X96916634Y-38442775D02*
X96978912Y-38378664D01*
X96978912Y-38378664D02*
X97024338Y-38332339D01*
X97024338Y-38332339D02*
X97050615Y-38306203D01*
X97050615Y-38306203D02*
X97056374Y-38301189D01*
X97056374Y-38301189D02*
X97056770Y-38318631D01*
X97056770Y-38318631D02*
X97054592Y-38363287D01*
X97054592Y-38363287D02*
X97050217Y-38429082D01*
X97050217Y-38429082D02*
X97044025Y-38509939D01*
X97044025Y-38509939D02*
X97041367Y-38542239D01*
X97041367Y-38542239D02*
X97021572Y-38778501D01*
X97021572Y-38778501D02*
X97176558Y-38778501D01*
X97176558Y-38778501D02*
X97184560Y-38740902D01*
X97184560Y-38740902D02*
X97188640Y-38711167D01*
X97188640Y-38711167D02*
X97194375Y-38655219D01*
X97194375Y-38655219D02*
X97201099Y-38580186D01*
X97201099Y-38580186D02*
X97208152Y-38493197D01*
X97208152Y-38493197D02*
X97210593Y-38461001D01*
X97210593Y-38461001D02*
X97217792Y-38368561D01*
X97217792Y-38368561D02*
X97225058Y-38282715D01*
X97225058Y-38282715D02*
X97231664Y-38211575D01*
X97231664Y-38211575D02*
X97236884Y-38163253D01*
X97236884Y-38163253D02*
X97238061Y-38154483D01*
X97238061Y-38154483D02*
X97242502Y-38136480D01*
X97242502Y-38136480D02*
X97252113Y-38115405D01*
X97252113Y-38115405D02*
X97268940Y-38088897D01*
X97268940Y-38088897D02*
X97295025Y-38054594D01*
X97295025Y-38054594D02*
X97332413Y-38010133D01*
X97332413Y-38010133D02*
X97383146Y-37953151D01*
X97383146Y-37953151D02*
X97449270Y-37881286D01*
X97449270Y-37881286D02*
X97532826Y-37792176D01*
X97532826Y-37792176D02*
X97635860Y-37683458D01*
X97635860Y-37683458D02*
X97740967Y-37573147D01*
X97740967Y-37573147D02*
X97845538Y-37463981D01*
X97845538Y-37463981D02*
X97943151Y-37362882D01*
X97943151Y-37362882D02*
X98031378Y-37272307D01*
X98031378Y-37272307D02*
X98107788Y-37194714D01*
X98107788Y-37194714D02*
X98169951Y-37132560D01*
X98169951Y-37132560D02*
X98215437Y-37088304D01*
X98215437Y-37088304D02*
X98241817Y-37064404D01*
X98241817Y-37064404D02*
X98247443Y-37060848D01*
X98247443Y-37060848D02*
X98262243Y-37073741D01*
X98262243Y-37073741D02*
X98296839Y-37107362D01*
X98296839Y-37107362D02*
X98347871Y-37158340D01*
X98347871Y-37158340D02*
X98411983Y-37223302D01*
X98411983Y-37223302D02*
X98485816Y-37298874D01*
X98485816Y-37298874D02*
X98539211Y-37353929D01*
X98539211Y-37353929D02*
X98817973Y-37642185D01*
X98817973Y-37642185D02*
X97996010Y-37642185D01*
X97996010Y-37642185D02*
X97996010Y-37959685D01*
X97996010Y-37959685D02*
X98998642Y-37959685D01*
X98998642Y-37959685D02*
X98998642Y-37818216D01*
X98998642Y-37818216D02*
X99182458Y-38001462D01*
X99182458Y-38001462D02*
X99312852Y-38131451D01*
X99312852Y-38131451D02*
X99566800Y-38131451D01*
X99566800Y-38131451D02*
X99569229Y-38110945D01*
X99569229Y-38110945D02*
X99581524Y-38099520D01*
X99581524Y-38099520D02*
X99611196Y-38094542D01*
X99611196Y-38094542D02*
X99665755Y-38093378D01*
X99665755Y-38093378D02*
X99675418Y-38093370D01*
X99675418Y-38093370D02*
X99784037Y-38093370D01*
X99784037Y-38093370D02*
X99784037Y-38384838D01*
X99784037Y-38384838D02*
X99675418Y-38277185D01*
X99675418Y-38277185D02*
X99614146Y-38211735D01*
X99614146Y-38211735D02*
X99577499Y-38161593D01*
X99577499Y-38161593D02*
X99566800Y-38131451D01*
X99566800Y-38131451D02*
X99312852Y-38131451D01*
X99312852Y-38131451D02*
X99366274Y-38184707D01*
X99366274Y-38184707D02*
X99366274Y-38347920D01*
X99366274Y-38347920D02*
X99366785Y-38423008D01*
X99366785Y-38423008D02*
X99369128Y-38470777D01*
X99369128Y-38470777D02*
X99374511Y-38497324D01*
X99374511Y-38497324D02*
X99384144Y-38508743D01*
X99384144Y-38508743D02*
X99398671Y-38511133D01*
X99398671Y-38511133D02*
X99414827Y-38514642D01*
X99414827Y-38514642D02*
X99426769Y-38528711D01*
X99426769Y-38528711D02*
X99435939Y-38558653D01*
X99435939Y-38558653D02*
X99443782Y-38609780D01*
X99443782Y-38609780D02*
X99451742Y-38687405D01*
X99451742Y-38687405D02*
X99454296Y-38715837D01*
X99454296Y-38715837D02*
X99459826Y-38778501D01*
X99459826Y-38778501D02*
X97176558Y-38778501D01*
X97176558Y-38778501D02*
X97021572Y-38778501D01*
X97021572Y-38778501D02*
X96809563Y-38778501D01*
X96809563Y-38778501D02*
X96809563Y-38928896D01*
X96809563Y-38928896D02*
X96899659Y-38928896D01*
X96899659Y-38928896D02*
X96952355Y-38930339D01*
X96952355Y-38930339D02*
X96980988Y-38937306D01*
X96980988Y-38937306D02*
X96984491Y-38941452D01*
X96984491Y-38941452D02*
X97169034Y-38941452D01*
X97169034Y-38941452D02*
X97178746Y-38931980D01*
X97178746Y-38931980D02*
X97212388Y-38929056D01*
X97212388Y-38929056D02*
X97235094Y-38928896D01*
X97235094Y-38928896D02*
X97310879Y-38928896D01*
X97310879Y-38928896D02*
X97593494Y-38928896D01*
X97593494Y-38928896D02*
X99473319Y-38928896D01*
X99473319Y-38928896D02*
X99409738Y-38994009D01*
X99409738Y-38994009D02*
X99310986Y-39074360D01*
X99310986Y-39074360D02*
X99188768Y-39136333D01*
X99188768Y-39136333D02*
X99041013Y-39180776D01*
X99041013Y-39180776D02*
X98894201Y-39205357D01*
X98894201Y-39205357D02*
X98798116Y-39216826D01*
X98798116Y-39216826D02*
X98798116Y-39096001D01*
X98798116Y-39096001D02*
X98029432Y-39096001D01*
X98029432Y-39096001D02*
X98029432Y-39233077D01*
X98029432Y-39233077D02*
X97916635Y-39221646D01*
X97916635Y-39221646D02*
X97837825Y-39211997D01*
X97837825Y-39211997D02*
X97753857Y-39199208D01*
X97753857Y-39199208D02*
X97703576Y-39190074D01*
X97703576Y-39190074D02*
X97603313Y-39169934D01*
X97603313Y-39169934D02*
X97598403Y-39049415D01*
X97598403Y-39049415D02*
X97593494Y-38928896D01*
X97593494Y-38928896D02*
X97310879Y-38928896D01*
X97310879Y-38928896D02*
X97310879Y-38995738D01*
X97310879Y-38995738D02*
X97308669Y-39037612D01*
X97308669Y-39037612D02*
X97303150Y-39060886D01*
X97303150Y-39060886D02*
X97300926Y-39062580D01*
X97300926Y-39062580D02*
X97276187Y-39051862D01*
X97276187Y-39051862D02*
X97240043Y-39025859D01*
X97240043Y-39025859D02*
X97203810Y-38993799D01*
X97203810Y-38993799D02*
X97178801Y-38964911D01*
X97178801Y-38964911D02*
X97176573Y-38961155D01*
X97176573Y-38961155D02*
X97169034Y-38941452D01*
X97169034Y-38941452D02*
X96984491Y-38941452D01*
X96984491Y-38941452D02*
X96994881Y-38953748D01*
X96994881Y-38953748D02*
X97000489Y-38971660D01*
X97000489Y-38971660D02*
X97023378Y-39018143D01*
X97023378Y-39018143D02*
X97067340Y-39074022D01*
X97067340Y-39074022D02*
X97124811Y-39131462D01*
X97124811Y-39131462D02*
X97188227Y-39182629D01*
X97188227Y-39182629D02*
X97229882Y-39209279D01*
X97229882Y-39209279D02*
X97277334Y-39238450D01*
X97277334Y-39238450D02*
X97301659Y-39262955D01*
X97301659Y-39262955D02*
X97310205Y-39291850D01*
X97310205Y-39291850D02*
X97310862Y-39309060D01*
X97310862Y-39309060D02*
X97310863Y-39313238D01*
X97310863Y-39313238D02*
X98163116Y-39313238D01*
X98163116Y-39313238D02*
X98163116Y-39229685D01*
X98163116Y-39229685D02*
X98664432Y-39229685D01*
X98664432Y-39229685D02*
X98664432Y-39313238D01*
X98664432Y-39313238D02*
X98163116Y-39313238D01*
X98163116Y-39313238D02*
X97310863Y-39313238D01*
X97310863Y-39313238D02*
X97310879Y-39363370D01*
X97310879Y-39363370D02*
X97451526Y-39363370D01*
X97451526Y-39363370D02*
X97516236Y-39361805D01*
X97516236Y-39361805D02*
X97566670Y-39357637D01*
X97566670Y-39357637D02*
X97594706Y-39351649D01*
X97594706Y-39351649D02*
X97597743Y-39349225D01*
X97597743Y-39349225D02*
X97615527Y-39345504D01*
X97615527Y-39345504D02*
X97658808Y-39347028D01*
X97658808Y-39347028D02*
X97720149Y-39353347D01*
X97720149Y-39353347D02*
X97762063Y-39359182D01*
X97762063Y-39359182D02*
X97838063Y-39370644D01*
X97838063Y-39370644D02*
X97907570Y-39380992D01*
X97907570Y-39380992D02*
X97959803Y-39388626D01*
X97959803Y-39388626D02*
X97975122Y-39390795D01*
X97975122Y-39390795D02*
X98015147Y-39403190D01*
X98015147Y-39403190D02*
X98029432Y-39422614D01*
X98029432Y-39422614D02*
X98033775Y-39430524D01*
X98033775Y-39430524D02*
X98049310Y-39436559D01*
X98049310Y-39436559D02*
X98079799Y-39440956D01*
X98079799Y-39440956D02*
X98129000Y-39443953D01*
X98129000Y-39443953D02*
X98200674Y-39445787D01*
X98200674Y-39445787D02*
X98298581Y-39446697D01*
X98298581Y-39446697D02*
X98413774Y-39446922D01*
X98413774Y-39446922D02*
X98536714Y-39446794D01*
X98536714Y-39446794D02*
X98630241Y-39446192D01*
X98630241Y-39446192D02*
X98698360Y-39444783D01*
X98698360Y-39444783D02*
X98745081Y-39442241D01*
X98745081Y-39442241D02*
X98774409Y-39438233D01*
X98774409Y-39438233D02*
X98790351Y-39432431D01*
X98790351Y-39432431D02*
X98796915Y-39424505D01*
X98796915Y-39424505D02*
X98798116Y-39415289D01*
X98798116Y-39415289D02*
X98808340Y-39386037D01*
X98808340Y-39386037D02*
X98841830Y-39369391D01*
X98841830Y-39369391D02*
X98902812Y-39363454D01*
X98902812Y-39363454D02*
X98913783Y-39363370D01*
X98913783Y-39363370D02*
X99017054Y-39352716D01*
X99017054Y-39352716D02*
X99134347Y-39323389D01*
X99134347Y-39323389D02*
X99255085Y-39279338D01*
X99255085Y-39279338D02*
X99368689Y-39224511D01*
X99368689Y-39224511D02*
X99464581Y-39162858D01*
X99464581Y-39162858D02*
X99477001Y-39153090D01*
X99477001Y-39153090D02*
X99517482Y-39121307D01*
X99517482Y-39121307D02*
X99541455Y-39108578D01*
X99541455Y-39108578D02*
X99558196Y-39112693D01*
X99558196Y-39112693D02*
X99575381Y-39129672D01*
X99575381Y-39129672D02*
X99626136Y-39162930D01*
X99626136Y-39162930D02*
X99692193Y-39175697D01*
X99692193Y-39175697D02*
X99763326Y-39169057D01*
X99763326Y-39169057D02*
X99829314Y-39144095D01*
X99829314Y-39144095D02*
X99879932Y-39101893D01*
X99879932Y-39101893D02*
X99883597Y-39096988D01*
X99883597Y-39096988D02*
X99921472Y-39018211D01*
X99921472Y-39018211D02*
X99928519Y-38936668D01*
X99928519Y-38936668D02*
X99905515Y-38858935D01*
X99905515Y-38858935D02*
X99853237Y-38791587D01*
X99853237Y-38791587D02*
X99846844Y-38786026D01*
X99846844Y-38786026D02*
X99809727Y-38759609D01*
X99809727Y-38759609D02*
X99772067Y-38747975D01*
X99772067Y-38747975D02*
X99719124Y-38747135D01*
X99719124Y-38747135D02*
X99705898Y-38747880D01*
X99705898Y-38747880D02*
X99654097Y-38749781D01*
X99654097Y-38749781D02*
X99627414Y-38745426D01*
X99627414Y-38745426D02*
X99617755Y-38732284D01*
X99617755Y-38732284D02*
X99616763Y-38720014D01*
X99616763Y-38720014D02*
X99614739Y-38684420D01*
X99614739Y-38684420D02*
X99609714Y-38630889D01*
X99609714Y-38630889D02*
X99606103Y-38598863D01*
X99606103Y-38598863D02*
X99600866Y-38547995D01*
X99600866Y-38547995D02*
X99603044Y-38521954D01*
X99603044Y-38521954D02*
X99615675Y-38512436D01*
X99615675Y-38512436D02*
X99638175Y-38511133D01*
X99638175Y-38511133D02*
X99651518Y-38515436D01*
X99651518Y-38515436D02*
X99673044Y-38529365D01*
X99673044Y-38529365D02*
X99704348Y-38554445D01*
X99704348Y-38554445D02*
X99747024Y-38592203D01*
X99747024Y-38592203D02*
X99802668Y-38644166D01*
X99802668Y-38644166D02*
X99872875Y-38711860D01*
X99872875Y-38711860D02*
X99959240Y-38796811D01*
X99959240Y-38796811D02*
X100063358Y-38900547D01*
X100063358Y-38900547D02*
X100186825Y-39024594D01*
X100186825Y-39024594D02*
X100331236Y-39170478D01*
X100331236Y-39170478D02*
X100400831Y-39240973D01*
X100400831Y-39240973D02*
X101120879Y-39970812D01*
X101120879Y-39970812D02*
X101120056Y-39855085D01*
X101120056Y-39855085D02*
X101120056Y-39855085D01*
G36*
X97310205Y-39291850D02*
G01*
X97301659Y-39262955D01*
X97277334Y-39238450D01*
X97229882Y-39209279D01*
X97188227Y-39182629D01*
X97124811Y-39131462D01*
X97067340Y-39074022D01*
X97023378Y-39018143D01*
X97000489Y-38971660D01*
X96994881Y-38953748D01*
X96984491Y-38941452D01*
X97169034Y-38941452D01*
X97176573Y-38961155D01*
X97178801Y-38964911D01*
X97203810Y-38993799D01*
X97240043Y-39025859D01*
X97276187Y-39051862D01*
X97300926Y-39062580D01*
X97303150Y-39060886D01*
X97308669Y-39037612D01*
X97310879Y-38995738D01*
X97310879Y-38928896D01*
X97593494Y-38928896D01*
X97598403Y-39049415D01*
X97603313Y-39169934D01*
X97703576Y-39190074D01*
X97753857Y-39199208D01*
X97837825Y-39211997D01*
X97916635Y-39221646D01*
X98029432Y-39233077D01*
X98029432Y-39096001D01*
X98798116Y-39096001D01*
X98798116Y-39216826D01*
X98894201Y-39205357D01*
X99041013Y-39180776D01*
X99188768Y-39136333D01*
X99310986Y-39074360D01*
X99409738Y-38994009D01*
X99473319Y-38928896D01*
X97593494Y-38928896D01*
X97310879Y-38928896D01*
X97235094Y-38928896D01*
X97212388Y-38929056D01*
X97178746Y-38931980D01*
X97169034Y-38941452D01*
X96984491Y-38941452D01*
X96980988Y-38937306D01*
X96952355Y-38930339D01*
X96899659Y-38928896D01*
X96809563Y-38928896D01*
X96809563Y-38778501D01*
X97021572Y-38778501D01*
X97176558Y-38778501D01*
X99459826Y-38778501D01*
X99454296Y-38715837D01*
X99451742Y-38687405D01*
X99443782Y-38609780D01*
X99435939Y-38558653D01*
X99426769Y-38528711D01*
X99414827Y-38514642D01*
X99398671Y-38511133D01*
X99384144Y-38508743D01*
X99374511Y-38497324D01*
X99369128Y-38470777D01*
X99366785Y-38423008D01*
X99366274Y-38347920D01*
X99366274Y-38184707D01*
X99312852Y-38131451D01*
X99566800Y-38131451D01*
X99577499Y-38161593D01*
X99614146Y-38211735D01*
X99675418Y-38277185D01*
X99784037Y-38384838D01*
X99784037Y-38093370D01*
X99675418Y-38093370D01*
X99665755Y-38093378D01*
X99611196Y-38094542D01*
X99581524Y-38099520D01*
X99569229Y-38110945D01*
X99566800Y-38131451D01*
X99312852Y-38131451D01*
X99182458Y-38001462D01*
X98998642Y-37818216D01*
X98998642Y-37959685D01*
X97996010Y-37959685D01*
X97996010Y-37642185D01*
X98817973Y-37642185D01*
X98539211Y-37353929D01*
X98485816Y-37298874D01*
X98411983Y-37223302D01*
X98347871Y-37158340D01*
X98296839Y-37107362D01*
X98262243Y-37073741D01*
X98247443Y-37060848D01*
X98241817Y-37064404D01*
X98215437Y-37088304D01*
X98169951Y-37132560D01*
X98107788Y-37194714D01*
X98031378Y-37272307D01*
X97943151Y-37362882D01*
X97845538Y-37463981D01*
X97740967Y-37573147D01*
X97635860Y-37683458D01*
X97532826Y-37792176D01*
X97449270Y-37881286D01*
X97383146Y-37953151D01*
X97332413Y-38010133D01*
X97295025Y-38054594D01*
X97268940Y-38088897D01*
X97252113Y-38115405D01*
X97242502Y-38136480D01*
X97238061Y-38154483D01*
X97236884Y-38163253D01*
X97231664Y-38211575D01*
X97225058Y-38282715D01*
X97217792Y-38368561D01*
X97210593Y-38461001D01*
X97208152Y-38493197D01*
X97201099Y-38580186D01*
X97194375Y-38655219D01*
X97188640Y-38711167D01*
X97184560Y-38740902D01*
X97176558Y-38778501D01*
X97021572Y-38778501D01*
X97041367Y-38542239D01*
X97044025Y-38509939D01*
X97050217Y-38429082D01*
X97054592Y-38363287D01*
X97056770Y-38318631D01*
X97056374Y-38301189D01*
X97050615Y-38306203D01*
X97024338Y-38332339D01*
X96978912Y-38378664D01*
X96916634Y-38442775D01*
X96839803Y-38522272D01*
X96750720Y-38614753D01*
X96651681Y-38717816D01*
X96544986Y-38829060D01*
X96432935Y-38946084D01*
X96317825Y-39066486D01*
X96201956Y-39187864D01*
X96087626Y-39307818D01*
X95977134Y-39423946D01*
X95872779Y-39533847D01*
X95776860Y-39635118D01*
X95691676Y-39725359D01*
X95619525Y-39802169D01*
X95490606Y-39939883D01*
X95490019Y-39822570D01*
X95489432Y-39705258D01*
X96287514Y-38865937D01*
X97085596Y-38026615D01*
X97101550Y-37835316D01*
X97265796Y-37835316D01*
X97266356Y-37835006D01*
X97282137Y-37819799D01*
X97317194Y-37784119D01*
X97368437Y-37731202D01*
X97432781Y-37664283D01*
X97507136Y-37586599D01*
X97588415Y-37501386D01*
X97673530Y-37411881D01*
X97759394Y-37321320D01*
X97842919Y-37232939D01*
X97921016Y-37149974D01*
X97990598Y-37075662D01*
X98124659Y-36931988D01*
X98366849Y-36931988D01*
X98377669Y-36946637D01*
X98409126Y-36981700D01*
X98458297Y-37034157D01*
X98522256Y-37101050D01*
X98598077Y-37179423D01*
X98682833Y-37266319D01*
X98773598Y-37358781D01*
X98867444Y-37453853D01*
X98961446Y-37548577D01*
X99052676Y-37639998D01*
X99138209Y-37725157D01*
X99215117Y-37801099D01*
X99280474Y-37864866D01*
X99331354Y-37913502D01*
X99364830Y-37944050D01*
X99377976Y-37953554D01*
X99378227Y-37942884D01*
X99376028Y-37901792D01*
X99371189Y-37832687D01*
X99363952Y-37738552D01*
X99354559Y-37622369D01*
X99343253Y-37487123D01*
X99330277Y-37335795D01*
X99315871Y-37171368D01*
X99300279Y-36996825D01*
X99288090Y-36862216D01*
X99272824Y-36695277D01*
X99258531Y-36540804D01*
X99245495Y-36401773D01*
X99234000Y-36281158D01*
X99224330Y-36181933D01*
X99216770Y-36107074D01*
X99211603Y-36059555D01*
X99209114Y-36042350D01*
X99201564Y-36047680D01*
X99173878Y-36073844D01*
X99128891Y-36118785D01*
X99069700Y-36179231D01*
X98999401Y-36251913D01*
X98921092Y-36333558D01*
X98837870Y-36420896D01*
X98752831Y-36510655D01*
X98669073Y-36599564D01*
X98589693Y-36684352D01*
X98517787Y-36761749D01*
X98456453Y-36828481D01*
X98408787Y-36881280D01*
X98377887Y-36916872D01*
X98366849Y-36931988D01*
X98124659Y-36931988D01*
X98127226Y-36929236D01*
X97760829Y-36563123D01*
X97671231Y-36473743D01*
X97586787Y-36390102D01*
X97521373Y-36326395D01*
X97472592Y-36280554D01*
X97438047Y-36250513D01*
X97415341Y-36234204D01*
X97402078Y-36229560D01*
X97395860Y-36234514D01*
X97394291Y-36246999D01*
X97393285Y-36267059D01*
X97389660Y-36318710D01*
X97383670Y-36397102D01*
X97375602Y-36498663D01*
X97365745Y-36619820D01*
X97354387Y-36757001D01*
X97341816Y-36906635D01*
X97328320Y-37065151D01*
X97316405Y-37204859D01*
X97303989Y-37352008D01*
X97292857Y-37485617D01*
X97283274Y-37602394D01*
X97275510Y-37699044D01*
X97269831Y-37772277D01*
X97266503Y-37818798D01*
X97265796Y-37835316D01*
X97101550Y-37835316D01*
X97165381Y-37069894D01*
X97176662Y-36934135D01*
X97190660Y-36764268D01*
X97203580Y-36605917D01*
X97215173Y-36462194D01*
X97225193Y-36336212D01*
X97233393Y-36231084D01*
X97239526Y-36149921D01*
X97243344Y-36095836D01*
X97244601Y-36071942D01*
X97241283Y-36060993D01*
X97226371Y-36037351D01*
X97198091Y-36001719D01*
X97184442Y-35986145D01*
X97421391Y-35986145D01*
X97821268Y-36392224D01*
X97894613Y-36466461D01*
X97984353Y-36556585D01*
X98064860Y-36636647D01*
X98133312Y-36703880D01*
X98186883Y-36755512D01*
X98222748Y-36788776D01*
X98238085Y-36800901D01*
X98248369Y-36795108D01*
X98278999Y-36768747D01*
X98325095Y-36724713D01*
X98382535Y-36666978D01*
X98447195Y-36599511D01*
X98464062Y-36581618D01*
X98539693Y-36501583D01*
X98629816Y-36406445D01*
X98727645Y-36303355D01*
X98826395Y-36199466D01*
X98919280Y-36101929D01*
X98924860Y-36096076D01*
X99011216Y-36005208D01*
X99077110Y-35934845D01*
X99125149Y-35881639D01*
X99157937Y-35842245D01*
X99178080Y-35813314D01*
X99188184Y-35791500D01*
X99190853Y-35773455D01*
X99188694Y-35755833D01*
X99188317Y-35753992D01*
X99170320Y-35712251D01*
X99134372Y-35692802D01*
X99023563Y-35651339D01*
X98924837Y-35582266D01*
X98847189Y-35490898D01*
X98793972Y-35381227D01*
X98768542Y-35257249D01*
X98760119Y-35152317D01*
X97498318Y-35152317D01*
X97489520Y-35189916D01*
X97487964Y-35199143D01*
X97483128Y-35240404D01*
X97476529Y-35307118D01*
X97468658Y-35393969D01*
X97460003Y-35495645D01*
X97451057Y-35606830D01*
X97421391Y-35986145D01*
X97184442Y-35986145D01*
X97154936Y-35952474D01*
X97095401Y-35887994D01*
X97017980Y-35806654D01*
X96921168Y-35706831D01*
X96803458Y-35586902D01*
X96663346Y-35445243D01*
X96571172Y-35352286D01*
X96442681Y-35222627D01*
X96314641Y-35093343D01*
X96190900Y-34968325D01*
X96075308Y-34851463D01*
X95971715Y-34746648D01*
X95883969Y-34657770D01*
X95815919Y-34588720D01*
X95549183Y-34317665D01*
X95597631Y-34267096D01*
X95609057Y-34255703D01*
X95642765Y-34227725D01*
X95665890Y-34216527D01*
X95683995Y-34226087D01*
X95717655Y-34254773D01*
X95758008Y-34295902D01*
X95782570Y-34321880D01*
X95828377Y-34369318D01*
X95893117Y-34435856D01*
X95974505Y-34519159D01*
X96070255Y-34616894D01*
X96178079Y-34726727D01*
X96295692Y-34846326D01*
X96420808Y-34973356D01*
X96551141Y-35105484D01*
X97271969Y-35835690D01*
X97301331Y-35456405D01*
X97307732Y-35375450D01*
X97317079Y-35266629D01*
X97325510Y-35184205D01*
X97333649Y-35123847D01*
X97342121Y-35081222D01*
X97351550Y-35051998D01*
X97362563Y-35031842D01*
X97377975Y-35003672D01*
X97390657Y-34951883D01*
X97394432Y-34877270D01*
X97394432Y-34767975D01*
X97695221Y-34767975D01*
X97695221Y-35001922D01*
X98818968Y-35001922D01*
X98883925Y-34928127D01*
X98901690Y-34908911D01*
X98997969Y-34831710D01*
X99106751Y-34784183D01*
X99224538Y-34767975D01*
X99328473Y-34776568D01*
X99446030Y-34812794D01*
X99546666Y-34877540D01*
X99566280Y-34896044D01*
X99615297Y-34955947D01*
X99658303Y-35025729D01*
X99689142Y-35094513D01*
X99701659Y-35151420D01*
X99701901Y-35159681D01*
X99703701Y-35189951D01*
X99708408Y-35210859D01*
X99718256Y-35220753D01*
X99735477Y-35217978D01*
X99762306Y-35200882D01*
X99800976Y-35167812D01*
X99853720Y-35117115D01*
X99922772Y-35047137D01*
X100010366Y-34956225D01*
X100118735Y-34842727D01*
X100176458Y-34782142D01*
X100272945Y-34680704D01*
X100364232Y-34584533D01*
X100446741Y-34497409D01*
X100516894Y-34423111D01*
X100571115Y-34365419D01*
X100605826Y-34328112D01*
X100700708Y-34224883D01*
X100759351Y-34283370D01*
X100817995Y-34341856D01*
X100092621Y-35102185D01*
X100046884Y-35150159D01*
X99884167Y-35321482D01*
X99744487Y-35469684D01*
X99627427Y-35595224D01*
X99532567Y-35698561D01*
X99459489Y-35780156D01*
X99407774Y-35840467D01*
X99377004Y-35879956D01*
X99366760Y-35899080D01*
X99366759Y-35899193D01*
X99368164Y-35923028D01*
X99372269Y-35976455D01*
X99378752Y-36055838D01*
X99387292Y-36157542D01*
X99397567Y-36277929D01*
X99409256Y-36413365D01*
X99422037Y-36560211D01*
X99435588Y-36714832D01*
X99449588Y-36873592D01*
X99463715Y-37032854D01*
X99477647Y-37188981D01*
X99491064Y-37338339D01*
X99503643Y-37477289D01*
X99515062Y-37602196D01*
X99525001Y-37709424D01*
X99533138Y-37795335D01*
X99539150Y-37856295D01*
X99542717Y-37888666D01*
X99552137Y-37959685D01*
X99917721Y-37959685D01*
X99918159Y-38239587D01*
X99918596Y-38519488D01*
X100518915Y-39129422D01*
X101119233Y-39739356D01*
X101120056Y-39855085D01*
X101120879Y-39970812D01*
X100400831Y-39240973D01*
X100331236Y-39170478D01*
X100186825Y-39024594D01*
X100063358Y-38900547D01*
X99959240Y-38796811D01*
X99872875Y-38711860D01*
X99802668Y-38644166D01*
X99747024Y-38592203D01*
X99704348Y-38554445D01*
X99673044Y-38529365D01*
X99651518Y-38515436D01*
X99638175Y-38511133D01*
X99615675Y-38512436D01*
X99603044Y-38521954D01*
X99600866Y-38547995D01*
X99606103Y-38598863D01*
X99609714Y-38630889D01*
X99614739Y-38684420D01*
X99616763Y-38720014D01*
X99617755Y-38732284D01*
X99627414Y-38745426D01*
X99654097Y-38749781D01*
X99705898Y-38747880D01*
X99719124Y-38747135D01*
X99772067Y-38747975D01*
X99809727Y-38759609D01*
X99846844Y-38786026D01*
X99853237Y-38791587D01*
X99905515Y-38858935D01*
X99928519Y-38936668D01*
X99921472Y-39018211D01*
X99883597Y-39096988D01*
X99879932Y-39101893D01*
X99829314Y-39144095D01*
X99763326Y-39169057D01*
X99692193Y-39175697D01*
X99626136Y-39162930D01*
X99575381Y-39129672D01*
X99558196Y-39112693D01*
X99541455Y-39108578D01*
X99517482Y-39121307D01*
X99477001Y-39153090D01*
X99464581Y-39162858D01*
X99368689Y-39224511D01*
X99255085Y-39279338D01*
X99134347Y-39323389D01*
X99017054Y-39352716D01*
X98913783Y-39363370D01*
X98902812Y-39363454D01*
X98841830Y-39369391D01*
X98808340Y-39386037D01*
X98798116Y-39415289D01*
X98796915Y-39424505D01*
X98790351Y-39432431D01*
X98774409Y-39438233D01*
X98745081Y-39442241D01*
X98698360Y-39444783D01*
X98630241Y-39446192D01*
X98536714Y-39446794D01*
X98413774Y-39446922D01*
X98298581Y-39446697D01*
X98200674Y-39445787D01*
X98129000Y-39443953D01*
X98079799Y-39440956D01*
X98049310Y-39436559D01*
X98033775Y-39430524D01*
X98029432Y-39422614D01*
X98015147Y-39403190D01*
X97975122Y-39390795D01*
X97959803Y-39388626D01*
X97907570Y-39380992D01*
X97838063Y-39370644D01*
X97762063Y-39359182D01*
X97720149Y-39353347D01*
X97658808Y-39347028D01*
X97615527Y-39345504D01*
X97597743Y-39349225D01*
X97594706Y-39351649D01*
X97566670Y-39357637D01*
X97516236Y-39361805D01*
X97451526Y-39363370D01*
X97310879Y-39363370D01*
X97310863Y-39313238D01*
X98163116Y-39313238D01*
X98664432Y-39313238D01*
X98664432Y-39229685D01*
X98163116Y-39229685D01*
X98163116Y-39313238D01*
X97310863Y-39313238D01*
X97310862Y-39309060D01*
X97310205Y-39291850D01*
G37*
X97310205Y-39291850D02*
X97301659Y-39262955D01*
X97277334Y-39238450D01*
X97229882Y-39209279D01*
X97188227Y-39182629D01*
X97124811Y-39131462D01*
X97067340Y-39074022D01*
X97023378Y-39018143D01*
X97000489Y-38971660D01*
X96994881Y-38953748D01*
X96984491Y-38941452D01*
X97169034Y-38941452D01*
X97176573Y-38961155D01*
X97178801Y-38964911D01*
X97203810Y-38993799D01*
X97240043Y-39025859D01*
X97276187Y-39051862D01*
X97300926Y-39062580D01*
X97303150Y-39060886D01*
X97308669Y-39037612D01*
X97310879Y-38995738D01*
X97310879Y-38928896D01*
X97593494Y-38928896D01*
X97598403Y-39049415D01*
X97603313Y-39169934D01*
X97703576Y-39190074D01*
X97753857Y-39199208D01*
X97837825Y-39211997D01*
X97916635Y-39221646D01*
X98029432Y-39233077D01*
X98029432Y-39096001D01*
X98798116Y-39096001D01*
X98798116Y-39216826D01*
X98894201Y-39205357D01*
X99041013Y-39180776D01*
X99188768Y-39136333D01*
X99310986Y-39074360D01*
X99409738Y-38994009D01*
X99473319Y-38928896D01*
X97593494Y-38928896D01*
X97310879Y-38928896D01*
X97235094Y-38928896D01*
X97212388Y-38929056D01*
X97178746Y-38931980D01*
X97169034Y-38941452D01*
X96984491Y-38941452D01*
X96980988Y-38937306D01*
X96952355Y-38930339D01*
X96899659Y-38928896D01*
X96809563Y-38928896D01*
X96809563Y-38778501D01*
X97021572Y-38778501D01*
X97176558Y-38778501D01*
X99459826Y-38778501D01*
X99454296Y-38715837D01*
X99451742Y-38687405D01*
X99443782Y-38609780D01*
X99435939Y-38558653D01*
X99426769Y-38528711D01*
X99414827Y-38514642D01*
X99398671Y-38511133D01*
X99384144Y-38508743D01*
X99374511Y-38497324D01*
X99369128Y-38470777D01*
X99366785Y-38423008D01*
X99366274Y-38347920D01*
X99366274Y-38184707D01*
X99312852Y-38131451D01*
X99566800Y-38131451D01*
X99577499Y-38161593D01*
X99614146Y-38211735D01*
X99675418Y-38277185D01*
X99784037Y-38384838D01*
X99784037Y-38093370D01*
X99675418Y-38093370D01*
X99665755Y-38093378D01*
X99611196Y-38094542D01*
X99581524Y-38099520D01*
X99569229Y-38110945D01*
X99566800Y-38131451D01*
X99312852Y-38131451D01*
X99182458Y-38001462D01*
X98998642Y-37818216D01*
X98998642Y-37959685D01*
X97996010Y-37959685D01*
X97996010Y-37642185D01*
X98817973Y-37642185D01*
X98539211Y-37353929D01*
X98485816Y-37298874D01*
X98411983Y-37223302D01*
X98347871Y-37158340D01*
X98296839Y-37107362D01*
X98262243Y-37073741D01*
X98247443Y-37060848D01*
X98241817Y-37064404D01*
X98215437Y-37088304D01*
X98169951Y-37132560D01*
X98107788Y-37194714D01*
X98031378Y-37272307D01*
X97943151Y-37362882D01*
X97845538Y-37463981D01*
X97740967Y-37573147D01*
X97635860Y-37683458D01*
X97532826Y-37792176D01*
X97449270Y-37881286D01*
X97383146Y-37953151D01*
X97332413Y-38010133D01*
X97295025Y-38054594D01*
X97268940Y-38088897D01*
X97252113Y-38115405D01*
X97242502Y-38136480D01*
X97238061Y-38154483D01*
X97236884Y-38163253D01*
X97231664Y-38211575D01*
X97225058Y-38282715D01*
X97217792Y-38368561D01*
X97210593Y-38461001D01*
X97208152Y-38493197D01*
X97201099Y-38580186D01*
X97194375Y-38655219D01*
X97188640Y-38711167D01*
X97184560Y-38740902D01*
X97176558Y-38778501D01*
X97021572Y-38778501D01*
X97041367Y-38542239D01*
X97044025Y-38509939D01*
X97050217Y-38429082D01*
X97054592Y-38363287D01*
X97056770Y-38318631D01*
X97056374Y-38301189D01*
X97050615Y-38306203D01*
X97024338Y-38332339D01*
X96978912Y-38378664D01*
X96916634Y-38442775D01*
X96839803Y-38522272D01*
X96750720Y-38614753D01*
X96651681Y-38717816D01*
X96544986Y-38829060D01*
X96432935Y-38946084D01*
X96317825Y-39066486D01*
X96201956Y-39187864D01*
X96087626Y-39307818D01*
X95977134Y-39423946D01*
X95872779Y-39533847D01*
X95776860Y-39635118D01*
X95691676Y-39725359D01*
X95619525Y-39802169D01*
X95490606Y-39939883D01*
X95490019Y-39822570D01*
X95489432Y-39705258D01*
X96287514Y-38865937D01*
X97085596Y-38026615D01*
X97101550Y-37835316D01*
X97265796Y-37835316D01*
X97266356Y-37835006D01*
X97282137Y-37819799D01*
X97317194Y-37784119D01*
X97368437Y-37731202D01*
X97432781Y-37664283D01*
X97507136Y-37586599D01*
X97588415Y-37501386D01*
X97673530Y-37411881D01*
X97759394Y-37321320D01*
X97842919Y-37232939D01*
X97921016Y-37149974D01*
X97990598Y-37075662D01*
X98124659Y-36931988D01*
X98366849Y-36931988D01*
X98377669Y-36946637D01*
X98409126Y-36981700D01*
X98458297Y-37034157D01*
X98522256Y-37101050D01*
X98598077Y-37179423D01*
X98682833Y-37266319D01*
X98773598Y-37358781D01*
X98867444Y-37453853D01*
X98961446Y-37548577D01*
X99052676Y-37639998D01*
X99138209Y-37725157D01*
X99215117Y-37801099D01*
X99280474Y-37864866D01*
X99331354Y-37913502D01*
X99364830Y-37944050D01*
X99377976Y-37953554D01*
X99378227Y-37942884D01*
X99376028Y-37901792D01*
X99371189Y-37832687D01*
X99363952Y-37738552D01*
X99354559Y-37622369D01*
X99343253Y-37487123D01*
X99330277Y-37335795D01*
X99315871Y-37171368D01*
X99300279Y-36996825D01*
X99288090Y-36862216D01*
X99272824Y-36695277D01*
X99258531Y-36540804D01*
X99245495Y-36401773D01*
X99234000Y-36281158D01*
X99224330Y-36181933D01*
X99216770Y-36107074D01*
X99211603Y-36059555D01*
X99209114Y-36042350D01*
X99201564Y-36047680D01*
X99173878Y-36073844D01*
X99128891Y-36118785D01*
X99069700Y-36179231D01*
X98999401Y-36251913D01*
X98921092Y-36333558D01*
X98837870Y-36420896D01*
X98752831Y-36510655D01*
X98669073Y-36599564D01*
X98589693Y-36684352D01*
X98517787Y-36761749D01*
X98456453Y-36828481D01*
X98408787Y-36881280D01*
X98377887Y-36916872D01*
X98366849Y-36931988D01*
X98124659Y-36931988D01*
X98127226Y-36929236D01*
X97760829Y-36563123D01*
X97671231Y-36473743D01*
X97586787Y-36390102D01*
X97521373Y-36326395D01*
X97472592Y-36280554D01*
X97438047Y-36250513D01*
X97415341Y-36234204D01*
X97402078Y-36229560D01*
X97395860Y-36234514D01*
X97394291Y-36246999D01*
X97393285Y-36267059D01*
X97389660Y-36318710D01*
X97383670Y-36397102D01*
X97375602Y-36498663D01*
X97365745Y-36619820D01*
X97354387Y-36757001D01*
X97341816Y-36906635D01*
X97328320Y-37065151D01*
X97316405Y-37204859D01*
X97303989Y-37352008D01*
X97292857Y-37485617D01*
X97283274Y-37602394D01*
X97275510Y-37699044D01*
X97269831Y-37772277D01*
X97266503Y-37818798D01*
X97265796Y-37835316D01*
X97101550Y-37835316D01*
X97165381Y-37069894D01*
X97176662Y-36934135D01*
X97190660Y-36764268D01*
X97203580Y-36605917D01*
X97215173Y-36462194D01*
X97225193Y-36336212D01*
X97233393Y-36231084D01*
X97239526Y-36149921D01*
X97243344Y-36095836D01*
X97244601Y-36071942D01*
X97241283Y-36060993D01*
X97226371Y-36037351D01*
X97198091Y-36001719D01*
X97184442Y-35986145D01*
X97421391Y-35986145D01*
X97821268Y-36392224D01*
X97894613Y-36466461D01*
X97984353Y-36556585D01*
X98064860Y-36636647D01*
X98133312Y-36703880D01*
X98186883Y-36755512D01*
X98222748Y-36788776D01*
X98238085Y-36800901D01*
X98248369Y-36795108D01*
X98278999Y-36768747D01*
X98325095Y-36724713D01*
X98382535Y-36666978D01*
X98447195Y-36599511D01*
X98464062Y-36581618D01*
X98539693Y-36501583D01*
X98629816Y-36406445D01*
X98727645Y-36303355D01*
X98826395Y-36199466D01*
X98919280Y-36101929D01*
X98924860Y-36096076D01*
X99011216Y-36005208D01*
X99077110Y-35934845D01*
X99125149Y-35881639D01*
X99157937Y-35842245D01*
X99178080Y-35813314D01*
X99188184Y-35791500D01*
X99190853Y-35773455D01*
X99188694Y-35755833D01*
X99188317Y-35753992D01*
X99170320Y-35712251D01*
X99134372Y-35692802D01*
X99023563Y-35651339D01*
X98924837Y-35582266D01*
X98847189Y-35490898D01*
X98793972Y-35381227D01*
X98768542Y-35257249D01*
X98760119Y-35152317D01*
X97498318Y-35152317D01*
X97489520Y-35189916D01*
X97487964Y-35199143D01*
X97483128Y-35240404D01*
X97476529Y-35307118D01*
X97468658Y-35393969D01*
X97460003Y-35495645D01*
X97451057Y-35606830D01*
X97421391Y-35986145D01*
X97184442Y-35986145D01*
X97154936Y-35952474D01*
X97095401Y-35887994D01*
X97017980Y-35806654D01*
X96921168Y-35706831D01*
X96803458Y-35586902D01*
X96663346Y-35445243D01*
X96571172Y-35352286D01*
X96442681Y-35222627D01*
X96314641Y-35093343D01*
X96190900Y-34968325D01*
X96075308Y-34851463D01*
X95971715Y-34746648D01*
X95883969Y-34657770D01*
X95815919Y-34588720D01*
X95549183Y-34317665D01*
X95597631Y-34267096D01*
X95609057Y-34255703D01*
X95642765Y-34227725D01*
X95665890Y-34216527D01*
X95683995Y-34226087D01*
X95717655Y-34254773D01*
X95758008Y-34295902D01*
X95782570Y-34321880D01*
X95828377Y-34369318D01*
X95893117Y-34435856D01*
X95974505Y-34519159D01*
X96070255Y-34616894D01*
X96178079Y-34726727D01*
X96295692Y-34846326D01*
X96420808Y-34973356D01*
X96551141Y-35105484D01*
X97271969Y-35835690D01*
X97301331Y-35456405D01*
X97307732Y-35375450D01*
X97317079Y-35266629D01*
X97325510Y-35184205D01*
X97333649Y-35123847D01*
X97342121Y-35081222D01*
X97351550Y-35051998D01*
X97362563Y-35031842D01*
X97377975Y-35003672D01*
X97390657Y-34951883D01*
X97394432Y-34877270D01*
X97394432Y-34767975D01*
X97695221Y-34767975D01*
X97695221Y-35001922D01*
X98818968Y-35001922D01*
X98883925Y-34928127D01*
X98901690Y-34908911D01*
X98997969Y-34831710D01*
X99106751Y-34784183D01*
X99224538Y-34767975D01*
X99328473Y-34776568D01*
X99446030Y-34812794D01*
X99546666Y-34877540D01*
X99566280Y-34896044D01*
X99615297Y-34955947D01*
X99658303Y-35025729D01*
X99689142Y-35094513D01*
X99701659Y-35151420D01*
X99701901Y-35159681D01*
X99703701Y-35189951D01*
X99708408Y-35210859D01*
X99718256Y-35220753D01*
X99735477Y-35217978D01*
X99762306Y-35200882D01*
X99800976Y-35167812D01*
X99853720Y-35117115D01*
X99922772Y-35047137D01*
X100010366Y-34956225D01*
X100118735Y-34842727D01*
X100176458Y-34782142D01*
X100272945Y-34680704D01*
X100364232Y-34584533D01*
X100446741Y-34497409D01*
X100516894Y-34423111D01*
X100571115Y-34365419D01*
X100605826Y-34328112D01*
X100700708Y-34224883D01*
X100759351Y-34283370D01*
X100817995Y-34341856D01*
X100092621Y-35102185D01*
X100046884Y-35150159D01*
X99884167Y-35321482D01*
X99744487Y-35469684D01*
X99627427Y-35595224D01*
X99532567Y-35698561D01*
X99459489Y-35780156D01*
X99407774Y-35840467D01*
X99377004Y-35879956D01*
X99366760Y-35899080D01*
X99366759Y-35899193D01*
X99368164Y-35923028D01*
X99372269Y-35976455D01*
X99378752Y-36055838D01*
X99387292Y-36157542D01*
X99397567Y-36277929D01*
X99409256Y-36413365D01*
X99422037Y-36560211D01*
X99435588Y-36714832D01*
X99449588Y-36873592D01*
X99463715Y-37032854D01*
X99477647Y-37188981D01*
X99491064Y-37338339D01*
X99503643Y-37477289D01*
X99515062Y-37602196D01*
X99525001Y-37709424D01*
X99533138Y-37795335D01*
X99539150Y-37856295D01*
X99542717Y-37888666D01*
X99552137Y-37959685D01*
X99917721Y-37959685D01*
X99918159Y-38239587D01*
X99918596Y-38519488D01*
X100518915Y-39129422D01*
X101119233Y-39739356D01*
X101120056Y-39855085D01*
X101120879Y-39970812D01*
X100400831Y-39240973D01*
X100331236Y-39170478D01*
X100186825Y-39024594D01*
X100063358Y-38900547D01*
X99959240Y-38796811D01*
X99872875Y-38711860D01*
X99802668Y-38644166D01*
X99747024Y-38592203D01*
X99704348Y-38554445D01*
X99673044Y-38529365D01*
X99651518Y-38515436D01*
X99638175Y-38511133D01*
X99615675Y-38512436D01*
X99603044Y-38521954D01*
X99600866Y-38547995D01*
X99606103Y-38598863D01*
X99609714Y-38630889D01*
X99614739Y-38684420D01*
X99616763Y-38720014D01*
X99617755Y-38732284D01*
X99627414Y-38745426D01*
X99654097Y-38749781D01*
X99705898Y-38747880D01*
X99719124Y-38747135D01*
X99772067Y-38747975D01*
X99809727Y-38759609D01*
X99846844Y-38786026D01*
X99853237Y-38791587D01*
X99905515Y-38858935D01*
X99928519Y-38936668D01*
X99921472Y-39018211D01*
X99883597Y-39096988D01*
X99879932Y-39101893D01*
X99829314Y-39144095D01*
X99763326Y-39169057D01*
X99692193Y-39175697D01*
X99626136Y-39162930D01*
X99575381Y-39129672D01*
X99558196Y-39112693D01*
X99541455Y-39108578D01*
X99517482Y-39121307D01*
X99477001Y-39153090D01*
X99464581Y-39162858D01*
X99368689Y-39224511D01*
X99255085Y-39279338D01*
X99134347Y-39323389D01*
X99017054Y-39352716D01*
X98913783Y-39363370D01*
X98902812Y-39363454D01*
X98841830Y-39369391D01*
X98808340Y-39386037D01*
X98798116Y-39415289D01*
X98796915Y-39424505D01*
X98790351Y-39432431D01*
X98774409Y-39438233D01*
X98745081Y-39442241D01*
X98698360Y-39444783D01*
X98630241Y-39446192D01*
X98536714Y-39446794D01*
X98413774Y-39446922D01*
X98298581Y-39446697D01*
X98200674Y-39445787D01*
X98129000Y-39443953D01*
X98079799Y-39440956D01*
X98049310Y-39436559D01*
X98033775Y-39430524D01*
X98029432Y-39422614D01*
X98015147Y-39403190D01*
X97975122Y-39390795D01*
X97959803Y-39388626D01*
X97907570Y-39380992D01*
X97838063Y-39370644D01*
X97762063Y-39359182D01*
X97720149Y-39353347D01*
X97658808Y-39347028D01*
X97615527Y-39345504D01*
X97597743Y-39349225D01*
X97594706Y-39351649D01*
X97566670Y-39357637D01*
X97516236Y-39361805D01*
X97451526Y-39363370D01*
X97310879Y-39363370D01*
X97310863Y-39313238D01*
X98163116Y-39313238D01*
X98664432Y-39313238D01*
X98664432Y-39229685D01*
X98163116Y-39229685D01*
X98163116Y-39313238D01*
X97310863Y-39313238D01*
X97310862Y-39309060D01*
X97310205Y-39291850D01*
X100619563Y-31943896D02*
X95940616Y-31943896D01*
X95940616Y-31943896D02*
X95940616Y-33096922D01*
X95940616Y-33096922D02*
X100619563Y-33096922D01*
X100619563Y-33096922D02*
X100619563Y-31943896D01*
X100619563Y-31943896D02*
X100619563Y-31943896D01*
G36*
X100619563Y-33096922D02*
G01*
X95940616Y-33096922D01*
X95940616Y-31943896D01*
X100619563Y-31943896D01*
X100619563Y-33096922D01*
G37*
X100619563Y-33096922D02*
X95940616Y-33096922D01*
X95940616Y-31943896D01*
X100619563Y-31943896D01*
X100619563Y-33096922D01*
M02*
