M48
; DRILL file {KiCad (6.0.0-0)} date Saturday, 11 November 2023 at 14:38:40
; FORMAT={-:-/ absolute / inch / decimal}
; #@! TF.CreationDate,2023-11-11T14:38:40+00:00
; #@! TF.GenerationSoftware,Kicad,Pcbnew,(6.0.0-0)
; #@! TF.FileFunction,Plated,1,4,PTH
FMAT,2
INCH
; #@! TA.AperFunction,Plated,PTH,ViaDrill
T1C0.0157
; #@! TA.AperFunction,Plated,PTH,ComponentDrill
T2C0.0276
; #@! TA.AperFunction,Plated,PTH,ComponentDrill
T3C0.0295
; #@! TA.AperFunction,Plated,PTH,ComponentDrill
T4C0.0300
; #@! TA.AperFunction,Plated,PTH,ComponentDrill
T5C0.0315
; #@! TA.AperFunction,Plated,PTH,ComponentDrill
T6C0.0320
; #@! TA.AperFunction,Plated,PTH,ComponentDrill
T7C0.0394
; #@! TA.AperFunction,Plated,PTH,ComponentDrill
T8C0.0400
; #@! TA.AperFunction,Plated,PTH,ComponentDrill
T9C0.0433
; #@! TA.AperFunction,Plated,PTH,ComponentDrill
T10C0.0512
; #@! TA.AperFunction,Plated,PTH,ComponentDrill
T11C0.0551
; #@! TA.AperFunction,Plated,PTH,ComponentDrill
T12C0.1181
%
G90
G05
T1
X1.7638Y-8.6948
X1.8119Y-3.3368
X1.8219Y-3.5588
X1.8424Y-4.4005
X1.9249Y-5.2118
X1.9368Y-5.6334
X1.9795Y-8.5926
X1.9821Y-5.1665
X2.0136Y-5.1885
X2.1015Y-8.6205
X2.2165Y-2.8799
X2.2661Y-2.6788
X2.2701Y-2.9779
X2.2711Y-4.4795
X2.2711Y-4.5795
X2.2711Y-4.6801
X2.2853Y-4.922
X2.2869Y-3.0795
X2.2885Y-3.4052
X2.4291Y-7.7346
X2.4882Y-5.4682
X2.5131Y-3.5285
X2.5624Y-5.2104
X2.5681Y-7.6727
X2.6056Y-4.1739
X2.6056Y-4.4002
X2.6068Y-4.2742
X2.6097Y-5.2299
X2.618Y-2.9626
X2.6248Y-3.5592
X2.6389Y-6.0731
X2.7035Y-5.1291
X2.7245Y-3.0147
X2.792Y-5.1523
X2.8042Y-5.9067
X2.8823Y-6.0394
X2.9553Y-5.7697
X3.0087Y-5.4413
X3.0588Y-4.2974
X3.0658Y-4.1662
X3.0954Y-5.2295
X3.1088Y-5.6446
X3.1591Y-5.4315
X3.1632Y-5.2389
X3.1956Y-5.6441
X3.2323Y-5.6452
X3.2799Y-5.6466
X3.2869Y-5.8901
X3.3256Y-5.9028
X3.3319Y-6.0602
X3.3795Y-6.1418
X3.382Y-5.2098
X3.4026Y-5.1417
X3.4099Y-2.4942
X3.4129Y-6.0555
X3.4249Y-2.7795
X3.4249Y-3.0795
X3.426Y-5.4954
X3.4434Y-6.1042
X3.5438Y-2.9705
X3.5832Y-5.2094
X3.5835Y-5.4315
X3.585Y-5.8145
X3.6298Y-4.1891
X3.653Y-5.6736
X3.661Y-6.172
X3.7161Y-5.832
X3.8539Y-5.4996
X3.9276Y-2.9961
X4.0129Y-5.5765
X4.0142Y-5.983
X4.0209Y-5.3854
X4.0476Y-4.0789
X4.0804Y-5.873
X4.0809Y-6.0268
X4.1346Y-8.0331
X4.1693Y-5.974
X4.2045Y-5.3151
X4.2077Y-6.055
X4.2115Y-5.9798
X4.2776Y-6.7634
X4.312Y-6.2897
X4.3146Y-5.9717
X4.3386Y-7.7874
X4.363Y-7.6705
X4.4124Y-6.689
X4.4189Y-10.0341
X4.4425Y-6.0378
X4.5013Y-9.545
X4.5444Y-5.9717
X4.5794Y-3.2318
X4.5822Y-4.2028
X4.5907Y-6.2006
X4.631Y-8.3755
X4.6314Y-6.636
X4.6375Y-6.0144
X4.6554Y-3.9015
X4.682Y-9.1642
X4.7958Y-7.8115
X4.8503Y-4.9432
X4.994Y-7.704
X5.0752Y-7.8682
X5.2164Y-6.0383
X5.3365Y-6.124
X5.3583Y-6.172
X5.3616Y-4.017
X5.3817Y-3.4366
X5.3849Y-3.9335
X5.387Y-6.3426
X5.4007Y-5.121
X5.4072Y-6.1712
X5.4081Y-5.8009
X5.4231Y-3.4533
X5.4644Y-9.5668
X5.4655Y-6.152
X5.4828Y-8.1146
X5.5054Y-4.4306
X5.5287Y-3.8881
X5.5293Y-3.9426
X5.5444Y-4.0733
X5.5444Y-4.4206
X5.5463Y-3.3248
X5.5551Y-9.0337
X5.5611Y-6.0489
X5.6041Y-4.416
X5.6217Y-4.5407
X5.6284Y-4.3274
X5.6486Y-5.7398
X5.6544Y-4.4903
X5.6854Y-3.3268
X5.7184Y-4.6557
X5.7425Y-4.9817
X5.7514Y-5.1895
X5.7539Y-4.7508
X5.7631Y-8.0867
X5.7699Y-5.0777
X5.7802Y-4.6069
X5.7845Y-5.6254
X5.8124Y-9.0337
X5.8156Y-3.5517
X5.8232Y-3.4017
X5.8263Y-3.2017
X5.829Y-3.3017
X5.8298Y-4.6063
X5.8298Y-4.6999
X5.8302Y-3.5017
X5.8699Y-4.6896
X5.8774Y-7.0694
X5.878Y-7.5091
X5.8799Y-3.1524
X5.9099Y-4.5547
X5.9251Y-8.2009
X5.932Y-9.02
X5.942Y-9.2491
X5.9612Y-9.3358
X5.9705Y-9.0516
X5.9755Y-4.9584
X6.0461Y-3.4017
X6.0461Y-3.4479
X6.0526Y-3.3596
X6.0537Y-9.4358
X6.0619Y-3.5517
X6.068Y-3.5017
X6.0702Y-7.1792
X6.074Y-9.2768
X6.0748Y-9.02
X6.0759Y-8.05
X6.0762Y-5.5874
X6.0807Y-9.3713
X6.0846Y-2.7945
X6.09Y-6.4421
X6.0992Y-8.0052
X6.0992Y-5.4803
X6.0994Y-6.909
X6.1029Y-7.7013
X6.1232Y-5.3748
X6.1519Y-4.2562
X6.1519Y-6.7374
X6.1751Y-6.2889
X6.1752Y-2.2094
X6.189Y-5.6446
X6.2087Y-9.3844
X6.2104Y-4.3603
X6.2114Y-3.3016
X6.2256Y-9.3491
X6.2344Y-3.6929
X6.2371Y-7.7648
X6.2408Y-5.7145
X6.2409Y-6.8994
X6.3171Y-2.775
X6.3281Y-8.2306
X6.391Y-4.0194
X6.401Y-5.8569
X6.4122Y-8.9852
X6.4691Y-3.8854
X6.4695Y-3.5275
X6.4945Y-4.1296
X6.5156Y-3.3167
X6.5181Y-4.5221
X6.5493Y-6.0375
X6.5496Y-4.6863
X6.5884Y-5.0626
X6.6391Y-4.9022
X6.6783Y-3.2546
X6.7633Y-6.1667
X6.782Y-5.2083
X6.8161Y-9.1327
X6.852Y-2.7685
X6.8594Y-5.226
X6.8614Y-9.1524
X6.8772Y-6.3564
X6.8902Y-6.4331
X6.917Y-7.8282
X6.9195Y-3.4485
X6.9524Y-2.7453
X6.9629Y-6.3426
X6.9683Y-8.37
X7.0278Y-4.3274
X7.0311Y-7.5961
X7.0724Y-5.648
X7.0724Y-5.7188
X7.0737Y-5.3304
X7.1551Y-6.3512
X7.2126Y-4.1002
X7.2152Y-4.3178
X7.2165Y-3.3934
X7.2371Y-3.6159
X7.2393Y-5.8624
X7.2643Y-4.4339
X7.2655Y-6.4884
X7.2787Y-5.4664
X7.3037Y-3.2138
X7.3127Y-3.9013
X7.3623Y-6.3896
X7.372Y-6.2205
X7.3874Y-6.0616
X7.3874Y-6.1617
X7.3906Y-8.0045
X7.4153Y-4.5342
X7.4193Y-8.0286
X7.4238Y-7.818
X7.4327Y-2.7972
X7.4414Y-4.2939
X7.4714Y-5.7623
X7.4783Y-2.5854
X7.4944Y-4.3616
X7.5287Y-3.5031
X7.581Y-5.1033
X7.584Y-7.855
X7.5846Y-4.5437
X7.5853Y-6.3066
X7.6091Y-3.701
X7.6341Y-5.4672
X7.6369Y-7.965
X7.6538Y-7.753
X7.6606Y-7.9146
X7.673Y-7.826
X7.6932Y-3.9033
X7.6971Y-7.9381
X7.7032Y-6.6752
X7.7039Y-4.845
X7.7271Y-8.2724
X7.7363Y-6.2537
X7.7539Y-8.1509
X7.7564Y-3.1388
X7.7593Y-7.2282
X7.779Y-8.0323
X7.794Y-8.6933
X7.802Y-4.5532
X7.8436Y-4.4378
X7.9044Y-3.9707
X7.9606Y-2.748
X8.015Y-2.8016
X8.025Y-2.993
X8.1095Y-5.547
X8.1138Y-6.4884
X8.1369Y-3.0046
X8.1896Y-3.476
X8.1896Y-3.8462
X8.2043Y-3.9461
X8.2124Y-7.8619
X8.2417Y-6.4046
X8.351Y-8.5848
X8.3612Y-4.5104
X8.3765Y-5.1585
X8.3964Y-5.2013
X8.435Y-2.5978
X8.6961Y-2.7972
X8.7134Y-2.5941
X8.9131Y-4.6026
X8.9409Y-2.8366
X9.012Y-4.7055
X9.1223Y-2.9786
X9.1287Y-3.1388
X9.1317Y-6.6129
X9.1574Y-7.465
X9.1574Y-8.3343
X9.2101Y-5.3305
X9.3724Y-3.8869
X9.3726Y-5.2861
X9.4456Y-3.7933
X9.4719Y-1.3949
X9.4736Y-3.8172
X9.726Y-5.7679
X9.8572Y-5.176
X10.0069Y-2.0393
T2
X7.142Y-4.605
X7.142Y-4.705
X7.142Y-4.805
X7.142Y-4.905
X7.142Y-5.005
X7.142Y-5.105
X7.142Y-5.205
X7.142Y-5.305
X7.142Y-5.405
X7.142Y-5.505
X7.142Y-5.605
X7.142Y-5.705
X7.142Y-5.805
X7.242Y-4.605
X7.242Y-4.705
X7.242Y-4.805
X7.242Y-4.905
X7.242Y-5.005
X7.242Y-5.105
X7.242Y-5.205
X7.242Y-5.305
X7.242Y-5.405
X7.242Y-5.505
X7.242Y-5.605
X7.242Y-5.705
X7.242Y-5.805
X7.342Y-4.605
X7.342Y-4.705
X7.342Y-4.805
X7.342Y-4.905
X7.342Y-5.005
X7.342Y-5.105
X7.342Y-5.205
X7.342Y-5.305
X7.342Y-5.405
X7.342Y-5.505
X7.342Y-5.605
X7.342Y-5.705
X7.342Y-5.805
X7.442Y-4.605
X7.442Y-4.705
X7.442Y-4.805
X7.442Y-5.605
X7.442Y-5.705
X7.442Y-5.805
X7.542Y-4.605
X7.542Y-4.705
X7.542Y-4.805
X7.542Y-5.505
X7.542Y-5.605
X7.542Y-5.705
X7.542Y-5.805
X7.642Y-4.605
X7.642Y-4.705
X7.642Y-4.805
X7.642Y-5.605
X7.642Y-5.705
X7.642Y-5.805
X7.742Y-4.605
X7.742Y-4.705
X7.742Y-4.805
X7.742Y-5.605
X7.742Y-5.705
X7.742Y-5.805
X7.842Y-4.605
X7.842Y-4.705
X7.842Y-4.805
X7.842Y-5.605
X7.842Y-5.705
X7.842Y-5.805
X7.942Y-4.605
X7.942Y-4.705
X7.942Y-4.805
X7.942Y-5.605
X7.942Y-5.705
X7.942Y-5.805
X8.042Y-4.605
X8.042Y-4.705
X8.042Y-4.805
X8.042Y-5.105
X8.042Y-5.505
X8.042Y-5.605
X8.042Y-5.705
X8.042Y-5.805
X8.142Y-4.605
X8.142Y-4.705
X8.142Y-4.805
X8.142Y-5.005
X8.142Y-5.105
X8.142Y-5.205
X8.142Y-5.305
X8.142Y-5.405
X8.142Y-5.605
X8.142Y-5.705
X8.142Y-5.805
X8.242Y-4.605
X8.242Y-4.705
X8.242Y-4.805
X8.242Y-4.905
X8.242Y-5.005
X8.242Y-5.105
X8.242Y-5.205
X8.242Y-5.305
X8.242Y-5.405
X8.242Y-5.505
X8.242Y-5.605
X8.242Y-5.705
X8.242Y-5.805
X8.342Y-4.605
X8.342Y-4.705
X8.342Y-4.805
X8.342Y-4.905
X8.342Y-5.005
X8.342Y-5.105
X8.342Y-5.205
X8.342Y-5.305
X8.342Y-5.405
X8.342Y-5.505
X8.342Y-5.605
X8.342Y-5.705
X8.342Y-5.805
T3
X8.672Y-4.765
X8.722Y-4.815
X8.772Y-4.765
T4
X7.442Y-4.905
X7.442Y-5.105
X7.442Y-5.505
X7.542Y-4.905
X8.042Y-4.905
X8.142Y-4.905
X8.142Y-5.505
T5
X1.5195Y-8.536
X1.5195Y-8.636
X1.5195Y-8.736
X1.5195Y-8.836
X1.5512Y-7.145
X1.6295Y-9.036
X1.632Y-5.7
X1.6496Y-7.145
X1.7279Y-9.036
X1.7304Y-5.7
X1.8195Y-8.536
X1.8195Y-8.636
X1.8195Y-8.736
X1.8195Y-8.836
X1.9965Y-1.7205
X2.0441Y-9.0346
X2.0949Y-1.7205
X2.104Y-9.25
X2.104Y-9.35
X2.104Y-9.45
X2.104Y-9.55
X2.104Y-9.65
X2.104Y-9.75
X2.104Y-9.85
X2.104Y-9.95
X2.1425Y-9.0346
X2.214Y-10.15
X2.2161Y-7.58
X2.3124Y-10.15
X2.3146Y-7.58
X2.3323Y-7.76
X2.3323Y-7.86
X2.3323Y-7.96
X2.3323Y-8.06
X2.3323Y-8.16
X2.3323Y-8.26
X2.3323Y-8.36
X2.3323Y-8.46
X2.3323Y-8.56
X2.3323Y-8.66
X2.3323Y-8.76
X2.3323Y-8.86
X2.404Y-9.25
X2.404Y-9.35
X2.404Y-9.45
X2.404Y-9.55
X2.404Y-9.65
X2.404Y-9.75
X2.404Y-9.85
X2.404Y-9.95
X2.554Y-9.25
X2.554Y-9.35
X2.554Y-9.45
X2.554Y-9.55
X2.554Y-9.65
X2.554Y-9.75
X2.554Y-9.85
X2.554Y-9.95
X2.6323Y-7.76
X2.6323Y-7.86
X2.6323Y-7.96
X2.6323Y-8.06
X2.6323Y-8.16
X2.6323Y-8.26
X2.6323Y-8.36
X2.6323Y-8.46
X2.6323Y-8.56
X2.6323Y-8.66
X2.6323Y-8.76
X2.6323Y-8.86
X2.664Y-10.15
X2.7624Y-10.15
X2.776Y-1.712
X2.8391Y-7.76
X2.8391Y-7.86
X2.8391Y-7.96
X2.8391Y-8.06
X2.8391Y-8.16
X2.8391Y-8.26
X2.8391Y-8.36
X2.8391Y-8.46
X2.8391Y-8.56
X2.8391Y-8.66
X2.8391Y-8.76
X2.8391Y-8.86
X2.854Y-9.25
X2.854Y-9.35
X2.854Y-9.45
X2.854Y-9.55
X2.854Y-9.65
X2.854Y-9.75
X2.854Y-9.85
X2.854Y-9.95
X2.8744Y-1.712
X2.9265Y-7.58
X3.0249Y-7.58
X3.1391Y-7.76
X3.1391Y-7.86
X3.1391Y-7.96
X3.1391Y-8.06
X3.1391Y-8.16
X3.1391Y-8.26
X3.1391Y-8.36
X3.1391Y-8.46
X3.1391Y-8.56
X3.1391Y-8.66
X3.1391Y-8.76
X3.1391Y-8.86
X3.194Y-10.37
X3.2924Y-10.37
X3.462Y-7.76
X3.462Y-7.86
X3.462Y-7.96
X3.462Y-8.06
X3.462Y-8.16
X3.462Y-8.26
X3.462Y-8.36
X3.462Y-8.46
X3.462Y-8.56
X3.462Y-8.66
X3.462Y-8.76
X3.462Y-8.86
X3.5675Y-7.58
X3.6659Y-7.58
X3.7536Y-9.015
X3.762Y-7.76
X3.762Y-7.86
X3.762Y-7.96
X3.762Y-8.06
X3.762Y-8.16
X3.762Y-8.26
X3.762Y-8.36
X3.762Y-8.46
X3.762Y-8.56
X3.762Y-8.66
X3.762Y-8.76
X3.762Y-8.86
X3.852Y-9.015
X3.9264Y-7.58
X4.0248Y-7.58
X4.034Y-9.27
X4.034Y-9.57
X4.124Y-9.83
X4.2224Y-9.83
X4.334Y-9.27
X4.334Y-9.57
X4.434Y-7.76
X4.434Y-7.86
X4.434Y-7.96
X4.434Y-8.06
X4.434Y-8.16
X4.434Y-8.26
X4.434Y-8.36
X4.434Y-8.46
X4.434Y-8.56
X4.434Y-8.66
X4.434Y-8.76
X4.434Y-8.86
X4.5344Y-7.58
X4.6328Y-7.58
X4.734Y-7.76
X4.734Y-7.86
X4.734Y-7.96
X4.734Y-8.06
X4.734Y-8.16
X4.734Y-8.26
X4.734Y-8.36
X4.734Y-8.46
X4.734Y-8.56
X4.734Y-8.66
X4.734Y-8.76
X4.734Y-8.86
X4.914Y-7.76
X4.914Y-7.86
X4.914Y-7.96
X4.914Y-8.06
X4.914Y-8.16
X4.914Y-8.26
X4.914Y-8.36
X4.914Y-8.46
X4.914Y-8.56
X4.914Y-8.66
X4.914Y-8.76
X4.914Y-8.86
X5.0144Y-7.58
X5.1128Y-7.58
X5.214Y-7.76
X5.214Y-7.86
X5.214Y-7.96
X5.214Y-8.06
X5.214Y-8.16
X5.214Y-8.26
X5.214Y-8.36
X5.214Y-8.46
X5.214Y-8.56
X5.214Y-8.66
X5.214Y-8.76
X5.214Y-8.86
X5.374Y-9.11
X5.374Y-9.21
X5.374Y-9.31
X5.374Y-9.41
X5.374Y-9.51
X5.374Y-9.61
X5.374Y-9.71
X5.374Y-9.81
X5.374Y-9.91
X5.374Y-10.01
X5.374Y-10.11
X5.374Y-10.21
X5.384Y-7.76
X5.384Y-7.86
X5.384Y-7.96
X5.384Y-8.06
X5.384Y-8.16
X5.384Y-8.26
X5.384Y-8.36
X5.384Y-8.46
X5.384Y-8.56
X5.384Y-8.66
X5.384Y-8.76
X5.384Y-8.86
X5.4744Y-10.41
X5.4844Y-7.58
X5.5728Y-10.41
X5.5828Y-7.58
X5.674Y-9.11
X5.674Y-9.21
X5.674Y-9.31
X5.674Y-9.41
X5.674Y-9.51
X5.674Y-9.61
X5.674Y-9.71
X5.674Y-9.81
X5.674Y-9.91
X5.674Y-10.01
X5.674Y-10.11
X5.674Y-10.21
X5.684Y-7.76
X5.684Y-7.86
X5.684Y-7.96
X5.684Y-8.06
X5.684Y-8.16
X5.684Y-8.26
X5.684Y-8.36
X5.684Y-8.46
X5.684Y-8.56
X5.684Y-8.66
X5.684Y-8.76
X5.684Y-8.86
X5.844Y-9.11
X5.844Y-9.21
X5.844Y-9.31
X5.844Y-9.41
X5.844Y-9.51
X5.844Y-9.61
X5.844Y-9.71
X5.844Y-9.81
X5.844Y-9.91
X5.844Y-10.01
X5.844Y-10.11
X5.844Y-10.21
X5.854Y-7.76
X5.854Y-7.86
X5.854Y-7.96
X5.854Y-8.06
X5.854Y-8.16
X5.854Y-8.26
X5.854Y-8.36
X5.854Y-8.46
X5.854Y-8.56
X5.854Y-8.66
X5.854Y-8.76
X5.854Y-8.86
X5.9444Y-10.41
X5.9544Y-7.58
X6.032Y-2.985
X6.0428Y-10.41
X6.0528Y-7.58
X6.1304Y-2.985
X6.144Y-9.11
X6.144Y-9.21
X6.144Y-9.31
X6.144Y-9.41
X6.144Y-9.51
X6.144Y-9.61
X6.144Y-9.71
X6.144Y-9.81
X6.144Y-9.91
X6.144Y-10.01
X6.144Y-10.11
X6.144Y-10.21
X6.154Y-7.76
X6.154Y-7.86
X6.154Y-7.96
X6.154Y-8.06
X6.154Y-8.16
X6.154Y-8.26
X6.154Y-8.36
X6.154Y-8.46
X6.154Y-8.56
X6.154Y-8.66
X6.154Y-8.76
X6.154Y-8.86
X6.292Y-4.815
X6.292Y-5.115
X6.332Y-1.485
X6.332Y-4.555
X6.352Y-5.675
X6.372Y-6.665
X6.372Y-6.765
X6.372Y-6.865
X6.372Y-6.965
X6.372Y-7.065
X6.372Y-7.165
X6.372Y-7.265
X6.372Y-7.365
X6.372Y-7.465
X6.372Y-7.565
X6.372Y-7.665
X6.372Y-7.765
X6.372Y-7.865
X6.372Y-7.965
X6.372Y-8.065
X6.372Y-8.165
X6.372Y-8.435
X6.372Y-8.535
X6.372Y-8.635
X6.372Y-8.735
X6.372Y-8.835
X6.372Y-8.935
X6.372Y-9.035
X6.372Y-9.135
X6.372Y-9.235
X6.372Y-9.335
X6.372Y-9.435
X6.372Y-9.535
X6.372Y-9.635
X6.372Y-9.735
X6.372Y-9.835
X6.372Y-9.935
X6.4304Y-1.485
X6.4304Y-4.555
X6.4504Y-5.675
X6.592Y-4.815
X6.592Y-5.115
X6.623Y-6.445
X6.623Y-10.135
X6.7214Y-6.445
X6.7214Y-10.135
X6.742Y-6.065
X6.752Y-3.245
X6.752Y-3.345
X6.752Y-3.445
X6.752Y-3.545
X6.752Y-3.645
X6.752Y-3.745
X6.8404Y-6.065
X6.852Y-3.145
X6.852Y-3.245
X6.852Y-3.345
X6.852Y-3.445
X6.852Y-3.545
X6.852Y-3.645
X6.852Y-3.745
X6.852Y-3.845
X6.952Y-3.145
X6.952Y-3.245
X6.952Y-3.745
X6.952Y-3.845
X6.972Y-6.665
X6.972Y-6.765
X6.972Y-6.865
X6.972Y-6.965
X6.972Y-7.065
X6.972Y-7.165
X6.972Y-7.265
X6.972Y-7.365
X6.972Y-7.465
X6.972Y-7.565
X6.972Y-7.665
X6.972Y-7.765
X6.972Y-7.865
X6.972Y-7.965
X6.972Y-8.065
X6.972Y-8.165
X6.972Y-8.435
X6.972Y-8.535
X6.972Y-8.635
X6.972Y-8.735
X6.972Y-8.835
X6.972Y-8.935
X6.972Y-9.035
X6.972Y-9.135
X6.972Y-9.235
X6.972Y-9.335
X6.972Y-9.435
X6.972Y-9.535
X6.972Y-9.635
X6.972Y-9.735
X6.972Y-9.835
X6.972Y-9.935
X7.052Y-3.145
X7.052Y-3.245
X7.052Y-3.745
X7.052Y-3.845
X7.072Y-4.435
X7.132Y-6.065
X7.152Y-3.145
X7.152Y-3.245
X7.152Y-3.745
X7.152Y-3.845
X7.1704Y-4.435
X7.2304Y-6.065
X7.242Y-6.665
X7.242Y-6.765
X7.242Y-6.865
X7.242Y-6.965
X7.242Y-7.065
X7.242Y-7.165
X7.242Y-7.265
X7.242Y-7.365
X7.242Y-7.465
X7.242Y-7.565
X7.242Y-7.665
X7.242Y-7.765
X7.242Y-7.865
X7.242Y-7.965
X7.242Y-8.065
X7.242Y-8.165
X7.242Y-8.435
X7.242Y-8.535
X7.242Y-8.635
X7.242Y-8.735
X7.242Y-8.835
X7.242Y-8.935
X7.242Y-9.035
X7.242Y-9.135
X7.242Y-9.235
X7.242Y-9.335
X7.242Y-9.435
X7.242Y-9.535
X7.242Y-9.635
X7.242Y-9.735
X7.242Y-9.835
X7.242Y-9.935
X7.252Y-3.145
X7.252Y-3.245
X7.252Y-3.745
X7.252Y-3.845
X7.352Y-3.145
X7.352Y-3.245
X7.352Y-3.345
X7.352Y-3.445
X7.352Y-3.545
X7.352Y-3.645
X7.352Y-3.745
X7.352Y-3.845
X7.382Y-4.435
X7.452Y-3.245
X7.452Y-3.345
X7.452Y-3.445
X7.452Y-3.545
X7.452Y-3.645
X7.452Y-3.745
X7.4804Y-4.435
X7.492Y-6.445
X7.493Y-10.135
X7.502Y-6.065
X7.5904Y-6.445
X7.5914Y-10.135
X7.6004Y-6.065
X7.692Y-4.435
X7.772Y-3.625
X7.7904Y-4.435
X7.842Y-6.665
X7.842Y-6.765
X7.842Y-6.865
X7.842Y-6.965
X7.842Y-7.065
X7.842Y-7.165
X7.842Y-7.265
X7.842Y-7.365
X7.842Y-7.465
X7.842Y-7.565
X7.842Y-7.665
X7.842Y-7.765
X7.842Y-7.865
X7.842Y-7.965
X7.842Y-8.065
X7.842Y-8.165
X7.842Y-8.435
X7.842Y-8.535
X7.842Y-8.635
X7.842Y-8.735
X7.842Y-8.835
X7.842Y-8.935
X7.842Y-9.035
X7.842Y-9.135
X7.842Y-9.235
X7.842Y-9.335
X7.842Y-9.435
X7.842Y-9.535
X7.842Y-9.635
X7.842Y-9.735
X7.842Y-9.835
X7.842Y-9.935
X7.862Y-3.045
X7.8704Y-3.625
X7.902Y-6.065
X7.942Y-1.485
X7.9604Y-3.045
X7.962Y-3.625
X8.0004Y-6.065
X8.002Y-4.435
X8.012Y-2.065
X8.022Y-1.745
X8.0404Y-1.485
X8.0604Y-3.625
X8.1004Y-4.435
X8.1104Y-2.065
X8.1204Y-1.745
X8.1273Y-6.665
X8.1273Y-6.765
X8.1273Y-6.865
X8.1273Y-6.965
X8.1273Y-7.065
X8.1273Y-7.165
X8.1273Y-7.265
X8.1273Y-7.365
X8.1273Y-7.465
X8.1273Y-7.565
X8.1273Y-7.665
X8.1273Y-7.765
X8.1273Y-7.865
X8.1273Y-7.965
X8.1273Y-8.065
X8.1273Y-8.165
X8.1273Y-8.435
X8.1273Y-8.535
X8.1273Y-8.635
X8.1273Y-8.735
X8.1273Y-8.835
X8.1273Y-8.935
X8.1273Y-9.035
X8.1273Y-9.135
X8.1273Y-9.235
X8.1273Y-9.335
X8.1273Y-9.435
X8.1273Y-9.535
X8.1273Y-9.635
X8.1273Y-9.735
X8.1273Y-9.835
X8.1273Y-9.935
X8.292Y-6.065
X8.312Y-4.435
X8.3783Y-6.445
X8.3783Y-10.135
X8.3904Y-6.065
X8.4104Y-4.435
X8.4767Y-6.445
X8.4767Y-10.135
X8.572Y-2.085
X8.572Y-2.185
X8.572Y-2.285
X8.572Y-2.385
X8.572Y-2.485
X8.572Y-2.585
X8.572Y-2.685
X8.572Y-2.785
X8.572Y-2.885
X8.572Y-2.985
X8.572Y-3.235
X8.572Y-3.335
X8.572Y-3.435
X8.572Y-3.535
X8.572Y-3.635
X8.572Y-3.735
X8.572Y-3.835
X8.6724Y-1.895
X8.7273Y-6.665
X8.7273Y-6.765
X8.7273Y-6.865
X8.7273Y-6.965
X8.7273Y-7.065
X8.7273Y-7.165
X8.7273Y-7.265
X8.7273Y-7.365
X8.7273Y-7.465
X8.7273Y-7.565
X8.7273Y-7.665
X8.7273Y-7.765
X8.7273Y-7.865
X8.7273Y-7.965
X8.7273Y-8.065
X8.7273Y-8.165
X8.7273Y-8.435
X8.7273Y-8.535
X8.7273Y-8.635
X8.7273Y-8.735
X8.7273Y-8.835
X8.7273Y-8.935
X8.7273Y-9.035
X8.7273Y-9.135
X8.7273Y-9.235
X8.7273Y-9.335
X8.7273Y-9.435
X8.7273Y-9.535
X8.7273Y-9.635
X8.7273Y-9.735
X8.7273Y-9.835
X8.7273Y-9.935
X8.7708Y-1.895
X8.7965Y-6.177
X8.872Y-2.085
X8.872Y-2.185
X8.872Y-2.285
X8.872Y-2.385
X8.872Y-2.485
X8.872Y-2.585
X8.872Y-2.685
X8.872Y-2.785
X8.872Y-2.885
X8.872Y-2.985
X8.872Y-3.235
X8.872Y-3.335
X8.872Y-3.435
X8.872Y-3.535
X8.872Y-3.635
X8.872Y-3.735
X8.872Y-3.835
X8.8949Y-6.177
X8.922Y-1.275
X8.922Y-1.575
X9.0011Y-6.665
X9.0011Y-6.765
X9.0011Y-6.865
X9.0011Y-6.965
X9.0011Y-7.065
X9.0011Y-7.165
X9.0011Y-7.265
X9.0011Y-7.365
X9.0011Y-7.465
X9.0011Y-7.565
X9.0011Y-7.665
X9.0011Y-7.765
X9.0011Y-7.865
X9.0011Y-7.965
X9.0011Y-8.065
X9.0011Y-8.165
X9.0011Y-8.435
X9.0011Y-8.535
X9.0011Y-8.635
X9.0011Y-8.735
X9.0011Y-8.835
X9.0011Y-8.935
X9.0011Y-9.035
X9.0011Y-9.135
X9.0011Y-9.235
X9.0011Y-9.335
X9.0011Y-9.435
X9.0011Y-9.535
X9.0011Y-9.635
X9.0011Y-9.735
X9.0011Y-9.835
X9.0011Y-9.935
X9.0204Y-1.275
X9.0204Y-1.575
X9.252Y-6.055
X9.2521Y-6.445
X9.2521Y-10.135
X9.3504Y-6.055
X9.3505Y-6.445
X9.3505Y-10.135
X9.432Y-5.625
X9.5304Y-5.625
X9.6011Y-6.665
X9.6011Y-6.765
X9.6011Y-6.865
X9.6011Y-6.965
X9.6011Y-7.065
X9.6011Y-7.165
X9.6011Y-7.265
X9.6011Y-7.365
X9.6011Y-7.465
X9.6011Y-7.565
X9.6011Y-7.665
X9.6011Y-7.765
X9.6011Y-7.865
X9.6011Y-7.965
X9.6011Y-8.065
X9.6011Y-8.165
X9.6011Y-8.435
X9.6011Y-8.535
X9.6011Y-8.635
X9.6011Y-8.735
X9.6011Y-8.835
X9.6011Y-8.935
X9.6011Y-9.035
X9.6011Y-9.135
X9.6011Y-9.235
X9.6011Y-9.335
X9.6011Y-9.435
X9.6011Y-9.535
X9.6011Y-9.635
X9.6011Y-9.735
X9.6011Y-9.835
X9.6011Y-9.935
X9.612Y-1.805
X9.612Y-1.905
X9.612Y-2.005
X9.612Y-2.105
X9.612Y-2.205
X9.612Y-2.305
X9.612Y-2.405
X9.612Y-2.505
X9.612Y-2.605
X9.612Y-2.705
X9.612Y-2.915
X9.612Y-3.015
X9.612Y-3.115
X9.612Y-3.215
X9.612Y-3.315
X9.612Y-3.415
X9.612Y-3.515
X9.612Y-3.615
X9.612Y-3.715
X9.612Y-3.815
X9.642Y-4.445
X9.642Y-4.865
X9.672Y-5.215
X9.7704Y-5.215
X9.7798Y-4.445
X9.7798Y-4.865
X9.8205Y-5.5606
X9.912Y-1.805
X9.912Y-1.905
X9.912Y-2.005
X9.912Y-2.105
X9.912Y-2.205
X9.912Y-2.305
X9.912Y-2.405
X9.912Y-2.505
X9.912Y-2.605
X9.912Y-2.705
X9.912Y-2.915
X9.912Y-3.015
X9.912Y-3.115
X9.912Y-3.215
X9.912Y-3.315
X9.912Y-3.415
X9.912Y-3.515
X9.912Y-3.615
X9.912Y-3.715
X9.912Y-3.815
X9.912Y-8.425
X9.912Y-8.745
X9.9583Y-5.5606
X9.992Y-4.445
X10.0104Y-8.425
X10.0104Y-8.745
X10.012Y-4.085
X10.012Y-5.215
X10.062Y-3.665
X10.082Y-2.155
X10.092Y-1.805
X10.092Y-2.425
X10.092Y-2.915
X10.1104Y-4.085
X10.1104Y-5.215
X10.1298Y-4.445
X10.1604Y-3.665
X10.1804Y-2.155
X10.1904Y-1.805
X10.1904Y-2.425
X10.1904Y-2.915
T6
X1.5195Y-8.323
X1.542Y-9.245
X1.542Y-9.645
X1.542Y-9.975
X1.642Y-9.975
X1.812Y-9.245
X1.812Y-9.645
X1.812Y-9.975
X1.912Y-9.975
X1.9195Y-8.323
X2.0385Y-8.7355
X2.039Y-7.9105
X2.039Y-8.3105
X2.1385Y-8.7355
X2.1937Y-7.9105
X2.1937Y-8.3105
X2.574Y-9.05
X2.974Y-9.05
X2.994Y-9.2
X2.994Y-9.3
X2.994Y-9.4
X2.994Y-9.5
X2.994Y-9.6
X2.994Y-9.7
X2.994Y-9.8
X2.994Y-9.9
X2.994Y-10.0
X3.31Y-8.56
X3.31Y-8.96
X3.394Y-9.2
X3.394Y-9.3
X3.394Y-9.4
X3.394Y-9.5
X3.394Y-9.6
X3.394Y-9.7
X3.394Y-9.8
X3.394Y-9.9
X3.394Y-10.0
X3.498Y-9.755
X3.898Y-9.755
X4.812Y-10.2635
X4.812Y-10.3735
X4.812Y-10.4835
X5.212Y-10.2635
X5.212Y-10.3735
X5.212Y-10.4835
X6.292Y-6.113
X6.292Y-6.513
X6.572Y-1.335
X6.572Y-1.735
X6.572Y-5.305
X6.582Y-4.605
X6.772Y-1.345
X6.772Y-1.745
X6.782Y-4.705
X6.782Y-5.105
X6.782Y-5.405
X6.782Y-5.805
X6.882Y-1.345
X6.882Y-1.745
X6.882Y-4.705
X6.882Y-5.105
X6.882Y-5.405
X6.882Y-5.805
X6.972Y-5.305
X6.982Y-4.605
X6.982Y-4.705
X6.982Y-5.105
X6.982Y-5.405
X6.982Y-5.805
X6.992Y-1.345
X6.992Y-1.745
X7.282Y-4.165
X7.392Y-1.325
X7.392Y-1.725
X7.592Y-1.325
X7.592Y-1.725
X7.682Y-4.165
X7.702Y-1.325
X7.702Y-1.725
X7.732Y-3.875
X7.802Y-1.325
X7.802Y-1.725
X7.827Y-3.365
X8.017Y-3.365
X8.132Y-3.875
X8.612Y-5.045
X8.612Y-5.155
X8.612Y-5.265
X8.722Y-4.105
X8.722Y-4.505
X9.012Y-4.545
X9.012Y-4.945
X9.012Y-5.045
X9.012Y-5.155
X9.012Y-5.265
X9.012Y-5.375
X9.012Y-5.775
X9.2091Y-2.8022
X9.2105Y-2.6736
X9.2105Y-2.9336
X9.2105Y-3.0636
X9.2105Y-3.1936
X9.2105Y-3.3236
X9.2105Y-3.4536
X9.2105Y-3.5836
X9.492Y-3.085
X9.4934Y-2.9565
X9.4934Y-3.2165
X9.4934Y-3.3465
X9.4934Y-3.4765
X9.4934Y-3.6065
X9.4934Y-3.7365
X9.4934Y-3.8665
T7
X1.55Y-1.9795
X1.55Y-2.0795
X1.55Y-2.1795
X1.55Y-2.2795
X1.55Y-2.3795
X1.55Y-2.4795
X1.55Y-2.5795
X1.55Y-2.6795
X1.55Y-2.7795
X1.55Y-2.8795
X1.55Y-2.9795
X1.55Y-3.0795
X1.55Y-3.1795
X1.55Y-3.2795
X1.55Y-3.3795
X1.55Y-3.4795
X1.55Y-3.5795
X1.55Y-3.6795
X1.55Y-3.7795
X1.55Y-3.8795
X1.55Y-3.9795
X1.55Y-4.0795
X1.55Y-4.1795
X1.55Y-4.2795
X1.55Y-4.3795
X1.55Y-4.4795
X1.55Y-4.5795
X1.55Y-4.6795
X1.55Y-4.7795
X1.55Y-4.8795
X1.55Y-4.9795
X1.55Y-5.0795
X1.63Y-10.3
X1.63Y-10.4
X1.65Y-1.9795
X1.65Y-2.0795
X1.65Y-2.1795
X1.65Y-2.2795
X1.65Y-2.3795
X1.65Y-2.4795
X1.65Y-2.5795
X1.65Y-2.6795
X1.65Y-2.7795
X1.65Y-2.8795
X1.65Y-2.9795
X1.65Y-3.0795
X1.65Y-3.1795
X1.65Y-3.2795
X1.65Y-3.3795
X1.65Y-3.4795
X1.65Y-3.5795
X1.65Y-3.6795
X1.65Y-3.7795
X1.65Y-3.8795
X1.65Y-3.9795
X1.65Y-4.0795
X1.65Y-4.1795
X1.65Y-4.2795
X1.65Y-4.3795
X1.65Y-4.4795
X1.65Y-4.5795
X1.65Y-4.6795
X1.65Y-4.7795
X1.65Y-4.8795
X1.65Y-4.9795
X1.65Y-5.0795
X1.73Y-10.3
X1.73Y-10.4
X1.75Y-1.9795
X1.75Y-2.0795
X1.75Y-2.1795
X1.75Y-2.2795
X1.75Y-2.3795
X1.75Y-2.4795
X1.75Y-2.5795
X1.75Y-2.6795
X1.75Y-2.7795
X1.75Y-2.8795
X1.75Y-2.9795
X1.75Y-3.0795
X1.75Y-3.1795
X1.75Y-3.2795
X1.75Y-3.3795
X1.75Y-3.4795
X1.75Y-3.5795
X1.75Y-3.6795
X1.75Y-3.7795
X1.75Y-3.8795
X1.75Y-3.9795
X1.75Y-4.0795
X1.75Y-4.1795
X1.75Y-4.2795
X1.75Y-4.3795
X1.75Y-4.4795
X1.75Y-4.5795
X1.75Y-4.6795
X1.75Y-4.7795
X1.75Y-4.8795
X1.75Y-4.9795
X1.75Y-5.0795
X1.83Y-10.3
X1.83Y-10.4
X1.93Y-10.3
X1.93Y-10.4
X2.0015Y-5.711
X2.0015Y-5.811
X2.1015Y-5.711
X2.1015Y-5.811
X2.2015Y-5.711
X2.2015Y-5.811
X2.3015Y-5.711
X2.3015Y-5.811
X2.35Y-1.9795
X2.35Y-2.0795
X2.35Y-2.1795
X2.35Y-2.2795
X2.35Y-2.3795
X2.35Y-2.4795
X2.35Y-2.5795
X2.35Y-2.6795
X2.35Y-2.7795
X2.35Y-2.8795
X2.35Y-2.9795
X2.35Y-3.0795
X2.35Y-3.1795
X2.35Y-3.2795
X2.35Y-3.3795
X2.35Y-3.4795
X2.35Y-3.5795
X2.35Y-3.6795
X2.35Y-3.7795
X2.35Y-3.8795
X2.35Y-3.9795
X2.35Y-4.0795
X2.35Y-4.1795
X2.35Y-4.2795
X2.35Y-4.3795
X2.35Y-4.4795
X2.35Y-4.5795
X2.35Y-4.6795
X2.35Y-4.7795
X2.35Y-4.8795
X2.35Y-4.9795
X2.35Y-5.0795
X2.4015Y-5.711
X2.4015Y-5.811
X2.45Y-1.9795
X2.45Y-2.0795
X2.45Y-2.1795
X2.45Y-2.2795
X2.45Y-2.3795
X2.45Y-2.4795
X2.45Y-2.5795
X2.45Y-2.6795
X2.45Y-2.7795
X2.45Y-2.8795
X2.45Y-2.9795
X2.45Y-3.0795
X2.45Y-3.1795
X2.45Y-3.2795
X2.45Y-3.3795
X2.45Y-3.4795
X2.45Y-3.5795
X2.45Y-3.6795
X2.45Y-3.7795
X2.45Y-3.8795
X2.45Y-3.9795
X2.45Y-4.0795
X2.45Y-4.1795
X2.45Y-4.2795
X2.45Y-4.3795
X2.45Y-4.4795
X2.45Y-4.5795
X2.45Y-4.6795
X2.45Y-4.7795
X2.45Y-4.8795
X2.45Y-4.9795
X2.45Y-5.0795
X2.5015Y-5.711
X2.5015Y-5.811
X2.55Y-1.9795
X2.55Y-2.0795
X2.55Y-2.1795
X2.55Y-2.2795
X2.55Y-2.3795
X2.55Y-2.4795
X2.55Y-2.5795
X2.55Y-2.6795
X2.55Y-2.7795
X2.55Y-2.8795
X2.55Y-2.9795
X2.55Y-3.0795
X2.55Y-3.1795
X2.55Y-3.2795
X2.55Y-3.3795
X2.55Y-3.4795
X2.55Y-3.5795
X2.55Y-3.6795
X2.55Y-3.7795
X2.55Y-3.8795
X2.55Y-3.9795
X2.55Y-4.0795
X2.55Y-4.1795
X2.55Y-4.2795
X2.55Y-4.3795
X2.55Y-4.4795
X2.55Y-4.5795
X2.55Y-4.6795
X2.55Y-4.7795
X2.55Y-4.8795
X2.55Y-4.9795
X2.55Y-5.0795
X2.6015Y-5.711
X2.6015Y-5.811
X2.7015Y-5.711
X2.7015Y-5.811
X2.8015Y-5.711
X2.8015Y-5.811
X2.9015Y-5.711
X2.9015Y-5.811
X3.0015Y-5.711
X3.0015Y-5.811
X3.1015Y-5.711
X3.1015Y-5.811
X3.15Y-1.9795
X3.15Y-2.0795
X3.15Y-2.1795
X3.15Y-2.2795
X3.15Y-2.3795
X3.15Y-2.4795
X3.15Y-2.5795
X3.15Y-2.6795
X3.15Y-2.7795
X3.15Y-2.8795
X3.15Y-2.9795
X3.15Y-3.0795
X3.15Y-3.1795
X3.15Y-3.2795
X3.15Y-3.3795
X3.15Y-3.4795
X3.15Y-3.5795
X3.15Y-3.6795
X3.15Y-3.7795
X3.15Y-3.8795
X3.15Y-3.9795
X3.15Y-4.0795
X3.15Y-4.1795
X3.15Y-4.2795
X3.15Y-4.3795
X3.15Y-4.4795
X3.15Y-4.5795
X3.15Y-4.6795
X3.15Y-4.7795
X3.15Y-4.8795
X3.15Y-4.9795
X3.15Y-5.0795
X3.2015Y-5.711
X3.2015Y-5.811
X3.25Y-1.9795
X3.25Y-2.0795
X3.25Y-2.1795
X3.25Y-2.2795
X3.25Y-2.3795
X3.25Y-2.4795
X3.25Y-2.5795
X3.25Y-2.6795
X3.25Y-2.7795
X3.25Y-2.8795
X3.25Y-2.9795
X3.25Y-3.0795
X3.25Y-3.1795
X3.25Y-3.2795
X3.25Y-3.3795
X3.25Y-3.4795
X3.25Y-3.5795
X3.25Y-3.6795
X3.25Y-3.7795
X3.25Y-3.8795
X3.25Y-3.9795
X3.25Y-4.0795
X3.25Y-4.1795
X3.25Y-4.2795
X3.25Y-4.3795
X3.25Y-4.4795
X3.25Y-4.5795
X3.25Y-4.6795
X3.25Y-4.7795
X3.25Y-4.8795
X3.25Y-4.9795
X3.25Y-5.0795
X3.3015Y-5.711
X3.3015Y-5.811
X3.35Y-1.9795
X3.35Y-2.0795
X3.35Y-2.1795
X3.35Y-2.2795
X3.35Y-2.3795
X3.35Y-2.4795
X3.35Y-2.5795
X3.35Y-2.6795
X3.35Y-2.7795
X3.35Y-2.8795
X3.35Y-2.9795
X3.35Y-3.0795
X3.35Y-3.1795
X3.35Y-3.2795
X3.35Y-3.3795
X3.35Y-3.4795
X3.35Y-3.5795
X3.35Y-3.6795
X3.35Y-3.7795
X3.35Y-3.8795
X3.35Y-3.9795
X3.35Y-4.0795
X3.35Y-4.1795
X3.35Y-4.2795
X3.35Y-4.3795
X3.35Y-4.4795
X3.35Y-4.5795
X3.35Y-4.6795
X3.35Y-4.7795
X3.35Y-4.8795
X3.35Y-4.9795
X3.35Y-5.0795
X3.4015Y-5.711
X3.4015Y-5.811
X3.5015Y-5.711
X3.5015Y-5.811
X4.242Y-1.9795
X4.242Y-2.0795
X4.242Y-2.1795
X4.242Y-2.2795
X4.242Y-2.3795
X4.242Y-2.4795
X4.242Y-2.5795
X4.242Y-2.6795
X4.242Y-2.7795
X4.242Y-2.8795
X4.242Y-2.9795
X4.242Y-3.0795
X4.242Y-3.1795
X4.242Y-3.2795
X4.242Y-3.3795
X4.242Y-3.4795
X4.2435Y-3.5795
X4.2435Y-3.6795
X4.2435Y-3.7795
X4.2435Y-3.8795
X4.2435Y-3.9795
X4.2435Y-4.0795
X4.2435Y-4.1795
X4.2435Y-4.2795
X4.2435Y-4.3795
X4.2435Y-4.4795
X4.2435Y-4.5795
X4.2435Y-4.6795
X4.2435Y-4.7795
X4.2435Y-4.8795
X4.2435Y-4.9795
X4.2435Y-5.0795
X4.342Y-1.9795
X4.342Y-2.0795
X4.342Y-2.1795
X4.342Y-2.2795
X4.342Y-2.3795
X4.342Y-2.4795
X4.342Y-2.5795
X4.342Y-2.6795
X4.342Y-2.7795
X4.342Y-2.8795
X4.342Y-2.9795
X4.342Y-3.0795
X4.342Y-3.1795
X4.342Y-3.2795
X4.342Y-3.3795
X4.342Y-3.4795
X4.3435Y-3.5795
X4.3435Y-3.6795
X4.3435Y-3.7795
X4.3435Y-3.8795
X4.3435Y-3.9795
X4.3435Y-4.0795
X4.3435Y-4.1795
X4.3435Y-4.2795
X4.3435Y-4.3795
X4.3435Y-4.4795
X4.3435Y-4.5795
X4.3435Y-4.6795
X4.3435Y-4.7795
X4.3435Y-4.8795
X4.3435Y-4.9795
X4.3435Y-5.0795
X4.6265Y-9.12
X4.6265Y-9.22
X4.6265Y-9.32
X4.6265Y-9.52
X4.6265Y-9.62
X4.6265Y-9.72
X4.6265Y-9.82
X4.6265Y-9.92
X4.6265Y-10.02
X4.6265Y-10.12
X4.7265Y-9.12
X4.7265Y-9.22
X4.7265Y-9.32
X4.7265Y-9.52
X4.7265Y-9.62
X4.7265Y-9.72
X4.7265Y-9.82
X4.7265Y-9.92
X4.7265Y-10.02
X4.7265Y-10.12
X5.8755Y-5.373
X5.8755Y-5.473
X5.8755Y-5.573
X5.8755Y-5.673
X5.8755Y-5.773
X5.8755Y-5.873
X5.8755Y-5.973
X5.8755Y-6.073
X5.9755Y-5.373
X5.9755Y-5.473
X5.9755Y-5.573
X5.9755Y-5.673
X5.9755Y-5.773
X5.9755Y-5.873
X5.9755Y-5.973
X5.9755Y-6.073
X6.1992Y-1.1705
X6.1992Y-1.2705
X6.2878Y-2.0602
X6.2878Y-2.1602
X6.2878Y-2.2602
X6.2878Y-2.3602
X6.2878Y-2.4602
X6.2878Y-2.5602
X6.302Y-3.135
X6.302Y-3.235
X6.302Y-3.335
X6.302Y-3.435
X6.302Y-3.535
X6.302Y-3.635
X6.302Y-3.735
X6.302Y-3.835
X6.402Y-3.135
X6.402Y-3.235
X6.402Y-3.335
X6.402Y-3.435
X6.402Y-3.535
X6.402Y-3.635
X6.402Y-3.735
X6.402Y-3.835
X6.472Y-1.175
X6.572Y-1.175
X6.672Y-1.175
X6.772Y-1.175
X6.872Y-1.175
X6.972Y-1.175
X7.142Y-1.485
X7.142Y-1.585
X7.242Y-1.485
X7.242Y-1.585
X7.292Y-1.175
X7.392Y-1.175
X7.492Y-1.175
X7.592Y-1.175
X7.692Y-1.175
X7.792Y-1.175
X8.082Y-2.335
X8.082Y-2.435
X8.082Y-2.535
X8.082Y-2.635
X8.082Y-2.735
X8.082Y-2.835
X8.082Y-2.935
X8.082Y-3.035
X8.272Y-1.475
X8.272Y-1.575
X8.3712Y-1.835
X8.3712Y-1.935
X8.3712Y-2.035
X8.3712Y-2.135
X8.3712Y-2.235
X8.3712Y-2.335
X8.3712Y-2.435
X8.3712Y-2.535
X8.3712Y-2.635
X8.3712Y-2.735
X8.3712Y-2.835
X8.3712Y-2.935
X8.3712Y-3.035
X8.3712Y-3.135
X8.3712Y-3.235
X8.3712Y-3.335
X8.3712Y-3.435
X8.3712Y-3.535
X8.3712Y-3.635
X8.3712Y-3.735
X8.3712Y-3.835
X8.3712Y-3.935
X8.3712Y-4.035
X8.3712Y-4.135
X8.372Y-1.475
X8.372Y-1.575
X8.472Y-1.475
X8.472Y-1.575
X8.572Y-1.475
X8.572Y-1.575
X8.622Y-5.515
X8.622Y-5.615
X8.672Y-1.475
X8.672Y-1.575
X8.722Y-5.515
X8.722Y-5.615
X8.772Y-1.475
X8.772Y-1.575
X9.072Y-1.835
X9.072Y-1.935
X9.072Y-2.035
X9.072Y-2.135
X9.072Y-2.235
X9.072Y-2.335
X9.072Y-2.435
X9.072Y-2.535
X9.072Y-2.635
X9.072Y-2.735
X9.072Y-2.835
X9.072Y-2.935
X9.072Y-3.035
X9.072Y-3.135
X9.072Y-3.235
X9.072Y-3.335
X9.072Y-3.435
X9.072Y-3.535
X9.072Y-3.635
X9.072Y-3.735
X9.072Y-3.835
X9.072Y-3.935
X9.072Y-4.035
X9.072Y-4.135
X9.1719Y-1.475
X9.1719Y-1.575
X9.2719Y-1.475
X9.2719Y-1.575
X9.274Y-4.5268
X9.274Y-4.6268
X9.274Y-4.7268
X9.274Y-4.8268
X9.274Y-4.9268
X9.274Y-5.0268
X9.274Y-5.1268
X9.274Y-5.2268
X9.332Y-1.835
X9.332Y-1.935
X9.332Y-2.035
X9.332Y-2.135
X9.332Y-2.235
X9.332Y-2.335
X9.3381Y-4.042
X9.3381Y-4.242
X9.3387Y-4.142
X9.339Y-3.942
X9.3719Y-1.475
X9.3719Y-1.575
X9.374Y-4.5268
X9.374Y-4.6268
X9.374Y-4.7268
X9.374Y-4.8268
X9.374Y-4.9268
X9.374Y-5.0268
X9.374Y-5.1268
X9.374Y-5.2268
X9.4381Y-4.042
X9.4381Y-4.242
X9.4387Y-4.142
X9.439Y-3.942
X9.4719Y-1.475
X9.4719Y-1.575
X9.5719Y-1.475
X9.5719Y-1.575
X9.6719Y-1.475
X9.6719Y-1.575
X9.922Y-6.1965
X9.922Y-6.2965
X9.922Y-6.3965
X9.922Y-6.4965
X9.922Y-6.8454
X9.922Y-6.9454
X9.922Y-7.0454
X9.922Y-7.1454
X10.022Y-6.1965
X10.022Y-6.2965
X10.022Y-6.3965
X10.022Y-6.4965
X10.022Y-6.8454
X10.022Y-6.9454
X10.022Y-7.0454
X10.022Y-7.1454
X10.4535Y-6.2419
X10.4535Y-6.3419
X10.512Y-2.925
X10.512Y-3.025
X10.512Y-3.125
X10.512Y-3.225
X10.512Y-3.325
X10.512Y-3.425
X10.512Y-3.525
X10.512Y-3.625
X10.554Y-6.2419
X10.554Y-6.3419
T8
X1.5195Y-7.931
X1.5195Y-8.109
X1.7755Y-7.931
X1.7755Y-8.109
X9.972Y-1.495
X10.072Y-1.495
T9
X10.402Y-1.925
X10.502Y-1.925
X10.602Y-1.925
T10
X6.462Y-1.955
X6.462Y-2.195
X6.462Y-2.435
X6.462Y-2.675
X7.062Y-1.955
X7.062Y-2.195
X7.062Y-2.435
X7.062Y-2.675
X7.202Y-1.955
X7.202Y-2.195
X7.202Y-2.435
X7.202Y-2.675
X7.802Y-1.955
X7.802Y-2.195
X7.802Y-2.435
X7.802Y-2.675
T11
X10.3854Y-4.025
X10.3854Y-4.1904
X10.3854Y-4.3557
X10.3854Y-4.5211
X10.3854Y-4.6865
X10.3854Y-4.8518
X10.3854Y-5.0172
X10.3854Y-5.1825
X10.3854Y-5.3479
X10.3854Y-5.5132
X10.3854Y-5.6786
X10.3854Y-5.8439
X10.602Y-4.025
X10.602Y-4.1904
X10.602Y-4.3557
X10.602Y-4.5211
X10.602Y-4.6865
X10.602Y-4.8518
X10.602Y-5.0172
X10.602Y-5.1825
X10.602Y-5.3479
X10.602Y-5.5132
X10.602Y-5.6786
X10.602Y-5.8439
T12
X1.6803Y-7.478
X2.4803Y-1.378
X2.4803Y-7.478
X4.2803Y-1.378
X4.2803Y-7.478
X4.2803Y-10.328
X10.4803Y-2.278
X10.4803Y-7.478
X10.4803Y-10.328
T7
G00X10.3069Y-1.4576
M15
G01X10.3069Y-1.5363
M16
G05
G00X10.5313Y-1.3788
M15
G01X10.4526Y-1.3788
M16
G05
G00X10.5313Y-1.615
M15
G01X10.4526Y-1.615
M16
G05
T0
M30
