G04 #@! TF.GenerationSoftware,KiCad,Pcbnew,(6.0.0-0)*
G04 #@! TF.CreationDate,2023-11-11T14:38:35+00:00*
G04 #@! TF.ProjectId,rosco_pro_030_proto,726f7363-6f5f-4707-926f-5f3033305f70,p5*
G04 #@! TF.SameCoordinates,Original*
G04 #@! TF.FileFunction,Soldermask,Bot*
G04 #@! TF.FilePolarity,Negative*
%FSLAX46Y46*%
G04 Gerber Fmt 4.6, Leading zero omitted, Abs format (unit mm)*
G04 Created by KiCad (PCBNEW (6.0.0-0)) date 2023-11-11 14:38:35*
%MOMM*%
%LPD*%
G01*
G04 APERTURE LIST*
G04 Aperture macros list*
%AMRoundRect*
0 Rectangle with rounded corners*
0 $1 Rounding radius*
0 $2 $3 $4 $5 $6 $7 $8 $9 X,Y pos of 4 corners*
0 Add a 4 corners polygon primitive as box body*
4,1,4,$2,$3,$4,$5,$6,$7,$8,$9,$2,$3,0*
0 Add four circle primitives for the rounded corners*
1,1,$1+$1,$2,$3*
1,1,$1+$1,$4,$5*
1,1,$1+$1,$6,$7*
1,1,$1+$1,$8,$9*
0 Add four rect primitives between the rounded corners*
20,1,$1+$1,$2,$3,$4,$5,0*
20,1,$1+$1,$4,$5,$6,$7,0*
20,1,$1+$1,$6,$7,$8,$9,0*
20,1,$1+$1,$8,$9,$2,$3,0*%
G04 Aperture macros list end*
%ADD10C,1.600000*%
%ADD11R,2.400000X1.600000*%
%ADD12O,2.400000X1.600000*%
%ADD13R,1.422400X1.422400*%
%ADD14C,1.422400*%
%ADD15C,1.803400*%
%ADD16R,1.600000X1.600000*%
%ADD17R,2.600000X2.600000*%
%ADD18O,2.600000X2.600000*%
%ADD19R,1.524000X1.524000*%
%ADD20C,1.524000*%
%ADD21R,1.700000X1.700000*%
%ADD22O,1.700000X1.700000*%
%ADD23R,3.500000X3.500000*%
%ADD24RoundRect,0.750000X-1.000000X0.750000X-1.000000X-0.750000X1.000000X-0.750000X1.000000X0.750000X0*%
%ADD25RoundRect,0.875000X-0.875000X0.875000X-0.875000X-0.875000X0.875000X-0.875000X0.875000X0.875000X0*%
%ADD26O,1.727200X3.251200*%
%ADD27R,1.100000X1.800000*%
%ADD28RoundRect,0.275000X0.275000X0.625000X-0.275000X0.625000X-0.275000X-0.625000X0.275000X-0.625000X0*%
%ADD29C,6.000000*%
%ADD30R,1.905000X2.000000*%
%ADD31O,1.905000X2.000000*%
%ADD32RoundRect,0.250001X-1.399999X1.099999X-1.399999X-1.099999X1.399999X-1.099999X1.399999X1.099999X0*%
%ADD33O,3.300000X2.700000*%
%ADD34O,3.251200X1.727200*%
%ADD35C,2.800000*%
%ADD36C,1.700000*%
G04 APERTURE END LIST*
D10*
X212809000Y-163704000D03*
X215309000Y-163704000D03*
X235003000Y-163704000D03*
X237503000Y-163704000D03*
X212809000Y-257430000D03*
X215309000Y-257430000D03*
X235003000Y-257430000D03*
X237503000Y-257430000D03*
D11*
X206434000Y-214250000D03*
D12*
X206434000Y-216790000D03*
X206434000Y-219330000D03*
X206434000Y-221870000D03*
X206434000Y-224410000D03*
X206434000Y-226950000D03*
X206434000Y-229490000D03*
X206434000Y-232030000D03*
X206434000Y-234570000D03*
X206434000Y-237110000D03*
X206434000Y-239650000D03*
X206434000Y-242190000D03*
X206434000Y-244730000D03*
X206434000Y-247270000D03*
X206434000Y-249810000D03*
X206434000Y-252350000D03*
X221674000Y-252350000D03*
X221674000Y-249810000D03*
X221674000Y-247270000D03*
X221674000Y-244730000D03*
X221674000Y-242190000D03*
X221674000Y-239650000D03*
X221674000Y-237110000D03*
X221674000Y-234570000D03*
X221674000Y-232030000D03*
X221674000Y-229490000D03*
X221674000Y-226950000D03*
X221674000Y-224410000D03*
X221674000Y-221870000D03*
X221674000Y-219330000D03*
X221674000Y-216790000D03*
X221674000Y-214250000D03*
D13*
X181660000Y-82424000D03*
D14*
X179120000Y-79884000D03*
X179120000Y-82424000D03*
X176580000Y-79884000D03*
X176580000Y-82424000D03*
X174040000Y-79884000D03*
X171500000Y-82424000D03*
X174040000Y-82424000D03*
X171500000Y-84964000D03*
X174040000Y-84964000D03*
X171500000Y-87504000D03*
X174040000Y-87504000D03*
X171500000Y-90044000D03*
X174040000Y-90044000D03*
X171500000Y-92584000D03*
X174040000Y-92584000D03*
X171500000Y-95124000D03*
X174040000Y-97664000D03*
X174040000Y-95124000D03*
X176580000Y-97664000D03*
X176580000Y-95124000D03*
X179120000Y-97664000D03*
X179120000Y-95124000D03*
X181660000Y-97664000D03*
X181660000Y-95124000D03*
X184200000Y-97664000D03*
X184200000Y-95124000D03*
X186740000Y-97664000D03*
X189280000Y-95124000D03*
X186740000Y-95124000D03*
X189280000Y-92584000D03*
X186740000Y-92584000D03*
X189280000Y-90044000D03*
X186740000Y-90044000D03*
X189280000Y-87504000D03*
X186740000Y-87504000D03*
X189280000Y-84964000D03*
X186740000Y-84964000D03*
X189280000Y-82424000D03*
X186740000Y-79884000D03*
X186740000Y-82424000D03*
X184200000Y-79884000D03*
X184200000Y-82424000D03*
X181660000Y-79884000D03*
D10*
X56234800Y-257811000D03*
X58734800Y-257811000D03*
X115173000Y-192533000D03*
X117673000Y-192533000D03*
X139303000Y-192533000D03*
X141803000Y-192533000D03*
D15*
X51777900Y-221882000D03*
X54317900Y-221882000D03*
D10*
X41388500Y-229515000D03*
X43888500Y-229515000D03*
X210616000Y-154052000D03*
X213116000Y-154052000D03*
X190550000Y-154052000D03*
X193050000Y-154052000D03*
X171246000Y-154052000D03*
X173746000Y-154052000D03*
X235000000Y-153798000D03*
X237500000Y-153798000D03*
X39399651Y-181484000D03*
X41899651Y-181484000D03*
X200710000Y-154052000D03*
X203210000Y-154052000D03*
X203250000Y-112650000D03*
X205750000Y-112650000D03*
X99730000Y-192533000D03*
X102230000Y-192533000D03*
D16*
X160832000Y-37720000D03*
D10*
X163332000Y-37720000D03*
X187502000Y-112650000D03*
X190002000Y-112650000D03*
D16*
X223431000Y-156896000D03*
D10*
X225931000Y-156896000D03*
D17*
X198170000Y-61850000D03*
D18*
X182930000Y-61850000D03*
D17*
X198170000Y-67946000D03*
D18*
X182930000Y-67946000D03*
D17*
X198170000Y-49658000D03*
D18*
X182930000Y-49658000D03*
D17*
X164134000Y-55754000D03*
D18*
X179374000Y-55754000D03*
D17*
X164134000Y-61850000D03*
D18*
X179374000Y-61850000D03*
D17*
X164134000Y-49658000D03*
D18*
X179374000Y-49658000D03*
D17*
X164134000Y-67946000D03*
D18*
X179374000Y-67946000D03*
D19*
X181406000Y-116968000D03*
D20*
X183946000Y-116968000D03*
X186486000Y-116968000D03*
X189026000Y-116968000D03*
X191566000Y-116968000D03*
X194106000Y-116968000D03*
X196646000Y-116968000D03*
X199186000Y-116968000D03*
X201726000Y-116968000D03*
X204266000Y-116968000D03*
X206806000Y-116968000D03*
X209346000Y-116968000D03*
X211886000Y-116968000D03*
X181406000Y-119508000D03*
X183946000Y-119508000D03*
X186486000Y-119508000D03*
X189026000Y-119508000D03*
X191566000Y-119508000D03*
X194106000Y-119508000D03*
X196646000Y-119508000D03*
X199186000Y-119508000D03*
X201726000Y-119508000D03*
X204266000Y-119508000D03*
X206806000Y-119508000D03*
X209346000Y-119508000D03*
X211886000Y-119508000D03*
X181406000Y-122048000D03*
X183946000Y-122048000D03*
X186486000Y-122048000D03*
X189026000Y-122048000D03*
X191566000Y-122048000D03*
X194106000Y-122048000D03*
X196646000Y-122048000D03*
X199186000Y-122048000D03*
X201726000Y-122048000D03*
X204266000Y-122048000D03*
X206806000Y-122048000D03*
X209346000Y-122048000D03*
X211886000Y-122048000D03*
X181406000Y-124588000D03*
X183946000Y-124588000D03*
X186486000Y-124588000D03*
X189026000Y-124588000D03*
X191566000Y-124588000D03*
X204266000Y-124588000D03*
X206806000Y-124588000D03*
X209346000Y-124588000D03*
X211886000Y-124588000D03*
X181406000Y-127128000D03*
X183946000Y-127128000D03*
X186486000Y-127128000D03*
X206806000Y-127128000D03*
X209346000Y-127128000D03*
X211886000Y-127128000D03*
X181406000Y-129668000D03*
X183946000Y-129668000D03*
X186486000Y-129668000D03*
X189026000Y-129668000D03*
X204266000Y-129668000D03*
X206806000Y-129668000D03*
X209346000Y-129668000D03*
X211886000Y-129668000D03*
X181406000Y-132208000D03*
X183946000Y-132208000D03*
X186486000Y-132208000D03*
X206806000Y-132208000D03*
X209346000Y-132208000D03*
X211886000Y-132208000D03*
X181406000Y-134748000D03*
X183946000Y-134748000D03*
X186486000Y-134748000D03*
X206806000Y-134748000D03*
X209346000Y-134748000D03*
X211886000Y-134748000D03*
X181406000Y-137288000D03*
X183946000Y-137288000D03*
X186486000Y-137288000D03*
X206806000Y-137288000D03*
X209346000Y-137288000D03*
X211886000Y-137288000D03*
X181406000Y-139828000D03*
X183946000Y-139828000D03*
X186486000Y-139828000D03*
X189026000Y-139828000D03*
X191566000Y-139828000D03*
X204266000Y-139828000D03*
X206806000Y-139828000D03*
X209346000Y-139828000D03*
X211886000Y-139828000D03*
X181406000Y-142368000D03*
X183946000Y-142368000D03*
X186486000Y-142368000D03*
X189026000Y-142368000D03*
X191566000Y-142368000D03*
X194106000Y-142368000D03*
X196646000Y-142368000D03*
X199186000Y-142368000D03*
X201726000Y-142368000D03*
X204266000Y-142368000D03*
X206806000Y-142368000D03*
X209346000Y-142368000D03*
X211886000Y-142368000D03*
X181406000Y-144908000D03*
X183946000Y-144908000D03*
X186486000Y-144908000D03*
X189026000Y-144908000D03*
X191566000Y-144908000D03*
X194106000Y-144908000D03*
X196646000Y-144908000D03*
X199186000Y-144908000D03*
X201726000Y-144908000D03*
X204266000Y-144908000D03*
X206806000Y-144908000D03*
X209346000Y-144908000D03*
X211886000Y-144908000D03*
X181406000Y-147448000D03*
X183946000Y-147448000D03*
X186486000Y-147448000D03*
X189026000Y-147448000D03*
X191566000Y-147448000D03*
X194106000Y-147448000D03*
X196646000Y-147448000D03*
X199186000Y-147448000D03*
X201726000Y-147448000D03*
X204266000Y-147448000D03*
X206806000Y-147448000D03*
X209346000Y-147448000D03*
X211886000Y-147448000D03*
D21*
X185216000Y-29846000D03*
D22*
X187756000Y-29846000D03*
X190296000Y-29846000D03*
X192836000Y-29846000D03*
X195376000Y-29846000D03*
X197916000Y-29846000D03*
D21*
X164388000Y-29846000D03*
D22*
X166928000Y-29846000D03*
X169468000Y-29846000D03*
X172008000Y-29846000D03*
X174548000Y-29846000D03*
X177088000Y-29846000D03*
D21*
X107747000Y-50279300D03*
D22*
X110287000Y-50279300D03*
X107747000Y-52819300D03*
X110287000Y-52819300D03*
X107747000Y-55359300D03*
X110287000Y-55359300D03*
X107747000Y-57899300D03*
X110287000Y-57899300D03*
X107747000Y-60439300D03*
X110287000Y-60439300D03*
X107747000Y-62979300D03*
X110287000Y-62979300D03*
X107747000Y-65519300D03*
X110287000Y-65519300D03*
X107747000Y-68059300D03*
X110287000Y-68059300D03*
X107747000Y-70599300D03*
X110287000Y-70599300D03*
X107747000Y-73139300D03*
X110287000Y-73139300D03*
X107747000Y-75679300D03*
X110287000Y-75679300D03*
X107747000Y-78219300D03*
X110287000Y-78219300D03*
X107747000Y-80759300D03*
X110287000Y-80759300D03*
X107747000Y-83299300D03*
X110287000Y-83299300D03*
X107747000Y-85839300D03*
X110287000Y-85839300D03*
X107747000Y-88379300D03*
X110287000Y-88379300D03*
D21*
X107785000Y-90919300D03*
D22*
X110325000Y-90919300D03*
X107785000Y-93459300D03*
X110325000Y-93459300D03*
X107785000Y-95999300D03*
X110325000Y-95999300D03*
X107785000Y-98539300D03*
X110325000Y-98539300D03*
X107785000Y-101079300D03*
X110325000Y-101079300D03*
X107785000Y-103619300D03*
X110325000Y-103619300D03*
X107785000Y-106159300D03*
X110325000Y-106159300D03*
X107785000Y-108699300D03*
X110325000Y-108699300D03*
X107785000Y-111239300D03*
X110325000Y-111239300D03*
X107785000Y-113779300D03*
X110325000Y-113779300D03*
X107785000Y-116319300D03*
X110325000Y-116319300D03*
X107785000Y-118859300D03*
X110325000Y-118859300D03*
X107785000Y-121399300D03*
X110325000Y-121399300D03*
X107785000Y-123939300D03*
X110325000Y-123939300D03*
X107785000Y-126479300D03*
X110325000Y-126479300D03*
X107785000Y-129019300D03*
X110325000Y-129019300D03*
D21*
X235560000Y-114980000D03*
D22*
X238100000Y-114980000D03*
X235560000Y-117520000D03*
X238100000Y-117520000D03*
X235560000Y-120060000D03*
X238100000Y-120060000D03*
X235560000Y-122600000D03*
X238100000Y-122600000D03*
X235560000Y-125140000D03*
X238100000Y-125140000D03*
X235560000Y-127680000D03*
X238100000Y-127680000D03*
X235560000Y-130220000D03*
X238100000Y-130220000D03*
X235560000Y-132760000D03*
X238100000Y-132760000D03*
D23*
X266496000Y-41022000D03*
D24*
X266496000Y-35022000D03*
D25*
X261796000Y-38022000D03*
D26*
X253288000Y-37974000D03*
X255828000Y-37974000D03*
D21*
X218998000Y-140082000D03*
D22*
X221538000Y-140082000D03*
D20*
X218744000Y-128144000D03*
X228904000Y-128144000D03*
X218744000Y-130938000D03*
X228904000Y-130938000D03*
X218744000Y-133732000D03*
X228904000Y-133732000D03*
X196392000Y-98426000D03*
X206552000Y-98426000D03*
X195630000Y-43816000D03*
X195630000Y-33656000D03*
X192836000Y-43816000D03*
X192836000Y-33656000D03*
X198170000Y-43816000D03*
X198170000Y-33656000D03*
X187756000Y-43816000D03*
X187756000Y-33656000D03*
X174802000Y-44324000D03*
X174802000Y-34164000D03*
X177596000Y-44324000D03*
X177596000Y-34164000D03*
X166928000Y-44070000D03*
X166928000Y-33910000D03*
X48754500Y-211404000D03*
X38594500Y-211404000D03*
X46024000Y-234824000D03*
X46024000Y-244984000D03*
X198805000Y-85472000D03*
X203631000Y-85472000D03*
D10*
X256336000Y-74042000D03*
X258836000Y-74042000D03*
X203758000Y-44324000D03*
X206258000Y-44324000D03*
X203504000Y-52452000D03*
X206004000Y-52452000D03*
D16*
X251764000Y-213996000D03*
D10*
X254264000Y-213996000D03*
D16*
X239572000Y-142876000D03*
D10*
X242072000Y-142876000D03*
X220278000Y-48134000D03*
X222778000Y-48134000D03*
X226618000Y-32386000D03*
X229118000Y-32386000D03*
D11*
X244144000Y-45848000D03*
D12*
X244144000Y-48388000D03*
X244144000Y-50928000D03*
X244144000Y-53468000D03*
X244144000Y-56008000D03*
X244144000Y-58548000D03*
X244144000Y-61088000D03*
X244144000Y-63628000D03*
X244144000Y-66168000D03*
X244144000Y-68708000D03*
X251764000Y-68708000D03*
X251764000Y-66168000D03*
X251764000Y-63628000D03*
X251764000Y-61088000D03*
X251764000Y-58548000D03*
X251764000Y-56008000D03*
X251764000Y-53468000D03*
X251764000Y-50928000D03*
X251764000Y-48388000D03*
X251764000Y-45848000D03*
D11*
X217728000Y-52960000D03*
D12*
X217728000Y-55500000D03*
X217728000Y-58040000D03*
X217728000Y-60580000D03*
X217728000Y-63120000D03*
X217728000Y-65660000D03*
X217728000Y-68200000D03*
X217728000Y-70740000D03*
X217728000Y-73280000D03*
X217728000Y-75820000D03*
X225348000Y-75820000D03*
X225348000Y-73280000D03*
X225348000Y-70740000D03*
X225348000Y-68200000D03*
X225348000Y-65660000D03*
X225348000Y-63120000D03*
X225348000Y-60580000D03*
X225348000Y-58040000D03*
X225348000Y-55500000D03*
X225348000Y-52960000D03*
D11*
X217728000Y-82170000D03*
D12*
X217728000Y-84710000D03*
X217728000Y-87250000D03*
X217728000Y-89790000D03*
X217728000Y-92330000D03*
X217728000Y-94870000D03*
X217728000Y-97410000D03*
X225348000Y-97410000D03*
X225348000Y-94870000D03*
X225348000Y-92330000D03*
X225348000Y-89790000D03*
X225348000Y-87250000D03*
X225348000Y-84710000D03*
X225348000Y-82170000D03*
D21*
X237032000Y-46610000D03*
D22*
X237032000Y-49150000D03*
X237032000Y-51690000D03*
X237032000Y-54230000D03*
X237032000Y-56770000D03*
X237032000Y-59310000D03*
D21*
X222808000Y-40006000D03*
D22*
X222808000Y-37466000D03*
X220268000Y-40006000D03*
X220268000Y-37466000D03*
X217728000Y-40006000D03*
X217728000Y-37466000D03*
X215188000Y-40006000D03*
X215188000Y-37466000D03*
X212648000Y-40006000D03*
X212648000Y-37466000D03*
X210108000Y-40006000D03*
X210108000Y-37466000D03*
D21*
X252018000Y-173874000D03*
D22*
X254558000Y-173874000D03*
X252018000Y-176414000D03*
X254558000Y-176414000D03*
X252018000Y-178954000D03*
X254558000Y-178954000D03*
X252018000Y-181494000D03*
X254558000Y-181494000D03*
D21*
X252018000Y-157390000D03*
D22*
X254558000Y-157390000D03*
X252018000Y-159930000D03*
X254558000Y-159930000D03*
X252018000Y-162470000D03*
X254558000Y-162470000D03*
X252018000Y-165010000D03*
X254558000Y-165010000D03*
D21*
X237188000Y-107748000D03*
D22*
X239728000Y-107748000D03*
D21*
X237204000Y-105208000D03*
D22*
X239744000Y-105208000D03*
D21*
X237188000Y-102668000D03*
D22*
X239728000Y-102668000D03*
D27*
X222808000Y-120632000D03*
D28*
X221538000Y-122702000D03*
X220268000Y-120632000D03*
D20*
X241132102Y-75094102D03*
X233947898Y-67909898D03*
X241096102Y-78360002D03*
X233911898Y-71175798D03*
X241132102Y-81698102D03*
X233947898Y-74513898D03*
X241132102Y-88302102D03*
X233947898Y-81117898D03*
X241132102Y-91604102D03*
X233947898Y-84419898D03*
X221538000Y-114428000D03*
X221538000Y-104268000D03*
D21*
X267004000Y-74296000D03*
D22*
X267004000Y-76836000D03*
X267004000Y-79376000D03*
X267004000Y-81916000D03*
X267004000Y-84456000D03*
X267004000Y-86996000D03*
X267004000Y-89536000D03*
X267004000Y-92076000D03*
D11*
X206434000Y-169292000D03*
D12*
X206434000Y-171832000D03*
X206434000Y-174372000D03*
X206434000Y-176912000D03*
X206434000Y-179452000D03*
X206434000Y-181992000D03*
X206434000Y-184532000D03*
X206434000Y-187072000D03*
X206434000Y-189612000D03*
X206434000Y-192152000D03*
X206434000Y-194692000D03*
X206434000Y-197232000D03*
X206434000Y-199772000D03*
X206434000Y-202312000D03*
X206434000Y-204852000D03*
X206434000Y-207392000D03*
X221674000Y-207392000D03*
X221674000Y-204852000D03*
X221674000Y-202312000D03*
X221674000Y-199772000D03*
X221674000Y-197232000D03*
X221674000Y-194692000D03*
X221674000Y-192152000D03*
X221674000Y-189612000D03*
X221674000Y-187072000D03*
X221674000Y-184532000D03*
X221674000Y-181992000D03*
X221674000Y-179452000D03*
X221674000Y-176912000D03*
X221674000Y-174372000D03*
X221674000Y-171832000D03*
X221674000Y-169292000D03*
D11*
X228628000Y-169292000D03*
D12*
X228628000Y-171832000D03*
X228628000Y-174372000D03*
X228628000Y-176912000D03*
X228628000Y-179452000D03*
X228628000Y-181992000D03*
X228628000Y-184532000D03*
X228628000Y-187072000D03*
X228628000Y-189612000D03*
X228628000Y-192152000D03*
X228628000Y-194692000D03*
X228628000Y-197232000D03*
X228628000Y-199772000D03*
X228628000Y-202312000D03*
X228628000Y-204852000D03*
X228628000Y-207392000D03*
X243868000Y-207392000D03*
X243868000Y-204852000D03*
X243868000Y-202312000D03*
X243868000Y-199772000D03*
X243868000Y-197232000D03*
X243868000Y-194692000D03*
X243868000Y-192152000D03*
X243868000Y-189612000D03*
X243868000Y-187072000D03*
X243868000Y-184532000D03*
X243868000Y-181992000D03*
X243868000Y-179452000D03*
X243868000Y-176912000D03*
X243868000Y-174372000D03*
X243868000Y-171832000D03*
X243868000Y-169292000D03*
D11*
X228628000Y-214250000D03*
D12*
X228628000Y-216790000D03*
X228628000Y-219330000D03*
X228628000Y-221870000D03*
X228628000Y-224410000D03*
X228628000Y-226950000D03*
X228628000Y-229490000D03*
X228628000Y-232030000D03*
X228628000Y-234570000D03*
X228628000Y-237110000D03*
X228628000Y-239650000D03*
X228628000Y-242190000D03*
X228628000Y-244730000D03*
X228628000Y-247270000D03*
X228628000Y-249810000D03*
X228628000Y-252350000D03*
X243868000Y-252350000D03*
X243868000Y-249810000D03*
X243868000Y-247270000D03*
X243868000Y-244730000D03*
X243868000Y-242190000D03*
X243868000Y-239650000D03*
X243868000Y-237110000D03*
X243868000Y-234570000D03*
X243868000Y-232030000D03*
X243868000Y-229490000D03*
X243868000Y-226950000D03*
X243868000Y-224410000D03*
X243868000Y-221870000D03*
X243868000Y-219330000D03*
X243868000Y-216790000D03*
X243868000Y-214250000D03*
D10*
X202234000Y-92076000D03*
X204734000Y-92076000D03*
X199694000Y-77344000D03*
X202194000Y-77344000D03*
X197408000Y-92076000D03*
X199908000Y-92076000D03*
D21*
X160070000Y-79630000D03*
D22*
X162610000Y-79630000D03*
X160070000Y-82170000D03*
X162610000Y-82170000D03*
X160070000Y-84710000D03*
X162610000Y-84710000D03*
X160070000Y-87250000D03*
X162610000Y-87250000D03*
X160070000Y-89790000D03*
X162610000Y-89790000D03*
X160070000Y-92330000D03*
X162610000Y-92330000D03*
X160070000Y-94870000D03*
X162610000Y-94870000D03*
X160070000Y-97410000D03*
X162610000Y-97410000D03*
D21*
X183946000Y-40260000D03*
D22*
X183946000Y-37720000D03*
D21*
X181406000Y-40260000D03*
D22*
X181406000Y-37720000D03*
D17*
X198170000Y-55754000D03*
D18*
X182930000Y-55754000D03*
D20*
X172008000Y-44324000D03*
X172008000Y-34164000D03*
D11*
X38594500Y-216815000D03*
D12*
X38594500Y-219355000D03*
X38594500Y-221895000D03*
X38594500Y-224435000D03*
X46214500Y-224435000D03*
X46214500Y-221895000D03*
X46214500Y-219355000D03*
X46214500Y-216815000D03*
D20*
X39166000Y-234824000D03*
X39166000Y-244984000D03*
D21*
X50838100Y-147599000D03*
D22*
X50838100Y-145059000D03*
X53378100Y-147599000D03*
X53378100Y-145059000D03*
X55918100Y-147599000D03*
X55918100Y-145059000D03*
X58458100Y-147599000D03*
X58458100Y-145059000D03*
X60998100Y-147599000D03*
X60998100Y-145059000D03*
X63538100Y-147599000D03*
X63538100Y-145059000D03*
X66078100Y-147599000D03*
X66078100Y-145059000D03*
X68618100Y-147599000D03*
X68618100Y-145059000D03*
X71158100Y-147599000D03*
X71158100Y-145059000D03*
X73698100Y-147599000D03*
X73698100Y-145059000D03*
X76238100Y-147599000D03*
X76238100Y-145059000D03*
X78778100Y-147599000D03*
X78778100Y-145059000D03*
X81318100Y-147599000D03*
X81318100Y-145059000D03*
X83858100Y-147599000D03*
X83858100Y-145059000D03*
X86398100Y-147599000D03*
X86398100Y-145059000D03*
X88938100Y-147599000D03*
X88938100Y-145059000D03*
D21*
X218998000Y-142622000D03*
D22*
X221538000Y-142622000D03*
D21*
X245665000Y-40006000D03*
D22*
X245665000Y-37466000D03*
X243125000Y-40006000D03*
X243125000Y-37466000D03*
X240585000Y-40006000D03*
X240585000Y-37466000D03*
X238045000Y-40006000D03*
X238045000Y-37466000D03*
X235505000Y-40006000D03*
X235505000Y-37466000D03*
X232965000Y-40006000D03*
X232965000Y-37466000D03*
D21*
X230428000Y-105030000D03*
D22*
X230428000Y-102490000D03*
X230428000Y-99950000D03*
X230428000Y-97410000D03*
X230428000Y-94870000D03*
X230428000Y-92330000D03*
X230428000Y-89790000D03*
X230428000Y-87250000D03*
X230428000Y-84710000D03*
X230428000Y-82170000D03*
X230428000Y-79630000D03*
X230428000Y-77090000D03*
X230428000Y-74550000D03*
X230428000Y-72010000D03*
X230428000Y-69470000D03*
X230428000Y-66930000D03*
X230428000Y-64390000D03*
X230428000Y-61850000D03*
X230428000Y-59310000D03*
X230428000Y-56770000D03*
X230428000Y-54230000D03*
X230428000Y-51690000D03*
X230428000Y-49150000D03*
X230428000Y-46610000D03*
D21*
X212628000Y-105030000D03*
D22*
X212628000Y-102490000D03*
X212628000Y-99950000D03*
X212628000Y-97410000D03*
X212628000Y-94870000D03*
X212628000Y-92330000D03*
X212628000Y-89790000D03*
X212628000Y-87250000D03*
X212628000Y-84710000D03*
X212628000Y-82170000D03*
X212628000Y-79630000D03*
X212628000Y-77090000D03*
X212628000Y-74550000D03*
X212628000Y-72010000D03*
X212628000Y-69470000D03*
X212628000Y-66930000D03*
X212628000Y-64390000D03*
X212628000Y-61850000D03*
X212628000Y-59310000D03*
X212628000Y-56770000D03*
X212628000Y-54230000D03*
X212628000Y-51690000D03*
X212628000Y-49150000D03*
X212628000Y-46610000D03*
D11*
X244144000Y-74042000D03*
D12*
X244144000Y-76582000D03*
X244144000Y-79122000D03*
X244144000Y-81662000D03*
X244144000Y-84202000D03*
X244144000Y-86742000D03*
X244144000Y-89282000D03*
X244144000Y-91822000D03*
X244144000Y-94362000D03*
X244144000Y-96902000D03*
X251764000Y-96902000D03*
X251764000Y-94362000D03*
X251764000Y-91822000D03*
X251764000Y-89282000D03*
X251764000Y-86742000D03*
X251764000Y-84202000D03*
X251764000Y-81662000D03*
X251764000Y-79122000D03*
X251764000Y-76582000D03*
X251764000Y-74042000D03*
D10*
X151241000Y-192533000D03*
X153741000Y-192533000D03*
D29*
X63000000Y-35000000D03*
X108720000Y-35000000D03*
X266200000Y-57860000D03*
X42680000Y-189940000D03*
X63000000Y-189940000D03*
X108720000Y-189940000D03*
X266200000Y-189940000D03*
X108720000Y-262330000D03*
X266200000Y-262330000D03*
D16*
X244906000Y-112904000D03*
D10*
X248406000Y-112904000D03*
D16*
X253796000Y-112904000D03*
D10*
X257296000Y-112904000D03*
D16*
X245668000Y-132462000D03*
D10*
X248168000Y-132462000D03*
X251764000Y-222124000D03*
X254264000Y-222124000D03*
D16*
X254304000Y-103760000D03*
D10*
X256804000Y-103760000D03*
D16*
X226618000Y-40006000D03*
D10*
X229118000Y-40006000D03*
D16*
X254304000Y-132462000D03*
D10*
X256804000Y-132462000D03*
D16*
X244906000Y-123572000D03*
D10*
X248406000Y-123572000D03*
D16*
X255574000Y-93092000D03*
D10*
X258074000Y-93092000D03*
X256336000Y-45848000D03*
X258836000Y-45848000D03*
X127365000Y-192533000D03*
X129865000Y-192533000D03*
X161340000Y-144146000D03*
X163840000Y-144146000D03*
X160832000Y-115698000D03*
X163332000Y-115698000D03*
X179628000Y-112650000D03*
X182128000Y-112650000D03*
X195376000Y-112650000D03*
X197876000Y-112650000D03*
X211124000Y-112650000D03*
X213624000Y-112650000D03*
D20*
X228904000Y-136526000D03*
X228904000Y-146686000D03*
X228904000Y-115444000D03*
X228904000Y-125604000D03*
X174802000Y-129668000D03*
X174802000Y-119508000D03*
X177342000Y-116968000D03*
X167182000Y-116968000D03*
X184962000Y-105792000D03*
X195122000Y-105792000D03*
X177088000Y-134748000D03*
X166928000Y-134748000D03*
X177342000Y-137288000D03*
X177342000Y-147448000D03*
X172262000Y-147448000D03*
X172262000Y-137288000D03*
X177342000Y-129668000D03*
X177342000Y-119508000D03*
X172262000Y-129668000D03*
X172262000Y-119508000D03*
X174802000Y-147448000D03*
X174802000Y-137288000D03*
D11*
X161848000Y-214250000D03*
D12*
X161848000Y-216790000D03*
X161848000Y-219330000D03*
X161848000Y-221870000D03*
X161848000Y-224410000D03*
X161848000Y-226950000D03*
X161848000Y-229490000D03*
X161848000Y-232030000D03*
X161848000Y-234570000D03*
X161848000Y-237110000D03*
X161848000Y-239650000D03*
X161848000Y-242190000D03*
X161848000Y-244730000D03*
X161848000Y-247270000D03*
X161848000Y-249810000D03*
X161848000Y-252350000D03*
X177088000Y-252350000D03*
X177088000Y-249810000D03*
X177088000Y-247270000D03*
X177088000Y-244730000D03*
X177088000Y-242190000D03*
X177088000Y-239650000D03*
X177088000Y-237110000D03*
X177088000Y-234570000D03*
X177088000Y-232030000D03*
X177088000Y-229490000D03*
X177088000Y-226950000D03*
X177088000Y-224410000D03*
X177088000Y-221870000D03*
X177088000Y-219330000D03*
X177088000Y-216790000D03*
X177088000Y-214250000D03*
D11*
X183946000Y-214250000D03*
D12*
X183946000Y-216790000D03*
X183946000Y-219330000D03*
X183946000Y-221870000D03*
X183946000Y-224410000D03*
X183946000Y-226950000D03*
X183946000Y-229490000D03*
X183946000Y-232030000D03*
X183946000Y-234570000D03*
X183946000Y-237110000D03*
X183946000Y-239650000D03*
X183946000Y-242190000D03*
X183946000Y-244730000D03*
X183946000Y-247270000D03*
X183946000Y-249810000D03*
X183946000Y-252350000D03*
X199186000Y-252350000D03*
X199186000Y-249810000D03*
X199186000Y-247270000D03*
X199186000Y-244730000D03*
X199186000Y-242190000D03*
X199186000Y-239650000D03*
X199186000Y-237110000D03*
X199186000Y-234570000D03*
X199186000Y-232030000D03*
X199186000Y-229490000D03*
X199186000Y-226950000D03*
X199186000Y-224410000D03*
X199186000Y-221870000D03*
X199186000Y-219330000D03*
X199186000Y-216790000D03*
X199186000Y-214250000D03*
D10*
X168223000Y-163704000D03*
X170723000Y-163704000D03*
X190296000Y-163704000D03*
X192796000Y-163704000D03*
X168223000Y-257430000D03*
X170723000Y-257430000D03*
X190321000Y-257430000D03*
X192821000Y-257430000D03*
D11*
X161848000Y-169292000D03*
D12*
X161848000Y-171832000D03*
X161848000Y-174372000D03*
X161848000Y-176912000D03*
X161848000Y-179452000D03*
X161848000Y-181992000D03*
X161848000Y-184532000D03*
X161848000Y-187072000D03*
X161848000Y-189612000D03*
X161848000Y-192152000D03*
X161848000Y-194692000D03*
X161848000Y-197232000D03*
X161848000Y-199772000D03*
X161848000Y-202312000D03*
X161848000Y-204852000D03*
X161848000Y-207392000D03*
X177088000Y-207392000D03*
X177088000Y-204852000D03*
X177088000Y-202312000D03*
X177088000Y-199772000D03*
X177088000Y-197232000D03*
X177088000Y-194692000D03*
X177088000Y-192152000D03*
X177088000Y-189612000D03*
X177088000Y-187072000D03*
X177088000Y-184532000D03*
X177088000Y-181992000D03*
X177088000Y-179452000D03*
X177088000Y-176912000D03*
X177088000Y-174372000D03*
X177088000Y-171832000D03*
X177088000Y-169292000D03*
D11*
X183946000Y-169292000D03*
D12*
X183946000Y-171832000D03*
X183946000Y-174372000D03*
X183946000Y-176912000D03*
X183946000Y-179452000D03*
X183946000Y-181992000D03*
X183946000Y-184532000D03*
X183946000Y-187072000D03*
X183946000Y-189612000D03*
X183946000Y-192152000D03*
X183946000Y-194692000D03*
X183946000Y-197232000D03*
X183946000Y-199772000D03*
X183946000Y-202312000D03*
X183946000Y-204852000D03*
X183946000Y-207392000D03*
X199186000Y-207392000D03*
X199186000Y-204852000D03*
X199186000Y-202312000D03*
X199186000Y-199772000D03*
X199186000Y-197232000D03*
X199186000Y-194692000D03*
X199186000Y-192152000D03*
X199186000Y-189612000D03*
X199186000Y-187072000D03*
X199186000Y-184532000D03*
X199186000Y-181992000D03*
X199186000Y-179452000D03*
X199186000Y-176912000D03*
X199186000Y-174372000D03*
X199186000Y-171832000D03*
X199186000Y-169292000D03*
D20*
X241132102Y-94906102D03*
X233947898Y-87721898D03*
X241132102Y-85000102D03*
X233947898Y-77815898D03*
X241132102Y-98208102D03*
X233947898Y-91023898D03*
D21*
X205282000Y-59310000D03*
D22*
X205282000Y-61850000D03*
X205282000Y-64390000D03*
X205282000Y-66930000D03*
X205282000Y-69470000D03*
X205282000Y-72010000D03*
X205282000Y-74550000D03*
X205282000Y-77090000D03*
D21*
X149238000Y-136474000D03*
D22*
X151778000Y-136474000D03*
X149238000Y-139014000D03*
X151778000Y-139014000D03*
X149238000Y-141554000D03*
X151778000Y-141554000D03*
X149238000Y-144094000D03*
X151778000Y-144094000D03*
X149238000Y-146634000D03*
X151778000Y-146634000D03*
X149238000Y-149174000D03*
X151778000Y-149174000D03*
X149238000Y-151714000D03*
X151778000Y-151714000D03*
X149238000Y-154254000D03*
X151778000Y-154254000D03*
D10*
X256336000Y-61596000D03*
X258836000Y-61596000D03*
D16*
X256082000Y-54738000D03*
D10*
X258582000Y-54738000D03*
D30*
X264210000Y-48896000D03*
D31*
X266750000Y-48896000D03*
X269290000Y-48896000D03*
D32*
X269290000Y-102236000D03*
D33*
X269290000Y-106436000D03*
X269290000Y-110636000D03*
X269290000Y-114836000D03*
X269290000Y-119036000D03*
X269290000Y-123236000D03*
X269290000Y-127436000D03*
X269290000Y-131636000D03*
X269290000Y-135836000D03*
X269290000Y-140036000D03*
X269290000Y-144236000D03*
X269290000Y-148436000D03*
X263790000Y-102236000D03*
X263790000Y-106436000D03*
X263790000Y-110636000D03*
X263790000Y-114836000D03*
X263790000Y-119036000D03*
X263790000Y-123236000D03*
X263790000Y-127436000D03*
X263790000Y-131636000D03*
X263790000Y-135836000D03*
X263790000Y-140036000D03*
X263790000Y-144236000D03*
X263790000Y-148436000D03*
D21*
X43942000Y-264160000D03*
D22*
X43942000Y-261620000D03*
D21*
X157460000Y-29730000D03*
D22*
X157460000Y-32270000D03*
D10*
X153212000Y-75820000D03*
X155712000Y-75820000D03*
D20*
X39166000Y-253366000D03*
X41706000Y-253366000D03*
X46024000Y-253366000D03*
X48564000Y-253366000D03*
D34*
X38594500Y-201447400D03*
X45096900Y-201447400D03*
X38594500Y-205968600D03*
X45096900Y-205968600D03*
D16*
X201726000Y-37720000D03*
D10*
X204226000Y-37720000D03*
X181152000Y-154052000D03*
X183652000Y-154052000D03*
X51920000Y-229480000D03*
X54420000Y-229480000D03*
D21*
X265518000Y-158545000D03*
D22*
X265518000Y-161085000D03*
D21*
X268072000Y-158545000D03*
D22*
X268072000Y-161085000D03*
D20*
X159816000Y-155270000D03*
X159816000Y-165430000D03*
D16*
X159816000Y-129922000D03*
D10*
X167436000Y-129922000D03*
X167436000Y-122302000D03*
X159816000Y-122302000D03*
D20*
X99009200Y-247777000D03*
X88849200Y-247777000D03*
D10*
X150987000Y-264415000D03*
X153487000Y-264415000D03*
X139049000Y-264415000D03*
X141549000Y-264415000D03*
X74333100Y-192533000D03*
X76833100Y-192533000D03*
X90614500Y-192533000D03*
X93114500Y-192533000D03*
D16*
X81126800Y-263399000D03*
D10*
X83626800Y-263399000D03*
D11*
X136753000Y-197105000D03*
D12*
X136753000Y-199645000D03*
X136753000Y-202185000D03*
X136753000Y-204725000D03*
X136753000Y-207265000D03*
X136753000Y-209805000D03*
X136753000Y-212345000D03*
X136753000Y-214885000D03*
X136753000Y-217425000D03*
X136753000Y-219965000D03*
X136753000Y-222505000D03*
X136753000Y-225045000D03*
X144373000Y-225045000D03*
X144373000Y-222505000D03*
X144373000Y-219965000D03*
X144373000Y-217425000D03*
X144373000Y-214885000D03*
X144373000Y-212345000D03*
X144373000Y-209805000D03*
X144373000Y-207265000D03*
X144373000Y-204725000D03*
X144373000Y-202185000D03*
X144373000Y-199645000D03*
X144373000Y-197105000D03*
D11*
X148691000Y-197105000D03*
D12*
X148691000Y-199645000D03*
X148691000Y-202185000D03*
X148691000Y-204725000D03*
X148691000Y-207265000D03*
X148691000Y-209805000D03*
X148691000Y-212345000D03*
X148691000Y-214885000D03*
X148691000Y-217425000D03*
X148691000Y-219965000D03*
X148691000Y-222505000D03*
X148691000Y-225045000D03*
X156311000Y-225045000D03*
X156311000Y-222505000D03*
X156311000Y-219965000D03*
X156311000Y-217425000D03*
X156311000Y-214885000D03*
X156311000Y-212345000D03*
X156311000Y-209805000D03*
X156311000Y-207265000D03*
X156311000Y-204725000D03*
X156311000Y-202185000D03*
X156311000Y-199645000D03*
X156311000Y-197105000D03*
D11*
X148437000Y-231395000D03*
D12*
X148437000Y-233935000D03*
X148437000Y-236475000D03*
X148437000Y-239015000D03*
X148437000Y-241555000D03*
X148437000Y-244095000D03*
X148437000Y-246635000D03*
X148437000Y-249175000D03*
X148437000Y-251715000D03*
X148437000Y-254255000D03*
X148437000Y-256795000D03*
X148437000Y-259335000D03*
X156057000Y-259335000D03*
X156057000Y-256795000D03*
X156057000Y-254255000D03*
X156057000Y-251715000D03*
X156057000Y-249175000D03*
X156057000Y-246635000D03*
X156057000Y-244095000D03*
X156057000Y-241555000D03*
X156057000Y-239015000D03*
X156057000Y-236475000D03*
X156057000Y-233935000D03*
X156057000Y-231395000D03*
D11*
X136499000Y-231395000D03*
D12*
X136499000Y-233935000D03*
X136499000Y-236475000D03*
X136499000Y-239015000D03*
X136499000Y-241555000D03*
X136499000Y-244095000D03*
X136499000Y-246635000D03*
X136499000Y-249175000D03*
X136499000Y-251715000D03*
X136499000Y-254255000D03*
X136499000Y-256795000D03*
X136499000Y-259335000D03*
X144119000Y-259335000D03*
X144119000Y-256795000D03*
X144119000Y-254255000D03*
X144119000Y-251715000D03*
X144119000Y-249175000D03*
X144119000Y-246635000D03*
X144119000Y-244095000D03*
X144119000Y-241555000D03*
X144119000Y-239015000D03*
X144119000Y-236475000D03*
X144119000Y-233935000D03*
X144119000Y-231395000D03*
D20*
X75538800Y-229871000D03*
X65378800Y-229871000D03*
X84074000Y-217424000D03*
X84074000Y-227584000D03*
X122224000Y-260694000D03*
X132384000Y-260694000D03*
X122224000Y-263488000D03*
X132384000Y-263488000D03*
X86206800Y-251461000D03*
X76046800Y-251461000D03*
X86206800Y-248921000D03*
X76046800Y-248921000D03*
X86206800Y-241301000D03*
X76046800Y-241301000D03*
X86206800Y-233681000D03*
X76046800Y-233681000D03*
X86206800Y-236221000D03*
X76046800Y-236221000D03*
X86206800Y-238761000D03*
X76046800Y-238761000D03*
X86206800Y-243841000D03*
X76046800Y-243841000D03*
X86206800Y-254001000D03*
X76046800Y-254001000D03*
X76046800Y-246381000D03*
X86206800Y-246381000D03*
D21*
X117512000Y-231649000D03*
D22*
X120052000Y-231649000D03*
D21*
X117512000Y-234189000D03*
D22*
X120052000Y-234189000D03*
D21*
X117512000Y-236729000D03*
D22*
X120052000Y-236729000D03*
D21*
X117512000Y-241809000D03*
D22*
X120052000Y-241809000D03*
D21*
X117512000Y-244349000D03*
D22*
X120052000Y-244349000D03*
D21*
X117512000Y-246889000D03*
D22*
X120052000Y-246889000D03*
D21*
X117512000Y-249429000D03*
D22*
X120052000Y-249429000D03*
D21*
X117512000Y-251969000D03*
D22*
X120052000Y-251969000D03*
D21*
X117512000Y-254509000D03*
D22*
X120052000Y-254509000D03*
D21*
X117512000Y-257049000D03*
D22*
X120052000Y-257049000D03*
D10*
X67664800Y-257811000D03*
X70164800Y-257811000D03*
D11*
X112623000Y-197105000D03*
D12*
X112623000Y-199645000D03*
X112623000Y-202185000D03*
X112623000Y-204725000D03*
X112623000Y-207265000D03*
X112623000Y-209805000D03*
X112623000Y-212345000D03*
X112623000Y-214885000D03*
X112623000Y-217425000D03*
X112623000Y-219965000D03*
X112623000Y-222505000D03*
X112623000Y-225045000D03*
X120243000Y-225045000D03*
X120243000Y-222505000D03*
X120243000Y-219965000D03*
X120243000Y-217425000D03*
X120243000Y-214885000D03*
X120243000Y-212345000D03*
X120243000Y-209805000D03*
X120243000Y-207265000D03*
X120243000Y-204725000D03*
X120243000Y-202185000D03*
X120243000Y-199645000D03*
X120243000Y-197105000D03*
D11*
X124815000Y-197105000D03*
D12*
X124815000Y-199645000D03*
X124815000Y-202185000D03*
X124815000Y-204725000D03*
X124815000Y-207265000D03*
X124815000Y-209805000D03*
X124815000Y-212345000D03*
X124815000Y-214885000D03*
X124815000Y-217425000D03*
X124815000Y-219965000D03*
X124815000Y-222505000D03*
X124815000Y-225045000D03*
X132435000Y-225045000D03*
X132435000Y-222505000D03*
X132435000Y-219965000D03*
X132435000Y-217425000D03*
X132435000Y-214885000D03*
X132435000Y-212345000D03*
X132435000Y-209805000D03*
X132435000Y-207265000D03*
X132435000Y-204725000D03*
X132435000Y-202185000D03*
X132435000Y-199645000D03*
X132435000Y-197105000D03*
D20*
X122224000Y-266282000D03*
X132384000Y-266282000D03*
D11*
X53440800Y-234951000D03*
D12*
X53440800Y-237491000D03*
X53440800Y-240031000D03*
X53440800Y-242571000D03*
X53440800Y-245111000D03*
X53440800Y-247651000D03*
X53440800Y-250191000D03*
X53440800Y-252731000D03*
X61060800Y-252731000D03*
X61060800Y-250191000D03*
X61060800Y-247651000D03*
X61060800Y-245111000D03*
X61060800Y-242571000D03*
X61060800Y-240031000D03*
X61060800Y-237491000D03*
X61060800Y-234951000D03*
D11*
X64870800Y-234951000D03*
D12*
X64870800Y-237491000D03*
X64870800Y-240031000D03*
X64870800Y-242571000D03*
X64870800Y-245111000D03*
X64870800Y-247651000D03*
X64870800Y-250191000D03*
X64870800Y-252731000D03*
X72490800Y-252731000D03*
X72490800Y-250191000D03*
X72490800Y-247651000D03*
X72490800Y-245111000D03*
X72490800Y-242571000D03*
X72490800Y-240031000D03*
X72490800Y-237491000D03*
X72490800Y-234951000D03*
D10*
X50711100Y-43700700D03*
X53211100Y-43700700D03*
X41452000Y-144780000D03*
X43952000Y-144780000D03*
X104749000Y-249683000D03*
X107249000Y-249683000D03*
X97840800Y-228981000D03*
X95340800Y-228981000D03*
D11*
X87934800Y-197105000D03*
D12*
X87934800Y-199645000D03*
X87934800Y-202185000D03*
X87934800Y-204725000D03*
X87934800Y-207265000D03*
X87934800Y-209805000D03*
X87934800Y-212345000D03*
X87934800Y-214885000D03*
X87934800Y-217425000D03*
X87934800Y-219965000D03*
X87934800Y-222505000D03*
X87934800Y-225045000D03*
X95554800Y-225045000D03*
X95554800Y-222505000D03*
X95554800Y-219965000D03*
X95554800Y-217425000D03*
X95554800Y-214885000D03*
X95554800Y-212345000D03*
X95554800Y-209805000D03*
X95554800Y-207265000D03*
X95554800Y-204725000D03*
X95554800Y-202185000D03*
X95554800Y-199645000D03*
X95554800Y-197105000D03*
D11*
X72112800Y-197105000D03*
D12*
X72112800Y-199645000D03*
X72112800Y-202185000D03*
X72112800Y-204725000D03*
X72112800Y-207265000D03*
X72112800Y-209805000D03*
X72112800Y-212345000D03*
X72112800Y-214885000D03*
X72112800Y-217425000D03*
X72112800Y-219965000D03*
X72112800Y-222505000D03*
X72112800Y-225045000D03*
X79732800Y-225045000D03*
X79732800Y-222505000D03*
X79732800Y-219965000D03*
X79732800Y-217425000D03*
X79732800Y-214885000D03*
X79732800Y-212345000D03*
X79732800Y-209805000D03*
X79732800Y-207265000D03*
X79732800Y-204725000D03*
X79732800Y-202185000D03*
X79732800Y-199645000D03*
X79732800Y-197105000D03*
D10*
X70510400Y-43484800D03*
X73010400Y-43484800D03*
D16*
X102463000Y-243079000D03*
D10*
X110083000Y-243079000D03*
X110083000Y-235459000D03*
X102463000Y-235459000D03*
D20*
X51790600Y-211087000D03*
X51790600Y-200927000D03*
D21*
X237211000Y-100127000D03*
D22*
X239751000Y-100127000D03*
D35*
X41610000Y-44649300D03*
X41610000Y-134649300D03*
D21*
X39370000Y-50279300D03*
D36*
X39370000Y-52819300D03*
X39370000Y-55359300D03*
X39370000Y-57899300D03*
X39370000Y-60439300D03*
X39370000Y-62979300D03*
X39370000Y-65519300D03*
X39370000Y-68059300D03*
X39370000Y-70599300D03*
X39370000Y-73139300D03*
X39370000Y-75679300D03*
X39370000Y-78219300D03*
X39370000Y-80759300D03*
X39370000Y-83299300D03*
X39370000Y-85839300D03*
X39370000Y-88379300D03*
X39370000Y-90919300D03*
X39370000Y-93459300D03*
X39370000Y-95999300D03*
X39370000Y-98539300D03*
X39370000Y-101079300D03*
X39370000Y-103619300D03*
X39370000Y-106159300D03*
X39370000Y-108699300D03*
X39370000Y-111239300D03*
X39370000Y-113779300D03*
X39370000Y-116319300D03*
X39370000Y-118859300D03*
X39370000Y-121399300D03*
X39370000Y-123939300D03*
X39370000Y-126479300D03*
X39370000Y-129019300D03*
X41910000Y-50279300D03*
X41910000Y-52819300D03*
X41910000Y-55359300D03*
X41910000Y-57899300D03*
X41910000Y-60439300D03*
X41910000Y-62979300D03*
X41910000Y-65519300D03*
X41910000Y-68059300D03*
X41910000Y-70599300D03*
X41910000Y-73139300D03*
X41910000Y-75679300D03*
X41910000Y-78219300D03*
X41910000Y-80759300D03*
X41910000Y-83299300D03*
X41910000Y-85839300D03*
X41910000Y-88379300D03*
X41910000Y-90919300D03*
X41910000Y-93459300D03*
X41910000Y-95999300D03*
X41910000Y-98539300D03*
X41910000Y-101079300D03*
X41910000Y-103619300D03*
X41910000Y-106159300D03*
X41910000Y-108699300D03*
X41910000Y-111239300D03*
X41910000Y-113779300D03*
X41910000Y-116319300D03*
X41910000Y-118859300D03*
X41910000Y-121399300D03*
X41910000Y-123939300D03*
X41910000Y-126479300D03*
X41910000Y-129019300D03*
X44450000Y-50279300D03*
X44450000Y-52819300D03*
X44450000Y-55359300D03*
X44450000Y-57899300D03*
X44450000Y-60439300D03*
X44450000Y-62979300D03*
X44450000Y-65519300D03*
X44450000Y-68059300D03*
X44450000Y-70599300D03*
X44450000Y-73139300D03*
X44450000Y-75679300D03*
X44450000Y-78219300D03*
X44450000Y-80759300D03*
X44450000Y-83299300D03*
X44450000Y-85839300D03*
X44450000Y-88379300D03*
X44450000Y-90919300D03*
X44450000Y-93459300D03*
X44450000Y-95999300D03*
X44450000Y-98539300D03*
X44450000Y-101079300D03*
X44450000Y-103619300D03*
X44450000Y-106159300D03*
X44450000Y-108699300D03*
X44450000Y-111239300D03*
X44450000Y-113779300D03*
X44450000Y-116319300D03*
X44450000Y-118859300D03*
X44450000Y-121399300D03*
X44450000Y-123939300D03*
X44450000Y-126479300D03*
X44450000Y-129019300D03*
D35*
X82250000Y-44649300D03*
X82250000Y-134649300D03*
D21*
X80010000Y-50279300D03*
D36*
X80010000Y-52819300D03*
X80010000Y-55359300D03*
X80010000Y-57899300D03*
X80010000Y-60439300D03*
X80010000Y-62979300D03*
X80010000Y-65519300D03*
X80010000Y-68059300D03*
X80010000Y-70599300D03*
X80010000Y-73139300D03*
X80010000Y-75679300D03*
X80010000Y-78219300D03*
X80010000Y-80759300D03*
X80010000Y-83299300D03*
X80010000Y-85839300D03*
X80010000Y-88379300D03*
X80010000Y-90919300D03*
X80010000Y-93459300D03*
X80010000Y-95999300D03*
X80010000Y-98539300D03*
X80010000Y-101079300D03*
X80010000Y-103619300D03*
X80010000Y-106159300D03*
X80010000Y-108699300D03*
X80010000Y-111239300D03*
X80010000Y-113779300D03*
X80010000Y-116319300D03*
X80010000Y-118859300D03*
X80010000Y-121399300D03*
X80010000Y-123939300D03*
X80010000Y-126479300D03*
X80010000Y-129019300D03*
X82550000Y-50279300D03*
X82550000Y-52819300D03*
X82550000Y-55359300D03*
X82550000Y-57899300D03*
X82550000Y-60439300D03*
X82550000Y-62979300D03*
X82550000Y-65519300D03*
X82550000Y-68059300D03*
X82550000Y-70599300D03*
X82550000Y-73139300D03*
X82550000Y-75679300D03*
X82550000Y-78219300D03*
X82550000Y-80759300D03*
X82550000Y-83299300D03*
X82550000Y-85839300D03*
X82550000Y-88379300D03*
X82550000Y-90919300D03*
X82550000Y-93459300D03*
X82550000Y-95999300D03*
X82550000Y-98539300D03*
X82550000Y-101079300D03*
X82550000Y-103619300D03*
X82550000Y-106159300D03*
X82550000Y-108699300D03*
X82550000Y-111239300D03*
X82550000Y-113779300D03*
X82550000Y-116319300D03*
X82550000Y-118859300D03*
X82550000Y-121399300D03*
X82550000Y-123939300D03*
X82550000Y-126479300D03*
X82550000Y-129019300D03*
X85090000Y-50279300D03*
X85090000Y-52819300D03*
X85090000Y-55359300D03*
X85090000Y-57899300D03*
X85090000Y-60439300D03*
X85090000Y-62979300D03*
X85090000Y-65519300D03*
X85090000Y-68059300D03*
X85090000Y-70599300D03*
X85090000Y-73139300D03*
X85090000Y-75679300D03*
X85090000Y-78219300D03*
X85090000Y-80759300D03*
X85090000Y-83299300D03*
X85090000Y-85839300D03*
X85090000Y-88379300D03*
X85090000Y-90919300D03*
X85090000Y-93459300D03*
X85090000Y-95999300D03*
X85090000Y-98539300D03*
X85090000Y-101079300D03*
X85090000Y-103619300D03*
X85090000Y-106159300D03*
X85090000Y-108699300D03*
X85090000Y-111239300D03*
X85090000Y-113779300D03*
X85090000Y-116319300D03*
X85090000Y-118859300D03*
X85090000Y-121399300D03*
X85090000Y-123939300D03*
X85090000Y-126479300D03*
X85090000Y-129019300D03*
D21*
X159710000Y-52330000D03*
D22*
X159710000Y-54870000D03*
X159710000Y-57410000D03*
X159710000Y-59950000D03*
X159710000Y-62490000D03*
X159710000Y-65030000D03*
D35*
X61930000Y-134649300D03*
X61930000Y-44649300D03*
D21*
X59690000Y-50279300D03*
D36*
X59690000Y-52819300D03*
X59690000Y-55359300D03*
X59690000Y-57899300D03*
X59690000Y-60439300D03*
X59690000Y-62979300D03*
X59690000Y-65519300D03*
X59690000Y-68059300D03*
X59690000Y-70599300D03*
X59690000Y-73139300D03*
X59690000Y-75679300D03*
X59690000Y-78219300D03*
X59690000Y-80759300D03*
X59690000Y-83299300D03*
X59690000Y-85839300D03*
X59690000Y-88379300D03*
X59690000Y-90919300D03*
X59690000Y-93459300D03*
X59690000Y-95999300D03*
X59690000Y-98539300D03*
X59690000Y-101079300D03*
X59690000Y-103619300D03*
X59690000Y-106159300D03*
X59690000Y-108699300D03*
X59690000Y-111239300D03*
X59690000Y-113779300D03*
X59690000Y-116319300D03*
X59690000Y-118859300D03*
X59690000Y-121399300D03*
X59690000Y-123939300D03*
X59690000Y-126479300D03*
X59690000Y-129019300D03*
X62230000Y-50279300D03*
X62230000Y-52819300D03*
X62230000Y-55359300D03*
X62230000Y-57899300D03*
X62230000Y-60439300D03*
X62230000Y-62979300D03*
X62230000Y-65519300D03*
X62230000Y-68059300D03*
X62230000Y-70599300D03*
X62230000Y-73139300D03*
X62230000Y-75679300D03*
X62230000Y-78219300D03*
X62230000Y-80759300D03*
X62230000Y-83299300D03*
X62230000Y-85839300D03*
X62230000Y-88379300D03*
X62230000Y-90919300D03*
X62230000Y-93459300D03*
X62230000Y-95999300D03*
X62230000Y-98539300D03*
X62230000Y-101079300D03*
X62230000Y-103619300D03*
X62230000Y-106159300D03*
X62230000Y-108699300D03*
X62230000Y-111239300D03*
X62230000Y-113779300D03*
X62230000Y-116319300D03*
X62230000Y-118859300D03*
X62230000Y-121399300D03*
X62230000Y-123939300D03*
X62230000Y-126479300D03*
X62230000Y-129019300D03*
X64770000Y-50279300D03*
X64770000Y-52819300D03*
X64770000Y-55359300D03*
X64770000Y-57899300D03*
X64770000Y-60439300D03*
X64770000Y-62979300D03*
X64770000Y-65519300D03*
X64770000Y-68059300D03*
X64770000Y-70599300D03*
X64770000Y-73139300D03*
X64770000Y-75679300D03*
X64770000Y-78219300D03*
X64770000Y-80759300D03*
X64770000Y-83299300D03*
X64770000Y-85839300D03*
X64770000Y-88379300D03*
X64770000Y-90919300D03*
X64770000Y-93459300D03*
X64770000Y-95999300D03*
X64770000Y-98539300D03*
X64770000Y-101079300D03*
X64770000Y-103619300D03*
X64770000Y-106159300D03*
X64770000Y-108699300D03*
X64770000Y-111239300D03*
X64770000Y-113779300D03*
X64770000Y-116319300D03*
X64770000Y-118859300D03*
X64770000Y-121399300D03*
X64770000Y-123939300D03*
X64770000Y-126479300D03*
X64770000Y-129019300D03*
D21*
X46482000Y-264160000D03*
D22*
X46482000Y-261620000D03*
D21*
X41402000Y-264160000D03*
D22*
X41402000Y-261620000D03*
D21*
X49022000Y-264160000D03*
D22*
X49022000Y-261620000D03*
D16*
X249440000Y-141240000D03*
D10*
X252940000Y-141240000D03*
X56290000Y-192533000D03*
X58790000Y-192533000D03*
D20*
X55720000Y-211087000D03*
X55720000Y-200927000D03*
D11*
X59240000Y-197105000D03*
D12*
X59240000Y-199645000D03*
X59240000Y-202185000D03*
X59240000Y-204725000D03*
X59240000Y-207265000D03*
X59240000Y-209805000D03*
X59240000Y-212345000D03*
X59240000Y-214885000D03*
X59240000Y-217425000D03*
X59240000Y-219965000D03*
X59240000Y-222505000D03*
X59240000Y-225045000D03*
X66860000Y-225045000D03*
X66860000Y-222505000D03*
X66860000Y-219965000D03*
X66860000Y-217425000D03*
X66860000Y-214885000D03*
X66860000Y-212345000D03*
X66860000Y-209805000D03*
X66860000Y-207265000D03*
X66860000Y-204725000D03*
X66860000Y-202185000D03*
X66860000Y-199645000D03*
X66860000Y-197105000D03*
M02*
